<?xml version="1.0" encoding="utf-8"?>
<!-- Generator: Adobe Illustrator 12.0.1, SVG Export Plug-In . SVG Version: 6.00 Build 51448)  -->
<!DOCTYPE svg PUBLIC "-//W3C//DTD SVG 1.1//EN" "http://www.w3.org/Graphics/SVG/1.1/DTD/svg11.dtd" [
	<!ENTITY ns_svg "http://www.w3.org/2000/svg">
	<!ENTITY ns_xlink "http://www.w3.org/1999/xlink">
]>
<svg  version="1.1" id="Ebene_1" xmlns="&ns_svg;" xmlns:xlink="&ns_xlink;" width="124" height="58.049" viewBox="0 0 124 58.049"
	 overflow="visible" enable-background="new 0 0 124 58.049" xml:space="preserve">
<path fill="#A0C814" d="M47.465,21.17c5.846,0,10.585-4.738,10.585-10.586C58.05,4.738,53.311,0,47.465,0
	c-5.848,0-10.586,4.738-10.586,10.584C36.878,16.432,41.617,21.17,47.465,21.17z M47.465,2.357c4.541,0,8.226,3.684,8.226,8.228
	c0,4.543-3.685,8.227-8.226,8.227c-4.545,0-8.227-3.684-8.227-8.227C39.238,6.041,42.92,2.357,47.465,2.357z"/>
<path fill="#A0C814" d="M20.923,29.025c0-4.474,3.625-8.1,8.1-8.1l0.002-2.313c-5.758,0-10.424,4.656-10.424,10.412
	c0,5.758,4.667,10.422,10.423,10.422c5.756,0,10.41-4.664,10.41-10.421h-2.296c0,4.474-3.641,8.1-8.115,8.1
	C24.549,37.125,20.923,33.499,20.923,29.025z"/>
<path fill="#A0C814" d="M13.986,29.024c0,8.306,6.733,15.039,15.038,15.039s15.054-6.733,15.054-15.039l-2.304,0.001
	c0,7.03-5.721,12.728-12.75,12.728c-7.03,0-12.729-5.698-12.729-12.729c0-7.029,5.699-12.726,12.729-12.726l-0.001-2.312
	C20.719,13.987,13.986,20.72,13.986,29.024z"/>
<path fill="#A0C814" d="M9.318,29.024c0,10.884,8.823,19.705,19.706,19.705c10.882,0,19.683-8.82,19.683-19.704h-2.321
	c0,9.582-7.783,17.348-17.362,17.348c-9.582,0-17.348-7.766-17.348-17.348c0-9.58,7.766-17.348,17.348-17.348l0.001-2.336
	C18.141,9.342,9.318,18.142,9.318,29.024z"/>
<path fill="#A0C814" d="M29.025,4.646c-13.464,0-24.38,10.914-24.38,24.379s10.916,24.38,24.38,24.38
	c13.463,0,24.362-10.914,24.362-24.379l-2.317-0.001c0,12.166-9.879,22.029-22.045,22.029c-12.167,0-22.029-9.863-22.029-22.029
	S16.857,6.995,29.025,6.995V4.646z"/>
<path fill="#A0C814" d="M29.025,55.736c-14.753,0-26.713-11.96-26.713-26.712c0-14.753,11.96-26.712,26.713-26.712l0-2.313
	C12.994,0,0,12.994,0,29.024s12.995,29.024,29.025,29.024c16.029,0,29.024-12.992,29.024-29.023l-2.297-0.001
	C55.753,43.776,43.778,55.736,29.025,55.736z"/>
<path fill="#A0C814" d="M71.632,25.346c1.158,0,2.585-0.259,3.361-0.624v-6.287h-3.957v1.978h1.572v2.823
	c-0.276,0.048-0.693,0.068-1.037,0.068c-1.752,0-3.109-0.926-3.109-3.896c0-2.924,1.371-3.852,3.414-3.852
	c0.854,0,1.977,0.183,2.691,0.472l0.243-1.995c-0.792-0.32-2.081-0.518-3.071-0.518c-3.52,0-5.789,1.842-5.789,5.924
	C65.95,23.429,68.053,25.346,71.632,25.346z"/>
<polygon fill="#A0C814" points="111.519,25.118 113.97,25.118 113.97,13.698 111.519,13.698 111.519,18.207 107.847,18.207 
	107.847,13.698 105.396,13.698 105.396,25.118 107.847,25.118 107.847,20.244 111.519,20.244 "/>
<polygon fill="#A0C814" points="101.534,25.118 101.534,15.754 104.016,15.754 104.016,13.698 96.573,13.698 96.573,15.754 
	99.054,15.754 99.054,25.118 "/>
<polygon fill="#A0C814" points="90.804,20.257 94.834,20.257 94.834,18.242 90.804,18.242 90.804,15.735 95.551,15.735 
	95.551,13.698 88.352,13.698 88.352,25.118 95.711,25.118 95.711,23.081 90.804,23.081 "/>
<path fill="#A0C814" d="M81.628,25.453c3.244,0,4.811-1.743,4.811-6.053c0-4.219-1.566-6.037-4.811-6.037
	c-3.243,0-4.811,1.818-4.811,6.037S78.445,25.453,81.628,25.453z M81.628,15.396c1.555,0,2.301,0.973,2.301,4.005
	c0,3.017-0.746,4.035-2.285,4.035c-1.555,0-2.315-1.004-2.315-4.035C79.328,16.384,80.089,15.396,81.628,15.396z"/>
<polygon fill="#A0C814" points="123.757,23.081 118.849,23.081 118.849,20.257 122.88,20.257 122.88,18.242 118.849,18.242 
	118.849,15.735 123.596,15.735 123.596,13.698 116.397,13.698 116.397,25.118 123.757,25.118 "/>
<polygon fill="#A0C814" points="88.019,31.021 90.29,31.021 90.29,40.059 92.685,40.059 92.685,31.021 94.956,31.021 94.956,29.037 
	88.019,29.037 "/>
<rect x="66.772" y="29.037" fill="#A0C814" width="2.418" height="11.021"/>
<path fill="#A0C814" d="M113.575,36.224c0,1.278-0.438,1.986-1.63,1.986c-1.181,0-1.647-0.721-1.647-1.986v-7.187h-2.396v7.275
	c0,2.645,1.361,3.938,4.037,3.938c2.646,0,4.008-1.293,4.008-3.938v-7.275h-2.371V36.224z"/>
<path fill="#A0C814" d="M83.396,31.975c0-0.571,0.293-1.136,1.492-1.136c0.752,0,1.418,0.201,2.086,0.492l0.264-1.926
	c-0.764-0.353-1.556-0.544-2.556-0.544c-2.543,0-3.64,1.469-3.64,3.336c0,3.546,4.383,2.867,4.383,4.836
	c0,0.757-0.477,1.266-1.479,1.266c-0.986,0-1.822-0.333-2.641-0.795l-0.309,1.968c0.852,0.499,1.906,0.778,3.053,0.778
	c2.381,0,3.729-1.322,3.729-3.481C87.778,33.106,83.396,33.678,83.396,31.975z"/>
<polygon fill="#A0C814" points="77.174,35.472 73.785,29.037 71.598,29.037 71.598,40.059 73.785,40.059 73.785,33.625 
	77.174,40.059 79.362,40.059 79.362,29.037 77.174,29.037 "/>
<polygon fill="#A0C814" points="117.063,29.037 117.063,31.021 119.335,31.021 119.335,40.059 121.729,40.059 121.729,31.021 
	124,31.021 124,29.037 "/>
<rect x="96.18" y="29.037" fill="#A0C814" width="2.419" height="11.021"/>
<polygon fill="#A0C814" points="99.823,31.021 102.095,31.021 102.095,40.059 104.489,40.059 104.489,31.021 106.76,31.021 
	106.76,29.037 99.823,29.037 "/>
</svg>
