<?xml version="1.0" encoding="UTF-8" standalone="no"?>
<!-- Created with Inkscape (http://www.inkscape.org/) -->

<svg
   xmlns:dc="http://purl.org/dc/elements/1.1/"
   xmlns:cc="http://creativecommons.org/ns#"
   xmlns:rdf="http://www.w3.org/1999/02/22-rdf-syntax-ns#"
   xmlns:svg="http://www.w3.org/2000/svg"
   xmlns="http://www.w3.org/2000/svg"
   xmlns:sodipodi="http://sodipodi.sourceforge.net/DTD/sodipodi-0.dtd"
   xmlns:inkscape="http://www.inkscape.org/namespaces/inkscape"
   width="1052.3622"
   height="744.09448"
   id="svg2"
   sodipodi:version="0.32"
   inkscape:version="0.47 r22583"
   version="1.0"
   sodipodi:docname="ubl_logo_vektorisiert-ver1.2.svg"
   inkscape:output_extension="org.inkscape.output.svg.inkscape">
  <defs
     id="defs4">
    <inkscape:perspective
       sodipodi:type="inkscape:persp3d"
       inkscape:vp_x="0 : 526.18109 : 1"
       inkscape:vp_y="0 : 1000 : 0"
       inkscape:vp_z="744.09448 : 526.18109 : 1"
       inkscape:persp3d-origin="372.04724 : 350.78739 : 1"
       id="perspective10" />
    <inkscape:perspective
       id="perspective2731"
       inkscape:persp3d-origin="372.04724 : 350.78739 : 1"
       inkscape:vp_z="744.09448 : 526.18109 : 1"
       inkscape:vp_y="0 : 1000 : 0"
       inkscape:vp_x="0 : 526.18109 : 1"
       sodipodi:type="inkscape:persp3d" />
  </defs>
  <sodipodi:namedview
     id="base"
     pagecolor="#ffffff"
     bordercolor="#666666"
     borderopacity="1.0"
     inkscape:pageopacity="0.0"
     inkscape:pageshadow="2"
     inkscape:zoom="1.0616931"
     inkscape:cx="317.29363"
     inkscape:cy="372.04723"
     inkscape:document-units="px"
     inkscape:current-layer="layer1"
     showgrid="false"
     inkscape:window-width="1680"
     inkscape:window-height="1003"
     inkscape:window-x="0"
     inkscape:window-y="20"
     showguides="true"
     inkscape:guide-bbox="true"
     inkscape:window-maximized="0" />
  <metadata
     id="metadata7">
    <rdf:RDF>
      <cc:Work
         rdf:about="">
        <dc:format>image/svg+xml</dc:format>
        <dc:type
           rdf:resource="http://purl.org/dc/dcmitype/StillImage" />
      </cc:Work>
    </rdf:RDF>
  </metadata>
  <path
     style="fill:#002f51;display:inline;fill-opacity:1"
     d="M 603.12347,506.05688 C 593.89533,505.52815 592.58355,488.20466 591.92847,482.7755 C 591.15887,475.93583 590.26639,466.39743 589.53112,458.27746 C 588.74437,447.3135 587.97103,439.23008 587.80139,427.80193 C 587.76205,418.87226 587.93866,409.35529 587.74833,398.60504 C 588.22824,391.19481 587.96995,382.5115 588.08825,372.59625 C 588.5723,361.62287 588.40808,357.24853 589.06428,345.72591 C 589.76831,335.12777 590.37192,327.20161 590.94315,316.29155 C 592.33005,300.71069 593.31366,288.10426 595.03432,274.03069 C 596.18309,264.21813 596.97373,253.62508 597.99311,244.34498 C 598.88123,235.93758 599.5025,227.27655 601.71399,218.98962 C 604.50285,210.03691 616.89303,211.55595 621.53759,218.27085 C 626.65522,225.8548 623.94762,232.61406 622.05332,241.52253 C 618.65325,256.93822 615.99806,270.05308 613.33921,286.8091 C 611.41798,299.60971 610.13931,310.47407 607.95575,324.1136 C 606.7277,334.40175 604.42941,345.85864 603.63845,354.86152 C 602.34831,363.49004 602.28062,369.11638 601.77293,378.08011 C 600.77724,388.0284 600.732,395.36203 600.71139,405.31037 C 600.94147,411.09768 600.9027,426.9058 603.46217,413.53264 C 605.85853,402.68503 607.34093,392.91137 609.58805,382.07195 C 611.96889,371.93001 614.47282,361.50266 617.36887,351.29311 C 620.65497,341.13277 623.85936,332.4711 628.56949,324.7536 C 634.36236,316.42559 639.44012,311.74455 647.45035,309.53402 C 656.39093,307.56305 664.12539,308.55128 671.27238,313.32756 C 677.37701,317.47489 680.72439,321.5075 682.6457,332.76215 C 684.22038,350.55441 681.29857,357.24633 679.70033,369.38433 C 677.85758,379.89843 677.11681,382.89948 674.51896,394.57359 C 672.39146,403.3648 671.35098,407.35674 668.892,415.97702 C 666.83781,422.85326 664.39268,431.35363 661.95206,439.53008 C 658.32448,450.07008 656.44558,459.82154 653.63892,468.78273 C 652.02075,476.09236 650.62663,484.87587 649.73781,488.07381 C 647.36682,496.2254 639.4964,503.66171 630.74596,501.6988 C 622.12031,499.58415 618.27564,490.01309 615.40408,482.33071 C 612.07621,473.96011 610.81576,463.56788 611.45046,457.42955 C 612.63699,450.16643 620.16696,447.86805 624.99865,452.45235 C 633.0582,459.94167 637.58975,439.69704 638.97841,434.0754 C 642.13142,422.11159 644.73478,412.66124 647.25565,401.79608 C 649.59788,390.69297 652.30138,379.79874 654.44899,368.45254 C 656.39932,359.59966 658.00009,348.95089 658.56111,344.07924 C 659.13972,336.00315 655.48836,326.1207 648.21996,328.12689 C 643.31204,330.01177 639.81154,334.13106 637.35495,338.52141 C 632.81729,345.81262 630.5662,353.94232 627.92751,362.13277 C 625.39185,369.35788 621.56778,382.53697 619.12481,391.91433 C 615.80722,404.60307 613.84084,411.81803 611.00457,423.48242 C 608.32546,436.76228 606.94791,449.08665 606.73725,453.86279 C 606.44375,458.62955 606.32837,471.50602 607.19265,480.83795 C 608.15523,490.90553 612.66115,506.54315 603.12347,506.05688 z M 462.62412,480.80873 C 459.98601,469.02013 460.26202,463.51773 462.06866,442.55106 C 463.07429,432.80302 465.04489,423.91858 466.61159,413.74682 C 469.25541,402.01701 470.77714,393.15982 474.62469,378.3131 C 476.84791,368.35783 480.48341,355.63737 483.51281,346.0604 C 486.71283,335.24152 489.34823,328.20439 493.01139,317.31855 C 496.16292,309.71346 498.11838,300.00066 504.72142,294.73892 C 511.56565,289.38242 526.06621,299.12865 520.32669,310.11286 C 516.91298,317.13831 512.92321,325.41188 509.27849,332.65742 C 505.98975,338.9739 502.83192,345.18284 499.93717,351.59741 C 496.93341,357.95767 495.75205,361.14679 492.50482,369.05237 C 489.73771,376.57758 487.0819,382.89724 484.30907,391.36541 C 480.46177,404.07234 478.93802,407.12785 476.04628,418.37451 C 473.19464,429.78739 469.25176,448.17212 468.671,455.45912 C 468.1633,465.1299 466.13741,487.80886 479.55173,486.76494 C 486.21282,485.52549 489.21113,480.28242 493.26501,474.54802 C 502.91789,459.6951 505.64335,453.35465 512.92846,438.25846 C 516.56284,429.66222 519.06529,423.14489 522.22962,414.98907 C 525.55565,405.61238 528.03696,399.18491 531.23961,389.8881 C 532.83238,384.22103 535.22671,376.2627 536.95635,369.77152 C 538.47517,363.9345 541.05348,355.67642 542.02299,350.07468 C 545.5518,337.62212 546.23803,327.87284 548.38483,314.57082 C 548.82731,308.24341 551.74684,299.8234 557.61655,298.64358 C 567.06905,297.3543 575.27321,303.53722 575.49155,313.32679 C 574.33354,328.67086 572.7088,330.1552 570.89733,345.5781 C 569.88604,355.75963 568.99391,366.60054 568.32408,378.80454 C 567.91541,389.89042 567.68459,402.3665 568.0913,411.01272 C 569.00076,427.70087 569.8031,444.93668 571.43826,461.34384 C 572.46824,470.53863 576.58021,477.7231 577.11752,484.93015 C 577.46397,495.21896 564.21953,498.76806 556.55045,494.21298 C 547.42562,487.06627 547.04323,475.61858 546.3173,466.34477 C 545.29292,454.22407 545.1268,447.56593 544.63784,429.94681 C 544.471,420.16678 544.11029,409.29741 544.21529,401.0842 C 540.09197,407.99387 536.05606,414.93632 532.92506,421.56908 C 528.82893,429.1585 525.59675,435.35574 521.84888,442.9914 C 519.04044,448.75879 513.74808,459.16039 510.55706,464.79467 C 507.4338,470.19702 504.14206,475.61891 499.95643,481.97879 C 495.40126,488.86809 488.65867,498.06233 478.02267,497.32132 C 468.86076,496.30329 464.81465,488.47115 462.62412,480.80873 z M 712.87485,497.21293 C 706.5105,495.95633 700.52818,487.13895 697.62234,481.1563 C 694.97223,475.42451 692.59683,466.22653 691.66382,457.18005 C 690.11535,440.60111 690.5564,428.90179 690.86378,414.94302 C 691.07213,403.89665 691.47601,391.80084 691.80751,380.85802 C 692.2712,372.24382 692.76046,363.65644 693.48064,352.33443 C 694.22835,341.17694 695.12642,328.75862 696.08629,317.89223 C 696.98286,310.05105 697.73219,304.60904 698.91343,294.76061 C 700.26894,284.48112 700.88544,278.94595 701.77337,271.94005 C 703.26869,262.21284 704.67132,252.84597 706.12479,243.84176 C 707.50141,236.61205 710.44883,221.03013 713.3725,213.6794 C 715.50528,208.11408 726.56716,213.32643 730.76347,218.11145 C 734.45672,222.27786 736.87572,227.74971 735.6995,233.23143 C 733.82765,241.46271 729.50804,260.38006 728.07382,266.37976 C 726.50012,272.9458 724.21705,283.45768 722.62888,291.53241 C 721.29786,298.84296 718.25779,317.22595 716.95346,325.04518 C 716.11712,331.03752 714.6068,342.6821 713.76968,349.94477 C 712.92653,358.94356 711.66778,373.83623 711.09984,381.29043 C 710.26478,392.26898 710.07371,401.71044 709.74446,414.21073 C 709.79374,424.87818 708.7444,441.38837 711.24464,450.39365 C 714.10765,461.1683 719.46033,464.64158 723.60122,470.91048 C 727.62237,477.04845 729.5682,483.10587 726.32835,490.54552 C 724.2032,495.36659 718.70969,498.27031 712.87485,497.21293 z"
     id="path2753"
     sodipodi:nodetypes="ccccccccccccccccccccccccccccccccccccccccccccccccccccccccccccccccccccccccccccccccccccccccccccccccccccccccccccc" />
  <g
     inkscape:label="Schrift"
     inkscape:groupmode="layer"
     id="layer1"
     style="display:inline">
    <path
       id="path2748"
       d="M 951.48641,362.73394 C 941.63251,360.52326 934.34231,353.52574 931.61902,343.66413 C 930.7808,340.62878 930.84268,334.20372 931.74034,331.06649 C 934.97835,319.75015 944.17043,312.30227 955.62828,311.71127 C 963.26187,311.31753 969.66802,313.79012 975.21889,319.2727 C 976.7121,320.74757 977.88743,322.13634 977.83071,322.35885 C 977.77402,322.58137 976.89561,323.54889 975.8787,324.5089 L 974.02983,326.25436 L 972.56935,324.5089 C 970.6055,322.1618 968.37741,320.34015 965.96188,319.10675 C 962.69113,317.43666 960.77979,316.99737 956.82619,317.00704 C 953.72628,317.01463 953.01063,317.12248 950.68764,317.93221 C 944.54101,320.07475 939.69066,324.96644 937.57708,331.15452 C 936.64744,333.87633 936.41512,339.36389 937.11167,342.14707 C 938.55628,347.919 942.54091,352.91087 947.90626,355.67034 C 952.45847,358.0116 956.4503,358.54538 960.89876,357.40765 C 967.55219,355.70599 972.70047,350.88505 973.88004,345.25177 C 974.52704,342.16186 975.24513,342.44433 966.74292,342.44433 L 959.26723,342.44433 L 959.26723,339.85073 L 959.26723,337.25712 L 969.84091,337.25712 L 980.41455,337.25712 L 980.22659,340.68983 C 980.01203,344.60861 979.19489,348.14824 977.9123,350.71493 C 975.09256,356.35771 969.03604,360.96156 962.31853,362.56848 C 959.27263,363.2971 954.33297,363.37255 951.48641,362.73394 z M 240.53311,362.53824 C 226.72263,359.98949 217.12472,346.73134 219.44044,333.4017 C 220.4313,327.69815 222.53764,323.42356 226.29535,319.49041 C 231.75623,313.77458 238.46397,311.06602 246.33058,311.40028 C 250.57923,311.58081 253.74797,312.44131 257.45631,314.42156 C 269.2383,320.71317 274.30611,334.90599 269.15114,347.17385 C 267.33237,351.50219 262.97875,356.62683 259.21504,358.86965 C 256.58596,360.43632 252.97928,361.88256 250.38642,362.4098 C 247.83983,362.92764 242.98594,362.99091 240.53311,362.53824 z M 249.1659,357.22528 C 253.04948,356.44 256.26361,354.66086 259.30727,351.61164 C 263.55172,347.35946 265.40122,342.91493 265.40122,336.96729 C 265.40122,328.91205 260.98699,321.9576 253.64505,318.4459 C 248.19612,315.83963 241.81378,315.94119 236.10872,318.72492 C 232.44407,320.51306 228.82586,324.13054 227.03374,327.79808 C 219.51625,343.18247 232.59751,360.57547 249.1659,357.22528 z M 760.32236,337.56225 L 760.32236,312.54158 L 763.06853,312.54158 L 765.8147,312.54158 L 765.8147,334.81608 L 765.8147,357.09058 L 772.68013,357.09058 L 779.54556,357.09058 L 779.54556,359.83675 L 779.54556,362.58292 L 769.93396,362.58292 L 760.32236,362.58292 L 760.32236,337.56225 z M 787.07538,362.38277 C 786.96169,362.26909 786.86868,351.00832 786.86868,337.35883 L 786.86868,312.54158 L 799.98928,312.54158 L 813.10988,312.54158 L 813.10988,315.13518 L 813.10988,317.72879 L 802.88802,317.72879 L 792.66616,317.72879 L 792.66616,325.04769 L 792.66616,332.36658 L 802.50661,332.44709 L 812.34705,332.5276 L 812.34705,335.12121 L 812.34705,337.71481 L 802.50661,337.79532 L 792.66616,337.87583 L 792.66616,347.47909 L 792.66616,357.08235 L 802.81174,357.16275 L 812.95731,357.24314 L 812.95731,359.83675 L 812.95731,362.43036 L 800.11969,362.50991 C 793.05898,362.55366 787.18904,362.49645 787.07538,362.38277 z M 824.61408,362.39048 C 824.49618,362.27256 824.3997,351.00832 824.3997,337.35883 L 824.3997,312.54158 L 827.3002,312.54158 L 830.20074,312.54158 L 830.12266,337.48597 L 830.0446,362.43036 L 827.43653,362.51762 C 826.00212,362.56561 824.73201,362.5084 824.61408,362.39048 z M 844.74172,362.3795 C 844.62983,362.26762 844.53829,351.00832 844.53829,337.35883 L 844.53829,312.54158 L 851.17487,312.54687 C 858.37658,312.55262 860.7309,312.86295 863.62506,314.18793 C 869.54666,316.89893 872.4804,324.58949 870.16275,331.32588 C 867.94916,337.75979 862.93919,340.61355 853.85763,340.61355 L 850.33576,340.61355 L 850.33576,351.59824 L 850.33576,362.58292 L 847.64045,362.58292 C 846.15801,362.58292 844.85358,362.49138 844.74172,362.3795 z M 857.16827,335.11027 C 860.86226,334.5763 863.11757,333.21422 864.47598,330.69682 C 865.0254,329.6786 865.13457,328.97055 865.13457,326.425 C 865.13457,323.13968 864.66672,321.72163 863.10085,320.26102 C 861.36731,318.64401 857.72656,317.74653 852.85308,317.73483 L 850.33576,317.72879 L 850.33576,326.57756 L 850.33576,335.42634 L 852.70052,335.42029 C 854.00114,335.41697 856.01161,335.27746 857.16827,335.11027 z M 871.38974,362.32087 C 871.38974,362.17404 877.43355,352.11508 884.82038,339.96763 L 898.25105,317.88135 L 886.4986,317.80149 L 874.74617,317.72162 L 874.74617,315.1316 L 874.74617,312.54158 L 891.2481,312.54158 L 907.75,312.54158 L 907.14682,313.53325 C 906.81505,314.07867 900.81381,323.93056 893.81071,335.42634 C 886.8076,346.92212 881.01159,356.49939 880.93064,356.70917 C 880.81433,357.01068 883.54146,357.09058 893.9486,357.09058 L 907.11374,357.09058 L 907.02556,359.76047 L 906.93741,362.43036 L 889.16357,362.5091 C 879.15164,362.55345 871.38974,362.47125 871.38974,362.32087 z M 915.63362,337.56225 L 915.63362,312.54158 L 918.37979,312.54158 L 921.12596,312.54158 L 921.12596,337.56225 L 921.12596,362.58292 L 918.37979,362.58292 L 915.63362,362.58292 L 915.63362,337.56225 z M 75,337.10039 L 75,312.17848 L 81.941711,312.30752 C 89.855394,312.45462 91.481304,312.7926 94.738379,314.96759 C 98.246419,317.31016 99.825443,320.58477 99.821763,325.50961 C 99.818833,329.44303 99.089899,331.4687 96.842389,333.78912 L 95.269109,335.41344 L 96.595919,335.86553 C 99.719793,336.92994 102.81526,340.34724 103.90332,343.93267 C 104.65037,346.39438 104.57896,350.62137 103.75178,352.9026 C 102.35804,356.74629 99.365643,359.41886 94.728919,360.96107 C 92.301649,361.7684 92.025852,361.79185 83.619927,361.90562 L 75,362.02229 L 75,337.10039 z M 90.559801,356.45936 C 94.197479,355.86919 96.580879,354.35792 97.985599,351.7508 C 98.519879,350.75919 98.643209,350.01524 98.643209,347.78411 C 98.643209,343.82543 97.671399,342.17638 94.363499,340.52194 C 92.20817,339.44396 89.886577,339.0879 85.013256,339.0879 L 80.797473,339.0879 L 80.797473,347.93667 L 80.797473,356.78545 L 84.687883,356.78315 C 86.827608,356.78188 89.469972,356.63617 90.559801,356.45936 z M 88.931292,333.44581 C 91.065567,332.812 92.415879,331.81898 93.307809,330.22732 C 93.986629,329.01595 94.070639,328.5132 94.070639,325.66217 C 94.070639,322.81114 93.986629,322.30839 93.307809,321.09703 C 91.857838,318.50952 90.024663,317.76015 84.535318,317.51095 L 80.797473,317.34127 L 80.797473,325.62098 L 80.797473,333.90069 L 84.098524,333.90069 C 86.135273,333.90069 87.986222,333.72647 88.931292,333.44581 z M 114.66692,337.10455 L 114.66692,312.23645 L 117.56566,312.23645 L 120.46439,312.23645 L 120.46439,337.10455 L 120.46439,361.97266 L 117.56566,361.97266 L 114.66692,361.97266 L 114.66692,337.10455 z M 134.19525,337.10455 L 134.19525,312.23645 L 140.22156,312.24174 C 146.95076,312.24766 149.2947,312.59246 152.36142,314.02755 C 154.87681,315.20464 156.55577,316.77538 157.6595,318.98413 C 160.22445,324.11705 159.51743,330.46042 155.99505,333.91737 L 154.652,335.23547 L 156.5478,336.14536 C 162.08875,338.80476 164.96845,345.43101 163.32513,351.74013 C 162.3008,355.67281 160.16199,358.19838 156.31718,360.01536 C 152.84043,361.65839 150.51536,361.97266 141.83636,361.97266 L 134.19525,361.97266 L 134.19525,337.10455 z M 151.78629,356.05329 C 154.29918,355.26339 156.16808,353.82361 157.17311,351.90337 C 157.99284,350.33716 158.04358,350.03721 157.93333,347.40933 C 157.82712,344.87763 157.72326,344.46199 156.90397,343.29007 C 154.72544,340.17391 151.50249,339.0879 144.43315,339.0879 L 139.99271,339.0879 L 139.99271,347.9757 L 139.99271,356.8635 L 145.10365,356.70542 C 148.56862,356.59825 150.72074,356.38823 151.78629,356.05329 z M 148.35455,333.38397 C 150.57903,332.75981 152.47312,331.04364 153.04318,329.13577 C 153.5017,327.6012 153.53025,323.78858 153.09496,322.22112 C 152.64465,320.59953 151.2521,319.14263 149.38455,318.33923 C 148.10412,317.7884 147.01416,317.62074 143.88999,317.49403 L 139.99271,317.33596 L 139.99271,325.61833 L 139.99271,333.90069 L 143.25285,333.90069 C 145.38784,333.90069 147.14854,333.72236 148.35455,333.38397 z M 174.47242,337.10455 L 174.47242,312.23645 L 177.37116,312.23645 L 180.2699,312.23645 L 180.2699,334.50511 L 180.2699,356.77377 L 187.05904,356.85589 L 193.84819,356.93801 L 193.93681,359.45534 L 194.02543,361.97266 L 184.24893,361.97266 L 174.47242,361.97266 L 174.47242,337.10455 z M 202.5444,337.10455 L 202.5444,312.23645 L 205.44314,312.23645 L 208.34187,312.23645 L 208.34187,337.10455 L 208.34187,361.97266 L 205.44314,361.97266 L 202.5444,361.97266 L 202.5444,337.10455 z M 285.53981,339.69816 L 285.53981,317.42366 L 279.58977,317.42366 L 273.63973,317.42366 L 273.63973,314.83005 L 273.63973,312.23645 L 288.59111,312.23645 L 303.54249,312.23645 L 303.54249,314.83005 L 303.54249,317.42366 L 297.43988,317.42366 L 291.33728,317.42366 L 291.33728,339.69816 L 291.33728,361.97266 L 288.43854,361.97266 L 285.53981,361.97266 L 285.53981,339.69816 z M 310.56048,337.10455 L 310.56048,312.23645 L 313.45922,312.23645 L 316.35796,312.23645 L 316.35796,322.30574 L 316.35796,332.37504 L 329.02086,332.37504 L 341.68376,332.37504 L 341.68376,322.30574 L 341.68376,312.23645 L 344.5825,312.23645 L 347.48123,312.23645 L 347.48123,337.10455 L 347.48123,361.97266 L 344.5825,361.97266 L 341.68376,361.97266 L 341.68376,349.76746 L 341.68376,337.56225 L 329.02086,337.56225 L 316.35796,337.56225 L 316.35796,349.76746 L 316.35796,361.97266 L 313.45922,361.97266 L 310.56048,361.97266 L 310.56048,337.10455 z M 360.90696,337.10455 L 360.90696,312.23645 L 373.87499,312.23645 L 386.84303,312.23645 L 386.84303,314.83005 L 386.84303,317.42366 L 376.62116,317.42366 L 366.3993,317.42366 L 366.3993,324.74678 L 366.3993,332.06991 L 376.31603,332.06991 L 386.23277,332.06991 L 386.23277,334.66351 L 386.23277,337.25712 L 376.31603,337.25712 L 366.3993,337.25712 L 366.3993,347.02128 L 366.3993,356.78545 L 376.62116,356.78545 L 386.84303,356.78545 L 386.84303,359.37906 L 386.84303,361.97266 L 373.87499,361.97266 L 360.90696,361.97266 L 360.90696,337.10455 z M 397.52258,337.10455 L 397.52258,312.23645 L 400.26875,312.23645 L 403.01492,312.23645 L 403.01492,322.83808 L 403.01492,333.43972 L 413.61982,322.83808 L 424.22471,312.23645 L 428.03722,312.24472 L 431.84973,312.25299 L 420.11332,323.78451 L 408.37692,335.31602 L 420.34217,348.48297 C 426.92306,355.7248 432.30742,361.72254 432.30742,361.8113 C 432.30742,361.90005 430.60959,361.97266 428.53449,361.97266 L 424.76152,361.97266 L 415.03248,351.08352 C 409.68147,345.0945 405.14284,339.97975 404.94658,339.71743 C 404.6305,339.29494 404.49981,339.32495 403.80234,339.98019 L 403.01492,340.71993 L 403.01492,351.34629 L 403.01492,361.97266 L 400.26875,361.97266 L 397.52258,361.97266 L 397.52258,337.10455 z M 210.09318,254.01004 C 204.59527,239.6319 200.09841,227.76497 200.10017,227.63911 C 200.10192,227.51324 201.44301,227.41026 203.08037,227.41026 L 206.05738,227.41026 L 213.06327,246.17062 C 216.91651,256.48882 220.16165,264.83031 220.27468,264.70728 C 220.38772,264.58424 223.39603,256.65699 226.95982,247.09116 C 230.52361,237.52533 233.64301,229.18383 233.89182,228.5545 L 234.3442,227.41026 L 237.39502,227.41026 C 240.17527,227.41026 240.42764,227.45762 240.24073,227.94424 C 240.12792,228.23793 235.62791,240.01214 230.24071,254.10915 C 224.85351,268.20616 220.36561,279.83279 220.26759,279.94611 C 220.16958,280.05942 215.59109,268.38819 210.09318,254.01004 z M 149.60432,259.10436 L 130.38112,238.95805 L 130.30255,258.05226 L 130.22397,277.14648 L 127.4801,277.14648 L 124.73622,277.14648 L 124.75061,251.13413 L 124.76501,225.12178 L 126.50511,226.99506 C 127.46217,228.02537 136.14045,237.13353 145.79019,247.23542 L 163.33517,265.60251 L 163.41375,246.50638 L 163.49232,227.41026 L 166.38877,227.41026 L 169.28521,227.41026 L 169.28521,253.34632 C 169.28521,267.61116 169.18223,279.27525 169.05636,279.26653 C 168.9305,279.25781 160.17708,270.18483 149.60432,259.10436 z M 88.293444,277.59126 C 83.327201,276.34024 78.67531,272.79279 76.829973,268.84939 C 75.06574,265.07931 75.011111,264.36623 75.005298,245.03153 L 75,227.41026 L 77.887548,227.41026 L 80.775097,227.41026 L 80.862568,245.95384 L 80.950038,264.49742 C 80.954913,265.22522 82.398223,268.2818 84.020818,269.49439 C 85.651324,270.926 88.468461,272.22134 90.833419,272.62689 C 94.909099,273.32579 99.306003,271.8163 102.10032,268.75887 C 104.83857,265.76279 104.72291,266.7348 104.83291,245.79435 L 104.92947,227.41026 L 107.83222,227.41026 L 110.73497,227.41026 L 110.62645,245.79435 C 110.52988,262.15514 110.45953,264.37808 109.98723,265.99235 C 109.22668,268.59182 107.96005,270.62015 105.75821,272.76453 C 103.42352,275.03829 102.07256,275.89653 99.095639,276.9971 C 96.250109,278.0491 91.211227,278.32626 88.293444,277.59126 z M 334.44136,277.59148 C 330.74438,276.59584 326.79425,273.57662 325.08866,270.44288 C 324.02505,268.48869 322.99884,265.49743 323.29627,265.21838 C 323.73982,264.80224 328.32969,263.67056 328.54693,263.92377 C 328.6671,264.06384 328.9353,264.79633 329.14294,265.55153 C 329.59277,267.18759 331.26794,269.75752 332.45812,270.63746 C 334.6747,272.27625 335.94002,272.69858 338.63246,272.69827 C 341.93849,272.6979 343.98747,271.79485 346.21676,269.35566 C 348.16492,267.22406 348.83279,265.32154 348.62964,262.48224 C 348.36156,258.73547 346.65264,256.73755 341.68376,254.36173 C 331.11739,249.30953 331.252,249.38558 329.15268,247.28245 C 326.62466,244.74985 325.79017,242.77871 325.78985,239.33919 C 325.78938,234.35066 328.17951,230.37757 332.4972,228.18963 C 338.13104,225.33475 344.88956,226.08565 349.30696,230.05727 C 350.74216,231.34764 352.86778,234.04223 352.62158,234.25912 C 352.56344,234.31033 351.52802,234.98143 350.32063,235.75047 L 348.12537,237.14871 L 347.47874,236.10244 C 347.1231,235.52699 346.20291,234.50233 345.43389,233.82541 C 340.46054,229.44769 332.28447,232.20106 331.41473,238.5465 C 330.98222,241.70198 333.09505,244.2767 337.97508,246.54102 C 347.46267,250.94323 348.4584,251.50819 350.71256,253.76808 C 352.33357,255.3932 353.03945,256.37111 353.51664,257.65279 C 356.59528,265.9216 351.52309,275.3067 342.73904,277.59465 C 340.53323,278.16919 336.58089,278.16768 334.44136,277.59148 z M 495.92706,277.49231 C 490.80942,276.02175 486.84117,272.04966 485.29996,266.85496 C 485.03962,265.97754 484.92132,265.20321 485.03706,265.13421 C 485.65815,264.76398 490.0267,263.71543 490.28444,263.87473 C 490.45101,263.97767 490.58741,264.29408 490.58753,264.57787 C 490.58799,265.54162 492.34587,268.81544 493.46253,269.93207 C 494.07404,270.54359 495.29065,271.41595 496.1661,271.87064 C 497.53132,272.57969 498.12693,272.69739 500.35145,272.69766 C 502.55602,272.69793 503.20433,272.57244 504.67347,271.8611 C 508.20895,270.14929 510.17313,267.26271 510.37147,263.48735 C 510.58607,259.40182 508.70295,256.89771 503.55532,254.42353 C 502.04492,253.69757 499.07143,252.27046 496.94751,251.25217 C 492.37513,249.05995 489.88356,246.98405 488.53928,244.2466 C 487.76495,242.66977 487.68855,242.2128 487.68855,239.15777 C 487.68855,236.15487 487.77469,235.61756 488.50633,234.05659 C 491.62628,227.39992 500.69921,224.50912 507.85167,227.89279 C 510.77531,229.27589 515.07697,233.83596 514.04847,234.46187 C 513.81535,234.60374 512.77595,235.26939 511.73869,235.94108 L 509.85278,237.16233 L 509.21936,236.13742 C 504.93716,229.2087 494.19307,230.81779 493.13372,238.5465 C 492.71157,241.62651 494.81111,244.26278 499.37738,246.3862 C 509.15372,250.93246 510.18445,251.51528 512.43049,253.76702 C 514.1019,255.44266 514.75457,256.3589 515.28245,257.77071 C 518.32908,265.91904 513.19673,275.31852 504.45801,277.59465 C 502.12529,278.20225 498.23528,278.15558 495.92706,277.49231 z M 184.84685,252.27837 L 184.84685,227.41026 L 187.74559,227.41026 L 190.64432,227.41026 L 190.64432,252.27837 L 190.64432,277.14648 L 187.74559,277.14648 L 184.84685,277.14648 L 184.84685,252.27837 z M 248.92419,252.27837 L 248.92419,227.41026 L 262.05712,227.41026 L 275.19006,227.41026 L 275.10144,229.92758 L 275.01282,232.44491 L 264.86724,232.5253 L 254.72166,232.6057 L 254.72166,239.92471 L 254.72166,247.24372 L 264.63839,247.24372 L 274.55512,247.24372 L 274.55512,249.83733 L 274.55512,252.43093 L 264.63839,252.43093 L 254.72166,252.43093 L 254.72166,262.19099 L 254.72166,271.95104 L 264.86724,272.03143 L 275.01282,272.11183 L 275.10144,274.62915 L 275.19006,277.14648 L 262.05712,277.14648 L 248.92419,277.14648 L 248.92419,252.27837 z M 287.67572,252.24894 L 287.67572,227.35141 L 294.46487,227.48702 C 301.64977,227.63054 303.19483,227.87375 306.49467,229.38065 C 312.42982,232.09099 314.85562,239.73647 312.09309,247.02542 C 311.2747,249.18474 308.7924,251.96768 306.63961,253.13937 C 305.79904,253.59687 304.1586,254.20819 302.99419,254.49786 L 300.87709,255.02454 L 308.59882,265.85666 C 312.84576,271.81433 316.32896,276.79626 316.33924,276.92762 C 316.34954,277.05898 314.82159,277.12764 312.94382,277.08019 L 309.52968,276.99391 L 302.16841,266.31436 C 296.74975,258.45309 294.63112,255.60907 294.14016,255.5373 L 293.47319,255.43979 L 293.47319,266.29313 L 293.47319,277.14648 L 290.57446,277.14648 L 287.67572,277.14648 L 287.67572,252.24894 z M 300.04146,249.9626 C 305.34302,248.98255 307.76319,245.90721 307.44346,240.55679 C 307.27971,237.81666 306.53332,236.14786 304.84815,234.75413 C 303.22709,233.41343 301.1998,232.87384 297.05847,232.68081 L 293.47319,232.5137 L 293.47319,241.40436 L 293.47319,250.29502 L 295.85819,250.29502 C 297.16995,250.29502 299.05242,250.14543 300.04146,249.9626 z M 366.3993,252.27837 L 366.3993,227.41026 L 369.29804,227.41026 L 372.19678,227.41026 L 372.19678,252.27837 L 372.19678,277.14648 L 369.29804,277.14648 L 366.3993,277.14648 L 366.3993,252.27837 z M 391.72511,254.87197 L 391.72511,232.59747 L 385.77507,232.59747 L 379.82503,232.59747 L 379.82503,230.00387 L 379.82503,227.41026 L 394.77641,227.41026 L 409.72779,227.41026 L 409.72779,230.00387 L 409.72779,232.59747 L 403.62519,232.59747 L 397.52258,232.59747 L 397.52258,254.87197 L 397.52258,277.14648 L 394.62385,277.14648 L 391.72511,277.14648 L 391.72511,254.87197 z M 408.8124,276.94435 C 408.8124,276.50773 431.49535,225.27435 431.68865,225.27435 C 431.84765,225.27435 452.95991,274.20151 453.84604,276.62358 C 454.03049,277.12776 453.81178,277.16209 450.9293,277.08128 L 447.81313,276.99391 L 446.15667,273.02722 C 445.24564,270.84554 443.93871,267.72177 443.25241,266.08551 L 442.00455,263.11049 L 431.4032,263.11049 L 420.80185,263.11049 L 417.82689,270.12848 L 414.85196,277.14648 L 411.83218,277.14648 C 410.1713,277.14648 408.8124,277.05552 408.8124,276.94435 z M 439.63344,257.69443 C 439.63708,257.40614 431.60236,238.08069 431.51759,238.17383 C 431.46728,238.22912 423.79902,256.17938 423.24368,257.54186 C 423.12157,257.84144 424.86298,257.92328 431.35938,257.92328 C 435.90854,257.92328 439.63186,257.8203 439.63344,257.69443 z M 463.73583,254.87197 L 463.73583,232.59747 L 457.78579,232.59747 L 451.83575,232.59747 L 451.83575,230.00387 L 451.83575,227.41026 L 466.78713,227.41026 L 481.73851,227.41026 L 481.73851,230.00387 L 481.73851,232.59747 L 475.63591,232.59747 L 469.5333,232.59747 L 469.5333,254.87197 L 469.5333,277.14648 L 466.63457,277.14648 L 463.73583,277.14648 L 463.73583,254.87197 z M 419.87938,232.45022 C 418.78732,231.97547 417.66407,230.38328 417.6623,229.30752 C 417.65769,226.48783 420.6029,224.7182 423.12752,226.02373 C 424.05704,226.50441 424.985,228.13634 424.98317,229.28716 C 424.98137,230.41132 423.85217,231.98142 422.69893,232.46327 C 421.41943,232.99788 421.13612,232.99657 419.87938,232.45022 z M 440.67263,232.47254 C 439.06044,231.76434 438.32782,230.54228 438.4904,228.83246 C 438.68049,226.83319 439.66374,225.84995 441.66302,225.65985 C 443.40989,225.49375 444.61741,226.24596 445.32589,227.94158 C 446.49198,230.73248 443.45136,233.6932 440.67263,232.47254 z"
       style="fill:#002f51;fill-opacity:1"
       sodipodi:nodetypes="cssssscccsssssssscccccccssccsssssssccsssssccccccccccccccccccccccccccccccccccccccccccccccccccccsscccccccsssccccccccccccccccssccccccccccccccccccsscccsssccccssscccccccsssccccccccccccccccccsscccssccccssscccccccsssccccccccccccccccccccccccccccccccccccccccccccccccccccccccccccccccccccccccccccccccccccccccccccccccccccccccccccscccsccccccccscccsscccssscccccccccccccccccsccscccccccsscccccsssccsssssssssssssscccssssssccsssssssssssssssscccsssssccccccccccccccccccccccccccccccccccccccssscccscccccccccccsscccccccccccccccccccccccccccccccccssccccccccccccssscccccccccccccccccccssssccsssc" />
  </g>
</svg>
