<?xml version="1.0" encoding="UTF-8" standalone="no"?>
<!DOCTYPE svg PUBLIC "-//W3C//DTD SVG 1.1//EN" "http://www.w3.org/Graphics/SVG/1.1/DTD/svg11.dtd">
<svg width="100%" height="100%" viewBox="0 0 1440 131" version="1.1" xmlns="http://www.w3.org/2000/svg" xmlns:xlink="http://www.w3.org/1999/xlink" xml:space="preserve" style="fill-rule:evenodd;clip-rule:evenodd;stroke-linejoin:round;stroke-miterlimit:1.41421;">
    <g transform="matrix(1,0,0,1,231.9,4.5)">
        <g transform="matrix(0.702725,0,0,0.702725,145.1,1.60528)">
            <path d="M513,68.6L474.8,60.3C455.7,56.2 450.5,48.4 450.5,37.4C450.5,18.6 465,11.1 490.1,11.1C516.5,11.1 528,19.9 531.7,34.6C532.1,36.6 532.6,38.7 532.8,41C532.8,41.2 532.8,42.3 534.1,42.3L534.8,42.3C536.1,42.3 536.1,41.3 536.1,41.1C536,38.9 535.7,36.5 535.1,34.1C531.9,19.9 521.3,7.9 489.4,7.9C460.6,7.9 447.4,18.6 447.4,37C447.4,52.6 456.6,59.8 475.4,63.7L511.4,71.3C528.7,75 535.9,82.4 535.9,94.9C535.9,107.6 528.3,123.4 494.5,123.4C467.3,123.4 447.2,116.1 446.6,87.9C446.6,87.7 446.6,86.6 445.4,86.6L444.7,86.6C443.4,86.6 443.4,87.6 443.4,87.8C443.8,104 449.4,126.5 493.8,126.5C533,126.5 539,107.2 539,94.5C539,80.7 530.6,72.4 513,68.6Z" style="fill:black;fill-rule:nonzero;"/>
        </g>
        <g transform="matrix(0.702725,0,0,0.702725,145.1,1.60528)">
            <path d="M863,78.4C861.8,78.3 861.3,79.1 861.2,79.4C858.9,101.4 837.4,120.9 807.5,120.9C777.9,120.9 751.8,101.2 751.8,64.7C751.8,28.2 777.9,8.5 807.5,8.5C837.9,8.5 853.5,22.6 858.2,39.6C858.3,40 858.9,41.1 860.1,40.8C861.2,40.6 861.4,39.6 861.3,39.1C854.8,15.4 834,5.4 807.6,5.4C775.1,5.4 748.7,27.2 748.7,64.8C748.7,102.4 775.1,124.2 807.6,124.2C833.5,124.2 860.1,109.4 864.4,79.9C864.5,79 863.6,78.5 863,78.4Z" style="fill:black;fill-rule:nonzero;"/>
        </g>
        <g transform="matrix(0.702725,0,0,0.702725,145.1,1.60528)">
            <path d="M696.2,9.6C695.9,8.9 694.9,7.9 693.3,7.9C691.4,7.9 690.8,8.9 690.4,9.6C689.5,11.1 641.9,115.4 640.3,118.8C640,119.4 639.7,121.2 641.6,121.5C643.3,121.8 644,119.7 644.3,119.1C644.6,118.5 657.7,89.5 659.9,84.7C660.1,84.2 660.5,84 661.2,84L725.6,84C726.1,84 726.5,84.2 726.7,84.6C728.8,89.3 742.6,119.7 742.9,120.4C743,120.6 743.6,122 745.5,121.5C746.5,121.2 746.9,120.1 746.5,119.2C741.5,108 696.6,10.3 696.2,9.6ZM723.8,80.8L662.8,80.8C662.3,80.8 661.9,80.4 662.2,79.7C666.3,70.8 692.8,12.4 692.8,12.2C693.1,11.7 693.7,11.9 693.8,12.2C694,12.6 720.6,71.2 724.3,79.4C724.7,80 724.3,80.8 723.8,80.8Z" style="fill:black;fill-rule:nonzero;"/>
        </g>
        <g transform="matrix(0.702725,0,0,0.702725,145.1,1.60528)">
            <path d="M380,7.9L326.6,7.9L326.5,7.9C325.5,8 324.8,8.8 324.8,9.7L324.8,16.8C324.8,17.8 325.6,18.6 326.5,18.6L379.5,18.6C405.8,18.6 417.5,34.5 417.5,64.6C417.5,99.4 399.8,110.6 379.5,110.6L336.5,110.6L336.5,56.3L336.5,37.3L336.5,36.9L336.4,36.9C336.2,36.1 335.5,35.5 334.6,35.5L326.5,35.5C325.6,35.5 324.9,36.1 324.7,36.9L324.6,36.9L324.6,121.5L381.6,121.5C413.4,121.5 430.1,96.7 430.1,64.7C430.3,29.1 413.1,7.9 380,7.9Z" style="fill:black;fill-rule:nonzero;"/>
        </g>
        <g transform="matrix(0.702725,0,0,0.702725,145.1,1.60528)">
            <path d="M302,7.9L293.9,7.9C292.9,7.9 292,8.7 292,9.8L292,103.2C292,104.2 291.9,105.1 291.8,105.1C291.7,105.1 291.1,104.5 290.5,103.7L213.5,9.4C212.9,8.6 211.5,8 210.5,8L200,8C199,8 198.1,8.8 198.1,9.9L198.1,119.8C198.1,120.8 198.9,121.7 200,121.7L208.1,121.7C209.1,121.7 210,120.9 210,119.8L210,26.4C210,25.4 210.1,24.5 210.2,24.5C210.3,24.5 210.9,25.1 211.5,25.9L289,120.1C289.6,120.9 291,121.5 292,121.5L302,121.5C303,121.5 303.9,120.7 303.9,119.6L303.9,9.8C303.8,8.8 303,7.9 302,7.9Z" style="fill:black;fill-rule:nonzero;"/>
        </g>
        <g transform="matrix(0.702725,0,0,0.702725,145.1,1.60528)">
            <path d="M139.9,7.9L126.9,7.9C125.9,7.9 124.7,8.6 124.2,9.6L75.3,105.1C74.8,106 74.1,106 73.6,105.1L24.7,9.6C24.2,8.7 23,7.9 22,7.9L8.5,7.9C7.5,7.9 6.6,8.7 6.6,9.8L6.6,119.7C6.6,120.7 7.4,121.6 8.5,121.6L16.6,121.6C17.6,121.6 18.5,120.8 18.5,119.7L18.5,25.1C18.5,24.1 18.6,23.2 18.7,23.2C18.8,23.2 19.2,23.9 19.7,24.9L68,119.9C68.5,120.8 69.7,121.6 70.7,121.6L77.8,121.6C78.8,121.6 80,120.9 80.5,119.9L128.9,25C129.4,24.1 129.8,23.3 129.9,23.3C130,23.3 130.1,24.1 130.1,25.2L130.1,119.7C130.1,120.7 130.9,121.6 132,121.6L140.1,121.6C141.1,121.6 142,120.8 142,119.7L142,9.8C141.8,8.8 141,7.9 139.9,7.9Z" style="fill:black;fill-rule:nonzero;"/>
        </g>
        <g transform="matrix(0.702725,0,0,0.702725,145.1,1.60528)">
            <path d="M174,7.9L165.9,7.9C164.9,7.9 164,8.7 164,9.8L164,119.7C164,120.7 164.8,121.6 165.9,121.6L174,121.6C175,121.6 175.9,120.8 175.9,119.7L175.9,9.8C175.9,8.8 175,7.9 174,7.9Z" style="fill:black;fill-rule:nonzero;"/>
        </g>
        <g transform="matrix(0.702725,0,0,0.702725,145.1,1.60528)">
            <path d="M967.7,118.4L885.1,118.4C884.1,118.4 883.2,117.6 883.2,116.5L883.2,65.8C883.2,64.8 884,63.9 885.1,63.9L963,63.9C964,63.9 964.9,63.2 964.9,62.3C964.9,61.4 964.1,60.7 963,60.7L885.1,60.7C884.1,60.7 883.2,59.9 883.2,58.8L883.2,13C883.2,12 884,11.1 885.1,11.1L966.7,11.1C967.7,11.1 968.6,10.4 968.6,9.5C968.6,8.6 967.8,7.9 966.7,7.9L882,7.9C881,7.9 880.1,8.7 880.1,9.8L880.1,119.7C880.1,120.7 880.9,121.6 882,121.6L967.7,121.6C968.7,121.6 969.6,120.9 969.6,120C969.6,119.1 968.7,118.4 967.7,118.4Z" style="fill:black;fill-rule:nonzero;"/>
        </g>
        <g transform="matrix(0.702725,0,0,0.702725,145.1,1.60528)">
            <path d="M613.6,7.9C613.6,7.9 556.5,7.9 554.7,7.9C553.2,7.9 552.8,9.4 552.8,10.4L552.8,119.7C552.8,120.7 553.5,121.6 554.4,121.6C555.3,121.6 556,120.8 556,119.7L556,118.8L556,111.4L556,71.7C556,70.3 556.8,69.8 557.5,69.8L609.1,69.8C637.3,69.8 645.1,54.2 645.1,38.9C645.1,22 637.8,7.9 613.6,7.9ZM610,66.7L557.7,66.7C557.7,66.7 556,66.7 556,64.8L556,12.3C556,11.5 556.3,11.2 557.1,11.2L614.6,11.2C631.6,11.2 642,19.8 642,39.1C641.9,56.2 631.3,66.7 610,66.7Z" style="fill:black;fill-rule:nonzero;"/>
        </g>
    </g>
</svg>
