<?xml version="1.0" encoding="UTF-8" standalone="no"?>
<!-- Created with Inkscape (http://www.inkscape.org/) -->

<svg
   xmlns:dc="http://purl.org/dc/elements/1.1/"
   xmlns:cc="http://creativecommons.org/ns#"
   xmlns:rdf="http://www.w3.org/1999/02/22-rdf-syntax-ns#"
   xmlns:svg="http://www.w3.org/2000/svg"
   xmlns="http://www.w3.org/2000/svg"
   xmlns:sodipodi="http://sodipodi.sourceforge.net/DTD/sodipodi-0.dtd"
   xmlns:inkscape="http://www.inkscape.org/namespaces/inkscape"
   id="svg3406"
   version="1.1"
   inkscape:version="0.91 r13725"
   width="568.75"
   height="330"
   viewBox="0 0 568.75 330"
   sodipodi:docname="header.svg"
   inkscape:export-filename="/home/lupa/Dokumente/CdVWestfalen-Ruhrgebiet/header1.png"
   inkscape:export-xdpi="72"
   inkscape:export-ydpi="72">
  <metadata
     id="metadata3412">
    <rdf:RDF>
      <cc:Work
         rdf:about="">
        <dc:format>image/svg+xml</dc:format>
        <dc:type
           rdf:resource="http://purl.org/dc/dcmitype/StillImage" />
        <dc:title></dc:title>
      </cc:Work>
    </rdf:RDF>
  </metadata>
  <defs
     id="defs3410" />
  <sodipodi:namedview
     pagecolor="#ffffff"
     bordercolor="#666666"
     borderopacity="1"
     objecttolerance="10"
     gridtolerance="10"
     guidetolerance="10"
     inkscape:pageopacity="0"
     inkscape:pageshadow="2"
     inkscape:window-width="1983"
     inkscape:window-height="1128"
     id="namedview3408"
     showgrid="false"
     inkscape:zoom="1"
     inkscape:cx="365.17206"
     inkscape:cy="173.07386"
     inkscape:window-x="65"
     inkscape:window-y="24"
     inkscape:window-maximized="1"
     inkscape:current-layer="svg3406" />
  <rect
     style="fill:#fda87e;fill-opacity:1;fill-rule:evenodd;stroke:none;stroke-width:1px;stroke-linecap:butt;stroke-linejoin:miter;stroke-opacity:0"
     id="rect4763"
     width="568.75"
     height="330"
     x="0.94531584"
     y="1.0293961" />
  <g
     id="g4765"
     style="fill:#ffffff">
    <path
       inkscape:connector-curvature="0"
       id="path3449"
       style="fill:#ffffff;stroke:#231f20;stroke-width:3.75;stroke-linecap:butt;stroke-linejoin:miter;stroke-miterlimit:4;stroke-dasharray:none;stroke-opacity:1"
       d="m 147.35166,131.10931 c -10.8575,0 -24.45438,-6.29501 -24.45438,-20.62126 l 0,-21.533745 c 0,-14.32625 13.59688,-20.62375 24.45438,-20.62375 11.315,0 22.5375,5.74875 23.725,17.3375 0,2.19 -0.73,2.6475 -2.83,2.6475 l -8.76,0 c -1.915,0 -2.00625,-1.735 -2.73625,-2.83 -1.9175,-3.01 -4.4725,-4.38 -9.39875,-4.38 -6.0225,0 -10.12875,3.37625 -10.12875,9.125 l 0,18.979995 c 0,5.83875 4.10625,9.12375 10.12875,9.12375 4.92625,0 8.85125,-1.825 9.58125,-6.20375 0.27375,-1.825 0.455,-3.285 2.46375,-3.285 l 8.94125,0 c 2.00875,0 2.73875,0.9125 2.73875,3.1025 0,11.77 -12.41,19.16126 -23.725,19.16126 z" />
    <path
       inkscape:connector-curvature="0"
       id="path3451"
       style="fill:#ffffff;stroke:#231f20;stroke-width:3.75;stroke-linecap:butt;stroke-linejoin:miter;stroke-miterlimit:4;stroke-dasharray:none;stroke-opacity:1"
       d="m 212.50166,91.051805 c 0,-5.83875 -3.92375,-9.94625 -9.49,-9.94625 -5.56625,0 -9.3975,4.1075 -9.3975,9.94625 l 0,17.336245 c 0,5.84 3.83125,9.94625 9.3975,9.94625 5.56625,0 9.49,-4.10625 9.49,-9.94625 l 0,-17.336245 z m 13.3225,-2.00625 0,21.351245 c 0,14.4175 -12.6825,20.71251 -22.8125,20.71251 -10.03625,0 -22.71875,-6.29501 -22.71875,-20.71251 l 0,-21.351245 c 0,-14.4175 12.6825,-20.715 22.71875,-20.715 10.13,0 22.8125,6.2975 22.8125,20.715 z" />
    <path
       inkscape:connector-curvature="0"
       id="path3453"
       style="fill:#ffffff;stroke:#231f20;stroke-width:3.75;stroke-linecap:butt;stroke-linejoin:miter;stroke-miterlimit:4;stroke-dasharray:none;stroke-opacity:1"
       d="m 268.62041,91.508055 c 0,-5.74875 -4.1975,-9.12375 -10.22,-9.12375 l -8.76,0 0,34.673745 8.76,0 c 6.0225,0 10.22,-3.285 10.22,-9.125 l 0,-16.424995 z m 14.32625,-1.2775 0,18.979995 c 0,14.32625 -13.6875,20.53001 -24.54625,20.53001 l -20.44,0 c -2.0975,0 -2.64625,-1.0025 -2.64625,-2.64626 l 0,-54.748745 c 0,-1.64125 0.54875,-2.64625 2.64625,-2.64625 l 20.44,0 c 10.85875,0 24.54625,6.29625 24.54625,20.53125 z" />
    <path
       inkscape:connector-curvature="0"
       id="path3455"
       style="fill:#ffffff;stroke:#231f20;stroke-width:3.75;stroke-linecap:butt;stroke-linejoin:miter;stroke-miterlimit:4;stroke-dasharray:none;stroke-opacity:1"
       d="m 327.47541,119.61305 0,7.48125 c 0,1.64376 -0.5475,2.64626 -2.64625,2.64626 l -28.28625,0 c -2.09875,0 -2.6475,-1.0025 -2.6475,-2.64626 l 0,-7.48125 c 0,-1.64375 0.54875,-2.64625 2.6475,-2.64625 l 7.75625,0 0,-24.454995 -7.75625,0 c -2.09875,0 -2.6475,-0.9125 -2.6475,-2.64625 l 0,-7.39 c 0,-1.735 0.54875,-2.64625 2.6475,-2.64625 l 2.0075,0 c 1.73375,0 5.74875,-0.82125 5.74875,-7.665 0.0913,-1.91625 1.095,-2.37375 2.64625,-2.37375 l 8.85,0 c 1.55125,0 2.55625,0.4575 2.64625,2.37375 0,0.09125 0,0.18125 0,0.27375 l 0,44.528745 6.3875,0 c 2.09875,0 2.64625,1.0025 2.64625,2.64625 z" />
    <path
       inkscape:connector-curvature="0"
       id="path3457"
       style="fill:#ffffff;stroke:#231f20;stroke-width:3.75;stroke-linecap:butt;stroke-linejoin:miter;stroke-miterlimit:4;stroke-dasharray:none;stroke-opacity:1"
       d="m 386.42166,72.345555 0,54.748745 c 0,1.64376 -0.54875,2.64626 -2.64625,2.64626 l -8.30375,0 c -2.28125,0 -2.92,-1.27625 -4.10625,-3.10251 l -19.345,-31.297495 0,31.753745 c 0,2.10001 -1.0025,2.64626 -2.64625,2.64626 l -9.0325,0 c -1.6425,0 -2.6475,-0.54625 -2.6475,-2.64626 l 0,-54.748745 c 0,-1.64125 0.54875,-2.64625 2.6475,-2.64625 l 8.5775,0 c 2.28125,0 2.92,1.27875 4.105,3.1025 l 19.34625,31.206245 0,-31.662495 c 0,-2.0975 1.0025,-2.64625 2.645,-2.64625 l 8.76,0 c 1.6425,0 2.64625,0.54875 2.64625,2.64625 z" />
    <path
       inkscape:connector-curvature="0"
       id="path3459"
       style="fill:#ffffff;stroke:#231f20;stroke-width:3.75;stroke-linecap:butt;stroke-linejoin:miter;stroke-miterlimit:4;stroke-dasharray:none;stroke-opacity:1"
       d="m 447.19291,98.899305 0,13.231245 c -0.82125,13.13875 -14.1425,18.97876 -24.54625,18.97876 -10.76625,0 -24.54375,-5.47501 -24.54375,-19.80126 l 0,-22.446245 c 0,-14.41625 13.7775,-20.53125 24.54375,-20.53125 11.40625,0 24.54625,6.57 24.54625,18.79875 0,2.18875 -0.5475,2.555 -2.64625,2.555 l -8.85125,0 c -2.55375,0 -2.19,-1.82625 -2.645,-3.10375 -1.005,-2.82875 -4.28875,-5.565 -10.40375,-5.565 -6.02125,0 -10.03625,4.01375 -10.03625,9.85375 l 0,18.341245 c 0,5.83875 4.015,9.21625 10.03625,9.21625 5.93125,0 10.12875,-2.73875 10.12875,-9.76375 l -8.21125,0 c -2.09875,0 -2.6475,-1.005 -2.6475,-2.64625 l 0,-7.117495 c 0,-1.6425 0.54875,-2.64625 2.6475,-2.64625 l 19.9825,0 c 2.09875,0 2.64625,1.00375 2.64625,2.64625 z" />
    <path
       inkscape:connector-curvature="0"
       id="path3461"
       style="fill:#ffffff;stroke:#231f20;stroke-width:3.75;stroke-linecap:butt;stroke-linejoin:miter;stroke-miterlimit:4;stroke-dasharray:none;stroke-opacity:1"
       d="m 151.34916,158.37306 c 0,-4.91375 -3.58875,-7.8 -8.7375,-7.8 l -7.485,0 0,29.64 7.485,0 c 5.14875,0 8.7375,-2.80763 8.7375,-7.79988 l 0,-14.04012 z m 12.24625,-1.09125 0,16.22375 c 0,12.245 -11.69875,17.54975 -20.98375,17.54975 l -17.47063,0 c -1.7945,0 -2.26325,-0.85738 -2.26325,-2.26125 l 0,-46.79975 c 0,-1.405 0.46875,-2.2625 2.26325,-2.2625 l 17.47063,0 c 9.285,0 20.98375,5.38125 20.98375,17.55 z" />
    <path
       inkscape:connector-curvature="0"
       id="path3463"
       style="fill:#ffffff;stroke:#231f20;stroke-width:3.75;stroke-linecap:butt;stroke-linejoin:miter;stroke-miterlimit:4;stroke-dasharray:none;stroke-opacity:1"
       d="m 196.27916,171.63443 -5.85,-17.23887 -5.85,17.23887 11.7,0 z m 17.00625,19.42088 -8.19125,0 c -1.71875,0 -2.34375,-0.46725 -2.96375,-2.33988 l -2.185,-6.16112 -19.10875,0 -2.185,6.16112 c -0.625,1.87263 -1.25,2.33988 -2.96375,2.33988 l -8.19125,0 c -1.71625,0 -1.71625,-1.24713 -1.325,-2.18363 l 17.31375,-46.72237 c 0.625,-1.63875 1.485,-2.4175 3.20125,-2.4175 l 7.485,0 c 1.71875,0 2.4975,0.77875 3.19875,2.4175 l 17.24125,46.72237 c 0.3875,0.9365 0.3875,2.18363 -1.32625,2.18363 z" />
    <path
       inkscape:connector-curvature="0"
       id="path3465"
       style="fill:#ffffff;stroke:#231f20;stroke-width:3.75;stroke-linecap:butt;stroke-linejoin:miter;stroke-miterlimit:4;stroke-dasharray:none;stroke-opacity:1"
       d="m 274.12791,141.99431 -16.6925,46.72112 c -0.9375,2.02738 -1.48375,2.33988 -3.2,2.33988 l -7.4875,0 c -1.71375,0 -2.26125,-0.3125 -3.19875,-2.33988 l -16.77,-46.72112 c -0.39,-1.015 -0.0775,-2.2625 1.40375,-2.2625 l 8.66,0 c 2.02625,0 2.5725,0.6225 3.1975,2.495 l 10.60625,32.29387 10.53,-32.29387 c 0.6275,-1.8725 1.17125,-2.495 3.27875,-2.495 l 8.26625,0 c 1.48125,0 1.79375,1.2475 1.40625,2.2625 z" />
    <path
       inkscape:connector-curvature="0"
       id="path3467"
       style="fill:#ffffff;stroke:#231f20;stroke-width:3.75;stroke-linecap:butt;stroke-linejoin:miter;stroke-miterlimit:4;stroke-dasharray:none;stroke-opacity:1"
       d="m 309.46041,182.39806 0,6.396 c 0,1.40387 -0.46625,2.26125 -2.26125,2.26125 l -24.1775,0 c -1.79375,0 -2.2625,-0.85738 -2.2625,-2.26125 l 0,-6.396 c 0,-1.40525 0.46875,-2.26125 2.2625,-2.26125 l 6.62875,0 0,-20.905 -6.62875,0 c -1.79375,0 -2.2625,-0.78125 -2.2625,-2.2625 l 0,-6.31875 c 0,-1.48125 0.46875,-2.2625 2.2625,-2.2625 l 1.71375,0 c 1.4825,0 4.915,-0.7 4.915,-6.55 0.075,-1.63875 0.935,-2.02875 2.26,-2.02875 l 7.56625,0 c 1.32625,0 2.185,0.39 2.26375,2.02875 0,0.0775 0,0.15625 0,0.2325 l 0,38.06625 5.45875,0 c 1.795,0 2.26125,0.856 2.26125,2.26125 z" />
    <path
       inkscape:connector-curvature="0"
       id="path3469"
       style="fill:#ffffff;stroke:#231f20;stroke-width:3.75;stroke-linecap:butt;stroke-linejoin:miter;stroke-miterlimit:4;stroke-dasharray:none;stroke-opacity:1"
       d="m 359.85041,141.99431 0,46.79975 c 0,1.40387 -0.46875,2.26125 -2.2625,2.26125 l -7.0975,0 c -1.94875,0 -2.495,-1.09088 -3.50875,-2.65088 l -16.5375,-26.75512 0,27.14475 c 0,1.794 -0.8575,2.26125 -2.26375,2.26125 l -7.72,0 c -1.40625,0 -2.2625,-0.46725 -2.2625,-2.26125 l 0,-46.79975 c 0,-1.405 0.46875,-2.2625 2.2625,-2.2625 l 7.3325,0 c 1.9475,0 2.495,1.09125 3.51,2.65125 l 16.53625,26.67625 0,-27.065 c 0,-1.795 0.85625,-2.2625 2.26,-2.2625 l 7.48875,0 c 1.40625,0 2.2625,0.4675 2.2625,2.2625 z" />
    <path
       inkscape:connector-curvature="0"
       id="path3471"
       style="fill:#ffffff;stroke:#231f20;stroke-width:3.75;stroke-linecap:butt;stroke-linejoin:miter;stroke-miterlimit:4;stroke-dasharray:none;stroke-opacity:1"
       d="m 389.10291,192.22568 c -9.28375,0 -20.905,-5.38137 -20.905,-17.62887 l 0,-18.40625 c 0,-12.24625 11.62125,-17.62875 20.905,-17.62875 9.67375,0 19.26625,4.9125 20.27875,14.82 0,1.87125 -0.6225,2.26125 -2.4175,2.26125 l -7.4875,0 c -1.64,0 -1.71625,-1.48125 -2.33875,-2.4175 -1.64,-2.575 -3.8225,-3.745 -8.035,-3.745 -5.14875,0 -8.65625,2.88625 -8.65625,7.80125 l 0,16.22375 c 0,4.99112 3.5075,7.79975 8.65625,7.79975 4.2125,0 7.56625,-1.55963 8.18875,-5.30375 0.235,-1.5595 0.39375,-2.80713 2.1075,-2.80713 l 7.64375,0 c 1.71625,0 2.33875,0.77888 2.33875,2.65088 0,10.0615 -10.605,16.38037 -20.27875,16.38037 z" />
    <path
       inkscape:connector-curvature="0"
       id="path3473"
       style="fill:#ffffff;stroke:#231f20;stroke-width:3.75;stroke-linecap:butt;stroke-linejoin:miter;stroke-miterlimit:4;stroke-dasharray:none;stroke-opacity:1"
       d="m 447.21416,182.39806 0,6.396 c 0,1.40387 -0.46625,2.26125 -2.26375,2.26125 l -24.1775,0 c -1.79625,0 -2.2625,-0.85738 -2.2625,-2.26125 l 0,-6.396 c 0,-1.40525 0.46625,-2.26125 2.2625,-2.26125 l 6.63125,0 0,-20.905 -6.63125,0 c -1.79625,0 -2.2625,-0.78125 -2.2625,-2.2625 l 0,-6.31875 c 0,-1.48125 0.46625,-2.2625 2.2625,-2.2625 l 1.71375,0 c 1.4825,0 4.9175,-0.7 4.9175,-6.55 0.0763,-1.63875 0.9325,-2.02875 2.25875,-2.02875 l 7.565,0 c 1.32875,0 2.1875,0.39 2.26375,2.02875 0,0.0775 0,0.15625 0,0.2325 l 0,38.06625 5.45875,0 c 1.7975,0 2.26375,0.856 2.26375,2.26125 z" />
    <path
       inkscape:connector-curvature="0"
       id="path3475"
       style="fill:#ffffff;stroke:#231f20;stroke-width:3.75;stroke-linecap:butt;stroke-linejoin:miter;stroke-miterlimit:4;stroke-dasharray:none;stroke-opacity:1"
       d="m 105.54966,63.469305 c 0,1.6 -1.27875,2.88 -2.87788,2.88 -10.081118,0 -12.477118,3.0375 -12.477118,13.27625 l 0,31.033745 c 0,10.55625 -2.561,19.35376 -12.637629,20.95376 10.076629,1.6025 12.637629,10.56 12.637629,21.115 l 0,30.714 c 0,10.23875 2.396,13.27725 12.477118,13.27725 1.59913,0 2.87788,1.27987 2.87788,2.88 l 0,4.63862 c 0,1.59763 -1.27875,2.88038 -2.87788,2.88038 l -3.998998,0 c -10.878,0 -19.197374,-7.999 -19.197374,-19.19775 l 0,-37.11125 c 0,-11.1975 -4.317375,-11.99875 -11.677125,-11.99875 l -2.8785,0 c -1.599125,0 -2.879375,-1.27875 -2.879375,-2.8775 l 0,-8.63751 c 0,-1.6 1.28025,-2.87875 2.879375,-2.87875 l 2.8785,0 c 7.35975,0 11.677125,-0.80125 11.677125,-11.99875 l 0,-37.272495 c 0,-11.19625 8.319374,-19.19625 19.197374,-19.19625 l 3.998998,0 c 1.59913,0 2.87788,1.27875 2.87788,2.88125 l 0,4.63875 z" />
    <path
       inkscape:connector-curvature="0"
       id="path3477"
       style="fill:#ffffff;stroke:#231f20;stroke-width:3.75;stroke-linecap:butt;stroke-linejoin:miter;stroke-miterlimit:4;stroke-dasharray:none;stroke-opacity:1"
       d="m 464.54041,63.469305 c 0,1.6 1.27875,2.88 2.87875,2.88 10.08,0 12.47625,3.0375 12.47625,13.27625 l 0,31.033745 c 0,10.55625 2.56125,19.35376 12.63875,20.95376 -10.0775,1.6025 -12.63875,10.56 -12.63875,21.115 l 0,30.714 c 0,10.23875 -2.39625,13.27725 -12.47625,13.27725 -1.6,0 -2.87875,1.27987 -2.87875,2.88 l 0,4.63862 c 0,1.59763 1.27875,2.88038 2.87875,2.88038 l 3.99875,0 c 10.8775,0 19.19625,-7.999 19.19625,-19.19775 l 0,-37.11125 c 0,-11.1975 4.3175,-11.99875 11.6775,-11.99875 l 2.87875,0 c 1.59875,0 2.88,-1.27875 2.88,-2.8775 l 0,-8.63751 c 0,-1.6 -1.28125,-2.87875 -2.88,-2.87875 l -2.87875,0 c -7.36,0 -11.6775,-0.80125 -11.6775,-11.99875 l 0,-37.272495 c 0,-11.19625 -8.31875,-19.19625 -19.19625,-19.19625 l -3.99875,0 c -1.6,0 -2.87875,1.27875 -2.87875,2.88125 l 0,4.63875 z" />
  </g>
</svg>
