<?xml version="1.0" encoding="UTF-8" standalone="no"?>
<!DOCTYPE svg PUBLIC "-//W3C//DTD SVG 1.1//EN" "http://www.w3.org/Graphics/SVG/1.1/DTD/svg11.dtd">
<svg width="100%" height="100%" viewBox="0 0 2080 1217" version="1.1" xmlns="http://www.w3.org/2000/svg" xmlns:xlink="http://www.w3.org/1999/xlink" xml:space="preserve" style="fill-rule:evenodd;clip-rule:evenodd;stroke-linejoin:round;stroke-miterlimit:1.41421;">
    <g transform="matrix(4.16667,0,0,4.16667,0,0)">
        <path d="M11.841,278.171L11.841,285.906C11.841,289.898 9.392,291.942 5.998,291.942C2.757,291.942 0,289.975 0,285.906L0,278.171L2.526,278.171L2.526,285.906C2.526,288.335 3.915,289.627 6.017,289.627C8.119,289.627 9.315,288.22 9.315,285.906L9.315,278.171L11.841,278.171Z" style="fill:rgb(64,63,65);fill-rule:nonzero;"/>
        <path d="M20.136,280.466L15.854,280.466L15.854,278.152C19.75,278.152 23.048,278.152 26.963,278.152L26.963,280.466L22.682,280.466L22.682,291.653L20.136,291.653L20.136,280.466Z" style="fill:rgb(64,63,65);fill-rule:nonzero;"/>
        <path d="M32.731,285.038C32.789,287.255 33.985,289.627 37.167,289.627C40.349,289.627 41.545,287.236 41.584,285.018C41.623,282.742 40.349,280.197 37.167,280.197C33.985,280.197 32.673,282.761 32.731,285.038ZM44.091,284.98C44.052,288.47 41.912,291.961 37.167,291.961C32.422,291.961 30.224,288.547 30.224,284.999C30.224,281.45 32.5,277.882 37.167,277.882C41.815,277.882 44.129,281.45 44.091,284.98Z" style="fill:rgb(64,63,65);fill-rule:nonzero;"/>
        <path d="M50.823,285.346L54.642,285.346C57.901,285.346 57.882,280.563 54.642,280.563L50.823,280.563L50.823,285.346ZM54.642,287.679L50.823,287.679L50.823,291.653L48.277,291.653L48.277,278.152C50.399,278.152 52.52,278.132 54.642,278.132C61.238,278.132 61.257,287.679 54.642,287.679Z" style="fill:rgb(64,63,65);fill-rule:nonzero;"/>
        <rect x="63.649" y="278.152" width="2.527" height="13.501" style="fill:rgb(64,63,65);fill-rule:nonzero;"/>
        <path d="M80.95,291.653L70.843,291.653C70.843,287.159 70.843,282.646 70.843,278.152L80.95,278.152L80.95,280.621L73.37,280.621L73.37,283.726L80.68,283.726L80.68,286.098L73.37,286.098L73.37,289.146L80.95,289.146L80.95,291.653Z" style="fill:rgb(64,63,65);fill-rule:nonzero;"/>
        <path d="M94.509,278.132L97.055,278.132L97.055,291.653L95.473,291.653L95.473,291.672L88.376,282.549L88.376,291.653L85.83,291.653L85.83,278.152L87.894,278.152L94.509,286.523L94.509,278.132Z" style="fill:rgb(64,63,65);fill-rule:nonzero;"/>
        <path d="M107.915,291.653L107.915,278.171L117.617,278.171L117.617,280.621L110.461,280.621L110.461,284.304L117.231,284.304L117.231,286.658L110.461,286.658L110.461,291.653L107.915,291.653Z" style="fill:rgb(64,63,65);fill-rule:nonzero;"/>
        <path d="M128.86,275.548C128.86,277.323 131.562,277.323 131.562,275.548C131.562,273.754 128.86,273.754 128.86,275.548ZM124.059,275.548C124.059,277.323 126.759,277.323 126.759,275.548C126.759,273.754 124.059,273.754 124.059,275.548ZM133.529,278.171L133.529,285.906C133.529,289.898 131.08,291.942 127.685,291.942C124.445,291.942 121.687,289.975 121.687,285.906L121.687,278.171L124.213,278.171L124.213,285.906C124.213,288.335 125.602,289.627 127.704,289.627C129.807,289.627 131.002,288.22 131.002,285.906L131.002,278.171L133.529,278.171Z" style="fill:rgb(64,63,65);fill-rule:nonzero;"/>
        <path d="M140.898,280.524L140.898,284.844L144.774,284.844C146.395,284.844 147.089,283.764 147.089,282.684C147.089,281.604 146.375,280.524 144.774,280.524L140.898,280.524ZM150.31,291.653L147.282,291.653L143.348,287.14L140.898,287.14L140.898,291.653L138.352,291.653L138.352,278.132C140.493,278.132 142.634,278.152 144.774,278.152C147.957,278.171 149.635,280.292 149.635,282.626C149.635,284.478 148.786,286.349 146.221,286.87L150.31,291.479L150.31,291.653Z" style="fill:rgb(64,63,65);fill-rule:nonzero;"/>
        <path d="M168.209,281.412C167.746,280.64 166.473,279.907 165.007,279.907C163.117,279.907 162.21,280.698 162.21,281.701C162.21,282.877 163.599,283.205 165.219,283.398C168.035,283.746 170.658,284.478 170.658,287.699C170.658,290.708 167.997,292 164.988,292C162.229,292 160.108,291.152 159.105,288.683L161.227,287.584C161.825,289.068 163.387,289.724 165.026,289.724C166.627,289.724 168.132,289.165 168.132,287.699C168.132,286.426 166.801,285.906 165.007,285.712C162.249,285.384 159.703,284.652 159.703,281.624C159.703,278.846 162.442,277.709 164.93,277.689C167.032,277.689 169.212,278.287 170.234,280.37L168.209,281.412Z" style="fill:rgb(64,63,65);fill-rule:nonzero;"/>
        <path d="M178.432,280.466L174.15,280.466L174.15,278.152C178.046,278.152 181.344,278.152 185.259,278.152L185.259,280.466L180.978,280.466L180.978,291.653L178.432,291.653L178.432,280.466Z" style="fill:rgb(64,63,65);fill-rule:nonzero;"/>
        <path d="M195.173,280.987L192.666,286.735L197.681,286.735L195.173,280.987ZM198.703,289.107L191.644,289.107L190.486,291.653L187.729,291.653L193.784,278.152L196.562,278.152L202.618,291.653L199.841,291.653L198.703,289.107Z" style="fill:rgb(64,63,65);fill-rule:nonzero;"/>
        <path d="M208.849,289.204L211.626,289.204C214.693,289.204 215.908,286.966 215.85,284.767C215.792,282.666 214.558,280.563 211.626,280.563L208.849,280.563L208.849,289.204ZM218.377,284.787C218.435,288.201 216.352,291.653 211.626,291.653C209.968,291.653 207.981,291.653 206.322,291.653L206.322,278.152C207.981,278.152 209.968,278.152 211.626,278.152C216.255,278.152 218.319,281.45 218.377,284.787Z" style="fill:rgb(64,63,65);fill-rule:nonzero;"/>
        <path d="M225.263,280.466L220.981,280.466L220.981,278.152C224.877,278.152 228.175,278.152 232.09,278.152L232.09,280.466L227.809,280.466L227.809,291.653L225.263,291.653L225.263,280.466Z" style="fill:rgb(64,63,65);fill-rule:nonzero;"/>
        <path d="M247.713,281.875L243.315,287.738L242.814,287.738L238.513,281.855L238.513,291.672L235.967,291.672L235.967,278.171L238.899,278.171L243.123,283.976L247.347,278.171L250.259,278.171L250.259,291.672L247.713,291.672L247.713,281.875Z" style="fill:rgb(64,63,65);fill-rule:nonzero;"/>
        <path d="M265.034,291.653L254.928,291.653C254.928,287.159 254.928,282.646 254.928,278.152L265.034,278.152L265.034,280.621L257.454,280.621L257.454,283.726L264.765,283.726L264.765,286.098L257.454,286.098L257.454,289.146L265.034,289.146L265.034,291.653Z" style="fill:rgb(64,63,65);fill-rule:nonzero;"/>
        <path d="M278.594,278.132L281.14,278.132L281.14,291.653L279.558,291.653L279.558,291.672L272.46,282.549L272.46,291.653L269.914,291.653L269.914,278.152L271.979,278.152L278.594,286.523L278.594,278.132Z" style="fill:rgb(64,63,65);fill-rule:nonzero;"/>
        <path d="M294.332,281.412C293.869,280.64 292.596,279.907 291.13,279.907C289.24,279.907 288.334,280.698 288.334,281.701C288.334,282.877 289.723,283.205 291.342,283.398C294.158,283.746 296.781,284.478 296.781,287.699C296.781,290.708 294.119,292 291.111,292C288.353,292 286.231,291.152 285.229,288.683L287.35,287.584C287.947,289.068 289.51,289.724 291.149,289.724C292.75,289.724 294.255,289.165 294.255,287.699C294.255,286.426 292.924,285.906 291.13,285.712C288.372,285.384 285.826,284.652 285.826,281.624C285.826,278.846 288.564,277.709 291.053,277.689C293.155,277.689 295.335,278.287 296.357,280.37L294.332,281.412Z" style="fill:rgb(64,63,65);fill-rule:nonzero;"/>
        <path d="M312.965,289.956C311.576,291.325 309.782,291.961 307.834,291.961C302.819,291.961 300.697,288.509 300.679,284.999C300.659,281.469 302.954,277.882 307.834,277.882C309.666,277.882 311.402,278.576 312.791,279.946L311.094,281.585C310.206,280.717 309.011,280.312 307.834,280.312C304.574,280.312 303.166,282.742 303.186,284.999C303.205,287.236 304.497,289.57 307.834,289.57C309.011,289.57 310.342,289.087 311.229,288.201L312.965,289.956Z" style="fill:rgb(64,63,65);fill-rule:nonzero;"/>
        <path d="M325.906,291.672L325.906,286.214L319.271,286.214L319.271,291.672L316.727,291.672L316.727,278.171L319.271,278.171L319.271,283.861L325.906,283.861L325.906,278.171L328.434,278.171L328.434,291.672L325.906,291.672Z" style="fill:rgb(64,63,65);fill-rule:nonzero;"/>
        <path d="M343.208,291.653L333.102,291.653C333.102,287.159 333.102,282.646 333.102,278.152L343.208,278.152L343.208,280.621L335.629,280.621L335.629,283.726L342.938,283.726L342.938,286.098L335.629,286.098L335.629,289.146L343.208,289.146L343.208,291.653Z" style="fill:rgb(64,63,65);fill-rule:nonzero;"/>
        <path d="M356.769,278.132L359.314,278.132L359.314,291.653L357.732,291.653L357.732,291.672L350.635,282.549L350.635,291.653L348.089,291.653L348.089,278.152L350.152,278.152L356.769,286.523L356.769,278.132Z" style="fill:rgb(64,63,65);fill-rule:nonzero;"/>
        <path d="M377.503,291.71L374.86,291.71L369.248,278.152L372.103,278.152L376.172,288.664L380.261,278.152L383.115,278.152L377.503,291.71Z" style="fill:rgb(64,63,65);fill-rule:nonzero;"/>
        <path d="M388.902,285.038C388.96,287.255 390.156,289.627 393.338,289.627C396.521,289.627 397.717,287.236 397.755,285.018C397.794,282.742 396.521,280.197 393.338,280.197C390.156,280.197 388.845,282.761 388.902,285.038ZM400.263,284.98C400.224,288.47 398.083,291.961 393.338,291.961C388.594,291.961 386.395,288.547 386.395,284.999C386.395,281.45 388.671,277.882 393.338,277.882C397.986,277.882 400.301,281.45 400.263,284.98Z" style="fill:rgb(64,63,65);fill-rule:nonzero;"/>
        <path d="M413.321,278.132L415.867,278.132L415.867,291.653L414.285,291.653L414.285,291.672L407.188,282.549L407.188,291.653L404.642,291.653L404.642,278.152L406.705,278.152L413.321,286.523L413.321,278.132Z" style="fill:rgb(64,63,65);fill-rule:nonzero;"/>
        <path d="M435.926,291.672L435.926,286.214L429.291,286.214L429.291,291.672L426.746,291.672L426.746,278.171L429.291,278.171L429.291,283.861L435.926,283.861L435.926,278.171L438.453,278.171L438.453,291.672L435.926,291.672Z" style="fill:rgb(64,63,65);fill-rule:nonzero;"/>
        <path d="M453.228,291.653L443.121,291.653C443.121,287.159 443.121,282.646 443.121,278.152L453.228,278.152L453.228,280.621L445.648,280.621L445.648,283.726L452.958,283.726L452.958,286.098L445.648,286.098L445.648,289.146L453.228,289.146L453.228,291.653Z" style="fill:rgb(64,63,65);fill-rule:nonzero;"/>
        <path d="M469.353,278.171L469.353,285.906C469.353,289.898 466.903,291.942 463.509,291.942C460.269,291.942 457.511,289.975 457.511,285.906L457.511,278.171L460.037,278.171L460.037,285.906C460.037,288.335 461.426,289.627 463.528,289.627C465.631,289.627 466.826,288.22 466.826,285.906L466.826,278.171L469.353,278.171Z" style="fill:rgb(64,63,65);fill-rule:nonzero;"/>
        <path d="M477.646,280.466L473.365,280.466L473.365,278.152C477.262,278.152 480.56,278.152 484.475,278.152L484.475,280.466L480.193,280.466L480.193,291.653L477.646,291.653L477.646,280.466Z" style="fill:rgb(64,63,65);fill-rule:nonzero;"/>
        <path d="M498.4,291.653L488.294,291.653C488.294,287.159 488.294,282.646 488.294,278.152L498.4,278.152L498.4,280.621L490.82,280.621L490.82,283.726L498.131,283.726L498.131,286.098L490.82,286.098L490.82,289.146L498.4,289.146L498.4,291.653Z" style="fill:rgb(64,63,65);fill-rule:nonzero;"/>
        <path d="M209.169,216.528L174.494,216.528L185.984,184.842L185.984,216.526L209.168,216.526L209.169,216.528ZM81.407,216.528L28.75,216.528L86.625,38.415L150.566,38.415L164.894,81.961L128.153,183.283L90.386,183.283L81.407,216.528ZM118.898,67.655C118.171,71.78 116.734,78.575 114.591,88.038C112.448,97.502 107.695,116.147 100.335,143.972L138.069,143.972L130.425,114.852C128.646,108.381 126.482,100.01 123.934,89.737C121.386,79.466 119.706,72.104 118.898,67.655Z" style="fill:rgb(238,40,124);fill-rule:nonzero;"/>
        <path d="M475.726,216.528L423.312,216.528L414.575,183.283L356.943,183.283L347.964,216.528L328.439,216.528L393.026,38.415L417.123,38.415L475.726,216.528ZM385.455,67.655C384.727,71.78 383.29,78.575 381.147,88.038C379.004,97.502 374.251,116.147 366.893,143.972L404.626,143.972L396.982,114.852C395.202,108.381 393.038,100.01 390.491,89.737C387.942,79.466 386.263,72.104 385.455,67.655Z" style="fill:rgb(238,40,124);fill-rule:nonzero;"/>
        <path d="M243.373,216.526L209.168,216.526L192.674,166.393L238.817,39.141L247.377,39.141C275.848,39.141 297.83,46.421 313.32,60.98C316.784,64.237 319.862,67.818 322.551,71.721L271.038,213.782C262.571,215.612 253.35,216.526 243.373,216.526ZM233.909,77.846L233.909,177.214L244.586,177.214C259.147,177.214 269.823,172.989 276.618,164.536C283.413,156.085 286.81,143.163 286.81,125.771C286.81,109.512 283.594,97.461 277.163,89.615C270.733,81.771 260.966,77.846 247.862,77.846L233.909,77.846Z" style="fill:rgb(215,223,34);fill-rule:nonzero;"/>
        <path d="M209.168,216.526L185.984,216.526L185.984,184.842L192.674,166.393L209.169,216.528" style="fill:rgb(202,52,43);fill-rule:nonzero;"/>
        <path d="M160.686,254.608L102.29,254.608L128.153,183.283L148.019,183.283L156.754,216.528L174.494,216.528L160.686,254.608ZM185.984,146.061L164.894,81.961L194.273,0.938L252.67,0.938L238.817,39.141L185.984,39.141L185.984,146.061Z" style="fill:rgb(39,170,225);fill-rule:nonzero;"/>
        <path d="M174.494,216.528L156.754,216.528L148.019,183.283L128.153,183.283L164.894,81.961L185.984,146.061L185.984,184.842L174.494,216.528Z" style="fill:rgb(113,53,128);fill-rule:nonzero;"/>
        <path d="M192.674,166.393L185.984,146.061L185.984,39.141L238.817,39.141L192.674,166.393Z" style="fill:rgb(71,161,71);fill-rule:nonzero;"/>
        <path d="M185.984,184.842L185.984,146.061L192.674,166.393L185.984,184.842Z" style="fill:rgb(105,58,56);fill-rule:nonzero;"/>
        <path d="M314.631,254.608L256.234,254.608L271.038,213.782C281.931,211.429 291.575,207.562 299.968,202.181L295.307,216.528L328.439,216.528L314.631,254.608ZM333.813,98.023C331.51,88.043 327.757,79.277 322.551,71.721L348.218,0.938L406.615,0.938L393.026,38.415L353.182,38.415L333.813,98.023Z" style="fill:rgb(39,170,225);fill-rule:nonzero;"/>
        <path d="M328.439,216.528L295.307,216.528L299.968,202.181C304.356,199.368 308.402,196.142 312.107,192.501C328.405,176.487 336.555,153.677 336.555,124.072C336.555,114.626 335.641,105.942 333.813,98.023L353.182,38.415L393.026,38.415L328.439,216.528Z" style="fill:rgb(113,53,128);fill-rule:nonzero;"/>
        <path d="M271.038,213.782L322.551,71.721C327.757,79.277 331.51,88.043 333.813,98.023L299.968,202.181C291.575,207.562 281.931,211.429 271.038,213.782Z" style="fill:rgb(71,161,71);fill-rule:nonzero;"/>
        <path d="M299.968,202.181L333.813,98.023C335.641,105.942 336.555,114.626 336.555,124.072C336.555,153.677 328.405,176.487 312.107,192.501C308.402,196.142 304.356,199.368 299.968,202.181Z" style="fill:rgb(105,58,56);fill-rule:nonzero;"/>
    </g>
</svg>
