<?xml version="1.0" encoding="UTF-8" standalone="no"?>
<!DOCTYPE svg PUBLIC "-//W3C//DTD SVG 1.1//EN" "http://www.w3.org/Graphics/SVG/1.1/DTD/svg11.dtd">
<svg width="100%" height="100%" viewBox="0 0 421 359" version="1.1" xmlns="http://www.w3.org/2000/svg" xmlns:xlink="http://www.w3.org/1999/xlink" xml:space="preserve" style="fill-rule:evenodd;clip-rule:evenodd;stroke-linejoin:round;stroke-miterlimit:1.41421;">
    <g transform="matrix(4.16667,0,0,4.16667,0,0)">
        <rect x="5.491" y="70.485" width="7.042" height="0.57" style="fill:rgb(166,42,87);fill-rule:nonzero;"/>
        <path d="M7.231,56.504L7.222,56.504L6.506,58.564L7.946,58.564L7.231,56.504ZM8.514,60.204L8.13,59.108L6.326,59.108L5.945,60.204L5.306,60.204L6.916,55.821L7.58,55.821L9.179,60.204L8.514,60.204Z" style="fill:rgb(166,42,87);fill-rule:nonzero;"/>
        <path d="M11.789,56.366L11.065,56.366L11.065,57.872L11.669,57.872C12.367,57.872 12.666,57.567 12.666,57.106C12.666,56.615 12.428,56.366 11.789,56.366ZM12.818,60.204L12.232,58.801C12.121,58.537 11.924,58.408 11.705,58.408L11.065,58.408L11.065,60.204L10.427,60.204L10.427,55.821L11.839,55.821C12.776,55.821 13.319,56.188 13.319,57.064C13.319,57.6 13.031,58 12.443,58.18L12.443,58.189C12.443,58.189 12.666,58.247 12.785,58.52L13.558,60.204L12.818,60.204Z" style="fill:rgb(166,42,87);fill-rule:nonzero;"/>
        <path d="M16.429,60.283C14.932,60.283 14.718,59.176 14.718,58.019C14.718,56.867 14.957,55.745 16.515,55.745C16.914,55.745 17.238,55.839 17.528,55.959L17.494,56.548C17.153,56.375 16.855,56.308 16.567,56.308C15.774,56.308 15.375,56.773 15.375,57.685L15.375,58.341C15.375,59.328 15.85,59.721 16.567,59.721C16.922,59.721 17.248,59.577 17.545,59.404L17.578,60.002C17.28,60.172 16.922,60.283 16.429,60.283Z" style="fill:rgb(166,42,87);fill-rule:nonzero;"/>
        <path d="M21.694,60.204L21.694,58.206L19.769,58.206L19.769,60.204L19.13,60.204L19.13,55.821L19.769,55.821L19.769,57.652L21.694,57.652L21.694,55.821L22.322,55.821L22.322,60.204L21.694,60.204Z" style="fill:rgb(166,42,87);fill-rule:nonzero;"/>
        <path d="M25.755,56.504L25.747,56.504L25.032,58.564L26.47,58.564L25.755,56.504ZM27.041,60.204L26.658,59.108L24.853,59.108L24.469,60.204L23.833,60.204L25.439,55.821L26.106,55.821L27.704,60.204L27.041,60.204Z" style="fill:rgb(166,42,87);fill-rule:nonzero;"/>
        <path d="M31.872,57.685C31.872,56.794 31.514,56.308 30.755,56.308C29.991,56.308 29.607,56.794 29.607,57.685L29.607,58.341C29.607,59.234 29.964,59.721 30.73,59.721C31.488,59.721 31.872,59.234 31.872,58.341L31.872,57.685ZM30.712,60.283C29.207,60.283 28.954,59.293 28.954,58.019C28.954,56.732 29.267,55.745 30.765,55.745C32.271,55.745 32.526,56.732 32.526,58.019C32.526,59.293 32.211,60.283 30.712,60.283Z" style="fill:rgb(166,42,87);fill-rule:nonzero;"/>
        <path d="M33.975,60.204L33.975,55.821L34.611,55.821L34.611,59.645L36.398,59.653L36.398,60.204L33.975,60.204Z" style="fill:rgb(166,42,87);fill-rule:nonzero;"/>
        <path d="M40.453,57.685C40.453,56.794 40.095,56.308 39.337,56.308C38.572,56.308 38.189,56.794 38.189,57.685L38.189,58.341C38.189,59.234 38.546,59.721 39.311,59.721C40.07,59.721 40.453,59.234 40.453,58.341L40.453,57.685ZM39.295,60.283C37.79,60.283 37.533,59.293 37.533,58.019C37.533,56.732 37.848,55.745 39.345,55.745C40.852,55.745 41.107,56.732 41.107,58.019C41.107,59.293 40.793,60.283 39.295,60.283Z" style="fill:rgb(166,42,87);fill-rule:nonzero;"/>
        <path d="M44.015,60.283C42.518,60.283 42.313,59.185 42.313,58.027C42.313,56.861 42.594,55.745 44.236,55.745C44.961,55.745 45.419,56.018 45.419,56.018L45.384,56.589C45.384,56.589 44.756,56.308 44.236,56.308C43.377,56.308 42.969,56.773 42.969,57.696L42.969,58.358C42.969,59.387 43.445,59.728 44.059,59.728C44.517,59.728 44.882,59.56 44.882,59.56L44.882,58.394L44.066,58.394L44.066,57.831L45.513,57.831L45.513,59.882C45.513,59.882 44.918,60.283 44.015,60.283Z" style="fill:rgb(166,42,87);fill-rule:nonzero;"/>
        <rect x="47.188" y="55.821" width="0.639" height="4.383" style="fill:rgb(166,42,87);fill-rule:nonzero;"/>
        <path d="M50.537,60.283C50.093,60.283 49.703,60.197 49.321,60.011L49.354,59.387C49.703,59.583 50.111,59.721 50.502,59.721C51.175,59.721 51.472,59.404 51.472,59.029C51.472,58.605 50.996,58.399 50.621,58.265L50.46,58.206C49.866,57.992 49.345,57.685 49.345,56.92C49.345,56.188 49.933,55.745 50.843,55.745C51.371,55.745 51.662,55.865 51.923,55.977L51.89,56.571C51.574,56.418 51.193,56.308 50.877,56.308C50.333,56.308 50.002,56.495 50.002,56.92C50.002,57.354 50.443,57.523 50.818,57.661L50.972,57.711C51.644,57.939 52.128,58.3 52.128,59.021C52.128,59.756 51.558,60.283 50.537,60.283Z" style="fill:rgb(166,42,87);fill-rule:nonzero;"/>
        <path d="M55.041,60.283C53.543,60.283 53.33,59.176 53.33,58.019C53.33,56.867 53.568,55.745 55.125,55.745C55.525,55.745 55.849,55.839 56.138,55.959L56.104,56.548C55.764,56.375 55.464,56.308 55.175,56.308C54.384,56.308 53.984,56.773 53.984,57.685L53.984,58.341C53.984,59.328 54.46,59.721 55.175,59.721C55.533,59.721 55.857,59.577 56.154,59.404L56.189,60.002C55.89,60.172 55.533,60.283 55.041,60.283Z" style="fill:rgb(166,42,87);fill-rule:nonzero;"/>
        <path d="M60.239,60.204L60.239,58.206L58.316,58.206L58.316,60.204L57.679,60.204L57.679,55.821L58.316,55.821L58.316,57.652L60.239,57.652L60.239,55.821L60.871,55.821L60.871,60.204L60.239,60.204Z" style="fill:rgb(166,42,87);fill-rule:nonzero;"/>
        <path d="M62.565,60.204L62.565,55.821L65,55.821L65,56.366L63.204,56.366L63.204,57.652L64.855,57.652L64.855,58.197L63.204,58.197L63.204,59.659L65,59.668L65,60.204L62.565,60.204Z" style="fill:rgb(166,42,87);fill-rule:nonzero;"/>
        <path d="M67.645,60.283C67.205,60.283 66.812,60.197 66.429,60.011L66.464,59.387C66.812,59.583 67.222,59.721 67.613,59.721C68.284,59.721 68.583,59.404 68.583,59.029C68.583,58.605 68.107,58.399 67.732,58.265L67.569,58.206C66.974,57.992 66.455,57.685 66.455,56.92C66.455,56.188 67.042,55.745 67.952,55.745C68.479,55.745 68.769,55.865 69.034,55.977L68.999,56.571C68.684,56.418 68.301,56.308 67.988,56.308C67.443,56.308 67.111,56.495 67.111,56.92C67.111,57.354 67.553,57.523 67.926,57.661L68.081,57.711C68.752,57.939 69.238,58.3 69.238,59.021C69.238,59.756 68.668,60.283 67.645,60.283Z" style="fill:rgb(166,42,87);fill-rule:nonzero;"/>
        <path d="M76.695,60.204L76.533,56.715L76.525,56.715L75.136,59.208L73.758,56.715L73.751,56.715L73.58,60.204L72.976,60.204L73.232,55.821L73.894,55.821L75.136,58.033L75.145,58.033L76.387,55.821L77.052,55.821L77.307,60.204L76.695,60.204Z" style="fill:rgb(166,42,87);fill-rule:nonzero;"/>
        <path d="M80.392,60.283C79.337,60.283 78.828,59.823 78.828,58.731L78.828,55.821L79.465,55.821L79.465,58.731C79.465,59.398 79.788,59.735 80.41,59.735C81.056,59.735 81.353,59.404 81.353,58.731L81.353,55.821L81.985,55.821L81.985,58.731C81.985,59.841 81.414,60.283 80.392,60.283Z" style="fill:rgb(166,42,87);fill-rule:nonzero;"/>
        <path d="M84.607,60.283C84.166,60.283 83.775,60.197 83.391,60.011L83.426,59.387C83.775,59.583 84.182,59.721 84.573,59.721C85.247,59.721 85.544,59.404 85.544,59.029C85.544,58.605 85.068,58.399 84.693,58.265L84.532,58.206C83.937,57.992 83.416,57.685 83.416,56.92C83.416,56.188 84.004,55.745 84.915,55.745C85.442,55.745 85.732,55.865 85.996,55.977L85.96,56.571C85.645,56.418 85.266,56.308 84.95,56.308C84.403,56.308 84.074,56.495 84.074,56.92C84.074,57.354 84.514,57.523 84.888,57.661L85.042,57.711C85.714,57.939 86.199,58.3 86.199,59.021C86.199,59.756 85.63,60.283 84.607,60.283Z" style="fill:rgb(166,42,87);fill-rule:nonzero;"/>
        <path d="M87.748,60.204L87.748,55.821L90.182,55.821L90.182,56.366L88.386,56.366L88.386,57.652L90.037,57.652L90.037,58.197L88.386,58.197L88.386,59.659L90.182,59.668L90.182,60.204L87.748,60.204Z" style="fill:rgb(166,42,87);fill-rule:nonzero;"/>
        <path d="M93.371,60.283C92.313,60.283 91.805,59.823 91.805,58.731L91.805,55.821L92.442,55.821L92.442,58.731C92.442,59.398 92.766,59.735 93.387,59.735C94.035,59.735 94.332,59.404 94.332,58.731L94.332,55.821L94.96,55.821L94.96,58.731C94.96,59.841 94.39,60.283 93.371,60.283Z" style="fill:rgb(166,42,87);fill-rule:nonzero;"/>
        <path d="M100.13,60.204L99.968,56.715L99.961,56.715L98.573,59.208L97.193,56.715L97.185,56.715L97.014,60.204L96.412,60.204L96.666,55.821L97.329,55.821L98.573,58.033L98.582,58.033L99.824,55.821L100.486,55.821L100.742,60.204L100.13,60.204Z" style="fill:rgb(166,42,87);fill-rule:nonzero;"/>
        <path d="M8.056,67.143L8.056,65.143L6.132,65.143L6.132,67.143L5.496,67.143L5.496,62.759L6.132,62.759L6.132,64.59L8.056,64.59L8.056,62.759L8.687,62.759L8.687,67.143L8.056,67.143Z" style="fill:rgb(166,42,87);fill-rule:nonzero;"/>
        <path d="M11.921,63.442L11.912,63.442L11.198,65.501L12.636,65.501L11.921,63.442ZM13.207,67.143L12.824,66.045L11.019,66.045L10.635,67.143L9.999,67.143L11.608,62.759L12.27,62.759L13.872,67.143L13.207,67.143Z" style="fill:rgb(166,42,87);fill-rule:nonzero;"/>
        <path d="M18.929,67.143L18.765,63.653L18.758,63.653L17.371,66.149L15.993,63.653L15.982,63.653L15.814,67.143L15.21,67.143L15.465,62.759L16.128,62.759L17.371,64.971L17.379,64.971L18.624,62.759L19.287,62.759L19.541,67.143L18.929,67.143Z" style="fill:rgb(166,42,87);fill-rule:nonzero;"/>
        <path d="M22.576,65.118L21.963,65.118L21.963,66.598L22.576,66.598C23.212,66.598 23.57,66.385 23.57,65.856C23.57,65.329 23.223,65.118 22.576,65.118ZM22.617,63.295L21.963,63.295L21.963,64.59L22.55,64.59C23.147,64.59 23.444,64.342 23.444,63.901C23.444,63.442 23.129,63.295 22.617,63.295ZM22.609,67.143L21.332,67.143L21.332,62.759L22.652,62.759C23.349,62.759 24.09,62.955 24.09,63.84C24.09,64.608 23.393,64.801 23.393,64.801L23.393,64.813C23.393,64.813 24.226,64.938 24.226,65.833C24.226,66.711 23.664,67.143 22.609,67.143Z" style="fill:rgb(166,42,87);fill-rule:nonzero;"/>
        <path d="M27.401,67.217C26.346,67.217 25.834,66.76 25.834,65.67L25.834,62.759L26.472,62.759L26.472,65.67C26.472,66.335 26.797,66.676 27.418,66.676C28.064,66.676 28.363,66.342 28.363,65.67L28.363,62.759L28.992,62.759L28.992,65.67C28.992,66.776 28.421,67.217 27.401,67.217Z" style="fill:rgb(166,42,87);fill-rule:nonzero;"/>
        <path d="M32.033,63.303L31.31,63.303L31.31,64.813L31.914,64.813C32.611,64.813 32.909,64.502 32.909,64.045C32.909,63.551 32.669,63.303 32.033,63.303ZM33.062,67.143L32.476,65.739C32.365,65.475 32.17,65.348 31.948,65.348L31.31,65.348L31.31,67.143L30.67,67.143L30.67,62.759L32.084,62.759C33.02,62.759 33.565,63.126 33.565,64.001C33.565,64.54 33.275,64.938 32.687,65.118L32.687,65.126C32.687,65.126 32.909,65.186 33.027,65.458L33.802,67.143L33.062,67.143Z" style="fill:rgb(166,42,87);fill-rule:nonzero;"/>
        <path d="M36.706,67.217C35.207,67.217 35.003,66.12 35.003,64.965C35.003,63.799 35.285,62.683 36.925,62.683C37.65,62.683 38.109,62.955 38.109,62.955L38.075,63.526C38.075,63.526 37.445,63.245 36.925,63.245C36.067,63.245 35.658,63.713 35.658,64.633L35.658,65.295C35.658,66.325 36.134,66.666 36.747,66.666C37.207,66.666 37.573,66.495 37.573,66.495L37.573,65.329L36.755,65.329L36.755,64.77L38.203,64.77L38.203,66.819C38.203,66.819 37.608,67.217 36.706,67.217Z" style="fill:rgb(166,42,87);fill-rule:nonzero;"/>
        <path d="M24.472,56.196L24.036,56.633L23.599,56.196L24.036,55.758L24.472,56.196Z" style="fill:rgb(166,42,87);fill-rule:nonzero;"/>
        <path d="M27.934,56.196L27.498,56.633L27.061,56.196L27.498,55.758L27.934,56.196Z" style="fill:rgb(166,42,87);fill-rule:nonzero;"/>
        <path d="M6.569,79.063C6.124,79.063 5.734,78.977 5.35,78.79L5.385,78.168C5.734,78.364 6.143,78.502 6.534,78.502C7.207,78.502 7.503,78.186 7.503,77.813C7.503,77.385 7.028,77.184 6.651,77.045L6.49,76.987C5.895,76.774 5.376,76.469 5.376,75.702C5.376,74.971 5.962,74.528 6.874,74.528C7.401,74.528 7.691,74.645 7.955,74.756L7.919,75.352C7.605,75.2 7.222,75.088 6.909,75.088C6.364,75.088 6.032,75.276 6.032,75.702C6.032,76.135 6.474,76.305 6.849,76.442L7.001,76.493C7.673,76.723 8.16,77.081 8.16,77.803C8.16,78.534 7.588,79.063 6.569,79.063Z" style="fill:rgb(166,42,87);fill-rule:nonzero;"/>
        <path d="M11.069,75.157L11.069,78.985L10.429,78.985L10.429,75.157L9.169,75.157L9.169,74.604L12.335,74.604L12.335,75.157L11.069,75.157Z" style="fill:rgb(166,42,87);fill-rule:nonzero;"/>
        <path d="M14.757,75.284L14.748,75.284L14.033,77.344L15.472,77.344L14.757,75.284ZM16.042,78.985L15.66,77.889L13.855,77.889L13.471,78.985L12.835,78.985L14.443,74.604L15.105,74.604L16.706,78.985L16.042,78.985Z" style="fill:rgb(166,42,87);fill-rule:nonzero;"/>
        <path d="M20.636,76.5C20.636,75.473 20.118,75.147 19.351,75.147L18.67,75.147L18.67,78.442L19.079,78.442C20.176,78.442 20.636,78.1 20.636,77.063L20.636,76.5ZM19.13,78.985L18.032,78.985L18.032,74.604L19.377,74.604C20.992,74.604 21.308,75.42 21.308,76.764C21.308,78.204 20.857,78.985 19.13,78.985Z" style="fill:rgb(166,42,87);fill-rule:nonzero;"/>
        <path d="M24.375,75.157L24.375,78.985L23.737,78.985L23.737,75.157L22.479,75.157L22.479,74.604L25.643,74.604L25.643,75.157L24.375,75.157Z" style="fill:rgb(166,42,87);fill-rule:nonzero;"/>
        <path d="M30.707,78.985L30.544,75.497L30.536,75.497L29.148,77.989L27.77,75.497L27.761,75.497L27.591,78.985L26.988,78.985L27.243,74.604L27.906,74.604L29.148,76.817L29.157,76.817L30.399,74.604L31.063,74.604L31.318,78.985L30.707,78.985Z" style="fill:rgb(166,42,87);fill-rule:nonzero;"/>
        <path d="M34.473,79.063C33.418,79.063 32.907,78.604 32.907,77.514L32.907,74.604L33.544,74.604L33.544,77.514C33.544,78.176 33.87,78.52 34.491,78.52C35.136,78.52 35.434,78.186 35.434,77.514L35.434,74.604L36.064,74.604L36.064,77.514C36.064,78.622 35.494,79.063 34.473,79.063Z" style="fill:rgb(166,42,87);fill-rule:nonzero;"/>
        <path d="M38.787,79.063C38.346,79.063 37.954,78.977 37.57,78.79L37.605,78.168C37.954,78.364 38.361,78.502 38.753,78.502C39.425,78.502 39.723,78.186 39.723,77.813C39.723,77.385 39.247,77.184 38.874,77.045L38.71,76.987C38.115,76.774 37.596,76.469 37.596,75.702C37.596,74.971 38.183,74.528 39.093,74.528C39.621,74.528 39.911,74.645 40.174,74.756L40.14,75.352C39.826,75.2 39.442,75.088 39.128,75.088C38.584,75.088 38.252,75.276 38.252,75.702C38.252,76.135 38.695,76.305 39.068,76.442L39.22,76.493C39.894,76.723 40.379,77.081 40.379,77.803C40.379,78.534 39.808,79.063 38.787,79.063Z" style="fill:rgb(166,42,87);fill-rule:nonzero;"/>
        <path d="M41.938,78.985L41.938,74.604L44.37,74.604L44.37,75.147L42.574,75.147L42.574,76.434L44.224,76.434L44.224,76.979L42.574,76.979L42.574,78.442L44.37,78.45L44.37,78.985L41.938,78.985Z" style="fill:rgb(166,42,87);fill-rule:nonzero;"/>
        <path d="M47.57,79.063C46.515,79.063 46.004,78.604 46.004,77.514L46.004,74.604L46.643,74.604L46.643,77.514C46.643,78.176 46.965,78.52 47.586,78.52C48.234,78.52 48.531,78.186 48.531,77.514L48.531,74.604L49.163,74.604L49.163,77.514C49.163,78.622 48.589,79.063 47.57,79.063Z" style="fill:rgb(166,42,87);fill-rule:nonzero;"/>
        <path d="M54.516,78.985L54.355,75.497L54.346,75.497L52.96,77.989L51.581,75.497L51.572,75.497L51.402,78.985L50.798,78.985L51.052,74.604L51.716,74.604L52.96,76.817L52.966,76.817L54.21,74.604L54.874,74.604L55.128,78.985L54.516,78.985Z" style="fill:rgb(166,42,87);fill-rule:nonzero;"/>
        <path d="M61.742,78.985L61.742,76.987L59.817,76.987L59.817,78.985L59.178,78.985L59.178,74.604L59.817,74.604L59.817,76.434L61.742,76.434L61.742,74.604L62.371,74.604L62.371,78.985L61.742,78.985Z" style="fill:rgb(166,42,87);fill-rule:nonzero;"/>
        <path d="M65.512,75.284L65.505,75.284L64.791,77.344L66.227,77.344L65.512,75.284ZM66.798,78.985L66.415,77.889L64.61,77.889L64.228,78.985L63.589,78.985L65.198,74.604L65.863,74.604L67.462,78.985L66.798,78.985Z" style="fill:rgb(166,42,87);fill-rule:nonzero;"/>
        <path d="M70.149,75.147L69.426,75.147L69.426,76.655L70.03,76.655C70.727,76.655 71.026,76.348 71.026,75.889C71.026,75.395 70.789,75.147 70.149,75.147ZM71.178,78.985L70.591,77.583C70.481,77.319 70.287,77.192 70.064,77.192L69.426,77.192L69.426,78.985L68.788,78.985L68.788,74.604L70.2,74.604C71.136,74.604 71.681,74.971 71.681,75.844C71.681,76.383 71.392,76.782 70.803,76.959L70.803,76.969C70.803,76.969 71.026,77.028 71.143,77.301L71.919,78.985L71.178,78.985Z" style="fill:rgb(166,42,87);fill-rule:nonzero;"/>
        <path d="M74.697,76.959L74.084,76.959L74.084,78.442L74.697,78.442C75.333,78.442 75.69,78.229 75.69,77.702C75.69,77.172 75.341,76.959 74.697,76.959ZM74.74,75.139L74.084,75.139L74.084,76.434L74.67,76.434C75.265,76.434 75.564,76.188 75.564,75.745C75.564,75.284 75.25,75.139 74.74,75.139ZM74.729,78.985L73.454,78.985L73.454,74.604L74.773,74.604C75.47,74.604 76.21,74.801 76.21,75.684C76.21,76.452 75.513,76.647 75.513,76.647L75.513,76.655C75.513,76.655 76.346,76.782 76.346,77.676C76.346,78.551 75.786,78.985 74.729,78.985Z" style="fill:rgb(166,42,87);fill-rule:nonzero;"/>
        <path d="M79.41,79.063C78.355,79.063 77.845,78.604 77.845,77.514L77.845,74.604L78.482,74.604L78.482,77.514C78.482,78.176 78.806,78.52 79.427,78.52C80.073,78.52 80.372,78.186 80.372,77.514L80.372,74.604L81.002,74.604L81.002,77.514C81.002,78.622 80.43,79.063 79.41,79.063Z" style="fill:rgb(166,42,87);fill-rule:nonzero;"/>
        <path d="M84.015,75.147L83.293,75.147L83.293,76.655L83.898,76.655C84.593,76.655 84.892,76.348 84.892,75.889C84.892,75.395 84.654,75.147 84.015,75.147ZM85.044,78.985L84.459,77.583C84.347,77.319 84.153,77.192 83.93,77.192L83.293,77.192L83.293,78.985L82.654,78.985L82.654,74.604L84.068,74.604C85.002,74.604 85.548,74.971 85.548,75.844C85.548,76.383 85.257,76.782 84.671,76.959L84.671,76.969C84.671,76.969 84.892,77.028 85.011,77.301L85.786,78.985L85.044,78.985Z" style="fill:rgb(166,42,87);fill-rule:nonzero;"/>
        <path d="M88.688,79.063C87.191,79.063 86.986,77.965 86.986,76.807C86.986,75.643 87.267,74.528 88.909,74.528C89.631,74.528 90.091,74.801 90.091,74.801L90.059,75.37C90.059,75.37 89.429,75.088 88.909,75.088C88.049,75.088 87.64,75.557 87.64,76.477L87.64,77.139C87.64,78.168 88.118,78.508 88.73,78.508C89.192,78.508 89.556,78.338 89.556,78.338L89.556,77.172L88.738,77.172L88.738,76.612L90.185,76.612L90.185,78.663C90.185,78.663 89.59,79.063 88.688,79.063Z" style="fill:rgb(166,42,87);fill-rule:nonzero;"/>
        <path d="M8.05,85.922L8.05,83.924L6.128,83.924L6.128,85.922L5.49,85.922L5.49,81.54L6.128,81.54L6.128,83.372L8.05,83.372L8.05,81.54L8.678,81.54L8.678,85.922L8.05,85.922Z" style="fill:rgb(166,42,87);fill-rule:nonzero;"/>
        <path d="M10.389,85.922L10.389,81.54L12.824,81.54L12.824,82.084L11.028,82.084L11.028,83.372L12.679,83.372L12.679,83.916L11.028,83.916L11.028,85.377L12.824,85.387L12.824,85.922L10.389,85.922Z" style="fill:rgb(166,42,87);fill-rule:nonzero;"/>
        <path d="M14.513,85.922L14.513,81.54L15.152,81.54L15.152,85.36L16.939,85.372L16.939,85.922L14.513,85.922Z" style="fill:rgb(166,42,87);fill-rule:nonzero;"/>
        <path d="M22.01,85.922L21.847,82.434L21.84,82.434L20.453,84.926L19.075,82.434L19.066,82.434L18.896,85.922L18.291,85.922L18.547,81.54L19.21,81.54L20.453,83.754L20.46,83.754L21.703,81.54L22.368,81.54L22.624,85.922L22.01,85.922Z" style="fill:rgb(166,42,87);fill-rule:nonzero;"/>
        <path d="M25.35,86C24.909,86 24.518,85.916 24.134,85.727L24.168,85.108C24.518,85.301 24.925,85.436 25.316,85.436C25.989,85.436 26.288,85.124 26.288,84.75C26.288,84.323 25.81,84.122 25.436,83.983L25.275,83.924C24.679,83.711 24.159,83.405 24.159,82.639C24.159,81.907 24.748,81.463 25.656,81.463C26.183,81.463 26.475,81.583 26.739,81.696L26.704,82.29C26.388,82.135 26.006,82.026 25.691,82.026C25.146,82.026 24.814,82.213 24.814,82.639C24.814,83.073 25.257,83.245 25.631,83.379L25.785,83.43C26.458,83.661 26.941,84.016 26.941,84.741C26.941,85.471 26.373,86 25.35,86Z" style="fill:rgb(166,42,87);fill-rule:nonzero;"/>
        <path d="M35.8,85.922L35.639,82.434L35.631,82.434L34.243,84.926L32.865,82.434L32.857,82.434L32.686,85.922L32.083,85.922L32.337,81.54L33,81.54L34.243,83.754L34.252,83.754L35.494,81.54L36.159,81.54L36.414,85.922L35.8,85.922Z" style="fill:rgb(166,42,87);fill-rule:nonzero;"/>
        <path d="M39.595,86C38.541,86 38.03,85.54 38.03,84.452L38.03,81.54L38.668,81.54L38.668,84.452C38.668,85.114 38.992,85.454 39.613,85.454C40.259,85.454 40.558,85.124 40.558,84.452L40.558,81.54L41.188,81.54L41.188,84.452C41.188,85.557 40.617,86 39.595,86Z" style="fill:rgb(166,42,87);fill-rule:nonzero;"/>
        <path d="M43.91,86C43.468,86 43.076,85.916 42.694,85.727L42.727,85.108C43.076,85.301 43.485,85.436 43.877,85.436C44.548,85.436 44.845,85.124 44.845,84.75C44.845,84.323 44.371,84.122 43.996,83.983L43.834,83.924C43.239,83.711 42.718,83.405 42.718,82.639C42.718,81.907 43.306,81.463 44.217,81.463C44.745,81.463 45.033,81.583 45.296,81.696L45.263,82.29C44.948,82.135 44.566,82.026 44.251,82.026C43.708,82.026 43.375,82.213 43.375,82.639C43.375,83.073 43.816,83.245 44.191,83.379L44.343,83.43C45.015,83.661 45.502,84.016 45.502,84.741C45.502,85.471 44.932,86 43.91,86Z" style="fill:rgb(166,42,87);fill-rule:nonzero;"/>
        <path d="M47.059,85.922L47.059,81.54L49.492,81.54L49.492,82.084L47.698,82.084L47.698,83.372L49.347,83.372L49.347,83.916L47.698,83.916L47.698,85.377L49.492,85.387L49.492,85.922L47.059,85.922Z" style="fill:rgb(166,42,87);fill-rule:nonzero;"/>
        <path d="M52.691,86C51.636,86 51.127,85.54 51.127,84.452L51.127,81.54L51.763,81.54L51.763,84.452C51.763,85.114 52.087,85.454 52.709,85.454C53.356,85.454 53.654,85.124 53.654,84.452L53.654,81.54L54.283,81.54L54.283,84.452C54.283,85.557 53.713,86 52.691,86Z" style="fill:rgb(166,42,87);fill-rule:nonzero;"/>
        <path d="M59.652,85.922L59.492,82.434L59.483,82.434L58.094,84.926L56.716,82.434L56.709,82.434L56.539,85.922L55.933,85.922L56.189,81.54L56.853,81.54L58.094,83.754L58.103,83.754L59.347,81.54L60.01,81.54L60.265,85.922L59.652,85.922Z" style="fill:rgb(166,42,87);fill-rule:nonzero;"/>
        <rect x="28.397" y="83.36" width="2.028" height="0.556" style="fill:rgb(166,42,87);fill-rule:nonzero;"/>
        <path d="M32.692,11.21C33.19,11.942 34.41,11.313 34.81,10.989C35.218,10.658 35.866,9.95 35.311,9.335C34.848,8.822 33.922,9.272 33.519,9.583C33.009,9.972 32.335,10.681 32.692,11.21Z" style="fill:rgb(166,42,87);fill-rule:nonzero;"/>
        <path d="M28.051,15.997C27.832,15.983 27.642,16.15 27.627,16.37C27.613,16.59 27.782,16.776 28,16.791C28.221,16.804 28.409,16.64 28.424,16.416C28.435,16.199 28.271,16.01 28.051,15.997Z" style="fill:rgb(166,42,87);fill-rule:nonzero;"/>
        <path d="M30.568,15.134C30.349,15.119 30.162,15.286 30.146,15.506C30.132,15.726 30.301,15.913 30.521,15.928C30.739,15.941 30.929,15.774 30.941,15.554C30.955,15.335 30.789,15.146 30.568,15.134Z" style="fill:rgb(166,42,87);fill-rule:nonzero;"/>
        <path d="M28.073,10.848C28.073,10.482 27.776,10.186 27.41,10.186C27.044,10.186 26.748,10.482 26.748,10.848C26.748,11.214 27.044,11.512 27.41,11.512C27.776,11.512 28.073,11.214 28.073,10.848Z" style="fill:rgb(166,42,87);fill-rule:nonzero;"/>
        <path d="M29.311,15.564C29.089,15.55 28.902,15.717 28.889,15.937C28.873,16.156 29.04,16.345 29.259,16.358C29.481,16.373 29.668,16.206 29.683,15.985C29.695,15.767 29.529,15.576 29.311,15.564Z" style="fill:rgb(166,42,87);fill-rule:nonzero;"/>
        <path d="M32.841,41.182C32.707,41.337 32.472,41.601 32.306,41.771C31.951,42.134 31.325,41.689 31.679,41.252C31.849,41.041 31.937,40.95 32.132,40.71C32.414,40.364 32.009,40.054 31.755,40.353C31.605,40.534 31.371,40.795 31.24,40.936C30.887,41.322 30.27,40.801 30.677,40.341C30.748,40.262 32.428,38.437 33.079,37.408C34.603,34.991 34.154,32.586 33.093,32.211C31.14,31.517 30.519,30.307 30.519,30.307C27.363,30.819 22.301,30.638 19.213,29.396C18.903,29.27 18.493,29.11 18.317,29.041C18.102,28.956 18.024,29.106 18.097,29.299C19.375,32.612 15.682,35.246 15.68,35.346C15.584,38.023 16.713,39.242 17.771,39.342C19.933,39.547 22.62,39.611 24.455,39.679C25.051,39.699 25,40.467 24.581,40.549C24.355,40.593 23.957,40.572 23.666,40.581C23.242,40.59 23.232,41.144 23.666,41.164C23.891,41.173 24.313,41.155 24.556,41.202C25.06,41.293 24.976,42.084 24.462,42.09C23.242,42.105 20.52,42.154 17.154,42.002C15.384,41.923 14.224,41.24 13.113,39.497C12.002,37.754 9.99,33.351 10.126,30.688C9.67,30.708 8.842,30.714 7.585,31.625C6.334,32.536 6.03,33.096 5.526,32.979C4.983,32.853 4.995,31.742 5.561,30.606C6.575,28.575 7.916,27.383 10.553,26.36C11.074,25.142 11.88,23.885 13.246,23.088C16.744,21.049 23.786,21.925 25.75,20.699C28.123,19.219 27.184,15.673 26.459,14.984C23.906,12.562 20.115,14.769 18.404,14.492C17.419,14.334 17.614,13.941 17.698,13.859C17.953,13.603 19.667,12.131 19.832,11.973C19.951,11.863 19.977,11.674 19.801,11.586C19.456,11.414 18.252,10.86 17.359,10.454C16.987,10.283 15.701,9.477 16.257,8.833C17.122,7.835 21.849,10.023 24.372,9.823C25.849,9.706 26.183,8.545 28.514,9.194C29.203,9.388 29.812,9.462 30.036,8.847C30.477,7.625 31.134,6.993 31.791,6.698C32.534,6.366 33.254,6.395 33.774,6.903C34.333,7.45 34.187,8.052 34.037,8.427C34.011,8.496 34.06,8.563 34.164,8.528C34.928,8.255 35.561,8.416 35.973,8.944C36.572,9.717 36.134,10.664 35.576,11.244C35.056,11.785 34.225,12.333 32.651,12.412C32.321,12.43 32.189,12.731 32.212,13.114C32.271,14.018 33.105,15.66 33.723,16.912C36.544,22.646 35.898,25.227 35.475,26.938C35.075,28.549 36.043,30.711 36.319,31.593C37.482,35.337 35.23,38.475 32.841,41.182ZM12.751,9.969C12.952,10.078 13.21,10.312 13.561,10.75C14.177,11.522 14.962,11.44 16.802,10.829C16.908,10.795 16.96,10.776 17.142,10.858C17.625,11.077 18.302,11.381 19.127,11.752C19.228,11.796 19.269,11.908 19.13,12.025C18.714,12.38 18.138,12.875 17.425,13.493C17.211,13.679 16.708,13.65 16.43,13.65C13.398,13.65 12.351,11.65 12.144,10.543C12.021,9.887 12.471,9.82 12.751,9.969ZM23.449,0.962C10.498,0.962 0,11.409 0,24.295C0,37.177 10.498,47.624 23.449,47.624C36.398,47.624 46.896,37.177 46.896,24.295C46.896,11.409 36.398,0.962 23.449,0.962Z" style="fill:rgb(166,42,87);fill-rule:nonzero;"/>
        <path d="M31.828,14.7C31.611,14.686 31.421,14.856 31.409,15.072C31.394,15.295 31.561,15.482 31.781,15.496C31.999,15.509 32.189,15.342 32.201,15.122C32.214,14.905 32.048,14.715 31.828,14.7Z" style="fill:rgb(166,42,87);fill-rule:nonzero;"/>
        <path d="M32.759,9.256C33.093,8.935 33.732,7.945 33.168,7.435C32.651,6.966 31.974,7.318 31.489,7.778C30.862,8.373 30.601,9.268 30.979,9.632C31.426,10.06 32.083,9.897 32.759,9.256Z" style="fill:rgb(166,42,87);fill-rule:nonzero;"/>
    </g>
</svg>
