<?xml version="1.0" encoding="UTF-8" standalone="no"?>
<!DOCTYPE svg PUBLIC "-//W3C//DTD SVG 1.1//EN" "http://www.w3.org/Graphics/SVG/1.1/DTD/svg11.dtd">
<svg width="100%" height="100%" viewBox="0 0 592 592" version="1.1" xmlns="http://www.w3.org/2000/svg" xmlns:xlink="http://www.w3.org/1999/xlink" xml:space="preserve" style="fill-rule:evenodd;clip-rule:evenodd;stroke-linejoin:round;stroke-miterlimit:1.41421;">
    <g transform="matrix(4.16667,0,0,4.16667,0,0)">
        <g>
            <path d="M27.677,8.842L24.172,8.842L24.172,30.121L27.897,30.121L27.897,23.018C27.897,19.45 27.866,16.745 27.833,15.743C27.866,15.743 28.522,16.902 29.179,17.934L36.8,30.121L40.305,30.121L40.305,8.842L36.581,8.842L36.581,15.976C36.581,18.981 36.644,22.312 36.644,23.001C36.361,22.531 35.486,21.122 35.017,20.402L27.677,8.842Z" style="fill:rgb(35,31,32);fill-rule:nonzero;"/>
            <path d="M84.572,19.419C84.572,15.257 82.914,12.033 80.597,10.343C78.439,8.842 76.279,8.842 72.837,8.842L66.891,8.842L66.891,30.121L72.744,30.121C76.717,30.121 79.189,30.121 81.473,27.9C83.446,26.022 84.572,22.986 84.572,19.419ZM80.567,19.544C80.567,22.173 79.659,24.394 78.658,25.427C77.343,26.679 75.529,26.71 73.15,26.71L70.678,26.71L70.678,12.315L72.744,12.315C75.529,12.315 77.124,12.472 78.376,13.567C79.816,14.818 80.567,16.947 80.567,19.544Z" style="fill:rgb(35,31,32);fill-rule:nonzero;"/>
            <path d="M102.16,12.19L102.16,8.842L87.265,8.842L87.265,30.121L102.942,30.121L102.942,26.773L91.019,26.773L91.019,20.796L101.127,20.796L101.127,17.447L91.019,17.447L91.019,12.19L102.16,12.19Z" style="fill:rgb(35,31,32);fill-rule:nonzero;"/>
            <path d="M50.104,19.493C50.104,21.396 51.64,22.931 53.543,22.931C55.468,22.931 56.983,21.396 56.983,19.493C56.983,17.567 55.468,16.031 53.543,16.031C51.64,16.031 50.104,17.567 50.104,19.493Z" style="fill:rgb(35,31,32);fill-rule:nonzero;"/>
            <path d="M40.915,133.831L33.592,112.551L29.336,112.551L21.951,133.831L25.863,133.831L27.521,129.012L35.25,129.012L36.877,133.831L40.915,133.831ZM34.156,125.663L28.584,125.663L30.588,119.122C30.932,118.121 31.182,117.245 31.37,116.463L31.401,116.463C31.62,117.276 31.84,118.184 32.184,119.185L34.156,125.663Z" style="fill:rgb(35,31,32);fill-rule:nonzero;"/>
            <path d="M58.86,118.966C58.86,116.369 57.703,114.616 55.824,113.521C54.198,112.582 52.288,112.551 50.473,112.551L42.681,112.551L42.681,133.831L46.436,133.831L46.436,125.319L50.286,125.319L55.23,133.831L59.705,133.831L54.385,124.944C54.886,124.756 55.542,124.505 56.044,124.193C57.765,123.034 58.86,121.314 58.86,118.966ZM54.98,118.873C54.98,120.03 54.416,121.094 53.478,121.532C52.82,121.814 52.007,121.939 50.473,121.939L46.436,121.939L46.436,115.868L50.473,115.868C52.007,115.868 52.82,115.993 53.478,116.275C54.416,116.682 54.98,117.715 54.98,118.873Z" style="fill:rgb(35,31,32);fill-rule:nonzero;"/>
            <path d="M59.73,115.9L65.958,115.9L65.958,133.831L69.713,133.831L69.713,115.9L75.91,115.9L75.91,112.551L59.73,112.551L59.73,115.9Z" style="fill:rgb(35,31,32);fill-rule:nonzero;"/>
            <path d="M93.183,115.712C91.931,114.335 89.334,112.176 84.921,112.176C80.415,112.176 76.879,114.711 76.879,118.497C76.879,122.377 79.789,123.848 83.262,124.599L86.111,125.225C88.27,125.694 89.741,126.321 89.741,127.979C89.741,129.669 88.27,130.858 85.422,130.858C82.418,130.858 80.07,129.199 79.101,127.603L75.972,129.857C77.442,131.922 80.603,134.207 85.234,134.207C90.554,134.207 93.778,131.578 93.778,127.635C93.778,123.754 90.898,122.471 86.924,121.564L84.357,121C81.949,120.468 80.916,119.874 80.916,118.309C80.916,116.682 82.355,115.461 84.828,115.461C87.206,115.461 89.146,116.556 90.335,118.027L93.183,115.712Z" style="fill:rgb(35,31,32);fill-rule:nonzero;"/>
            <path d="M41.853,97.218C41.853,93.055 40.195,89.832 37.879,88.142C35.72,86.64 33.561,86.64 30.119,86.64L24.172,86.64L24.172,107.92L30.025,107.92C33.998,107.92 36.471,107.92 38.756,105.698C40.727,103.821 41.853,100.785 41.853,97.218ZM37.848,97.343C37.848,99.971 36.941,102.193 35.939,103.226C34.625,104.478 32.81,104.51 30.431,104.51L27.959,104.51L27.959,90.114L30.025,90.114C32.81,90.114 34.406,90.27 35.657,91.365C37.097,92.617 37.848,94.746 37.848,97.343Z" style="fill:rgb(35,31,32);fill-rule:nonzero;"/>
            <rect x="44.762" y="86.64" width="3.755" height="21.28" style="fill:rgb(35,31,32);fill-rule:nonzero;"/>
            <path d="M51.358,97.28C51.358,103.758 54.989,108.296 61.153,108.296C63.5,108.296 65.534,107.388 66.755,106.293L66.755,107.92L70.323,107.92L70.323,96.279L60.434,96.279L60.434,99.69L66.818,99.69C66.63,102.914 65.127,104.947 61.56,104.947C57.773,104.947 55.489,101.911 55.489,97.28C55.489,92.649 57.805,89.645 61.56,89.645C64.032,89.645 65.722,90.959 66.755,93.181L70.041,91.147C68.977,89.301 66.505,86.265 61.56,86.265C55.333,86.265 51.358,90.771 51.358,97.28Z" style="fill:rgb(35,31,32);fill-rule:nonzero;"/>
            <rect x="74.122" y="86.64" width="3.756" height="21.28" style="fill:rgb(35,31,32);fill-rule:nonzero;"/>
            <path d="M80.151,89.989L86.379,89.989L86.379,107.92L90.133,107.92L90.133,89.989L96.33,89.989L96.33,86.64L80.151,86.64L80.151,89.989Z" style="fill:rgb(35,31,32);fill-rule:nonzero;"/>
            <path d="M112.852,107.92L105.53,86.64L101.274,86.64L93.889,107.92L97.801,107.92L99.46,103.101L107.189,103.101L108.816,107.92L112.852,107.92ZM106.093,99.752L100.523,99.752L102.526,93.212C102.871,92.211 103.12,91.334 103.308,90.552L103.34,90.552C103.559,91.365 103.778,92.273 104.122,93.274L106.093,99.752Z" style="fill:rgb(35,31,32);fill-rule:nonzero;"/>
            <path d="M114.756,86.64L114.756,107.92L129.211,107.92L129.211,104.478L118.544,104.478L118.544,86.64L114.756,86.64Z" style="fill:rgb(35,31,32);fill-rule:nonzero;"/>
            <path d="M41.223,38.168L41.223,34.82L24.172,34.82L24.172,56.1L27.928,56.1L27.928,47.056L39.898,47.056L39.898,43.708L27.928,43.708L27.928,38.168L41.223,38.168Z" style="fill:rgb(35,31,32);fill-rule:nonzero;"/>
            <path d="M83.124,41.236C83.124,38.638 81.967,36.885 80.089,35.79C78.461,34.851 76.553,34.82 74.737,34.82L66.946,34.82L66.946,56.1L70.701,56.1L70.701,47.588L74.55,47.588L79.494,56.1L83.969,56.1L78.65,47.213C79.15,47.025 79.808,46.775 80.309,46.461C82.029,45.304 83.124,43.582 83.124,41.236ZM79.244,41.142C79.244,42.299 78.681,43.364 77.742,43.801C77.084,44.083 76.272,44.208 74.737,44.208L70.701,44.208L70.701,38.137L74.737,38.137C76.272,38.137 77.084,38.263 77.742,38.544C78.681,38.951 79.244,39.984 79.244,41.142Z" style="fill:rgb(35,31,32);fill-rule:nonzero;"/>
            <path d="M94.366,52.994C92.363,52.994 90.955,52.337 90.297,50.803C89.953,50.084 89.828,49.301 89.828,47.205L89.828,34.812L86.104,34.812L86.104,47.267C86.104,50.366 86.417,51.805 87.2,53.151C88.608,55.467 91.236,56.468 94.366,56.468C97.495,56.468 100.124,55.467 101.533,53.151C102.314,51.805 102.628,50.366 102.628,47.267L102.628,34.812L98.903,34.812L98.903,47.205C98.903,49.301 98.777,50.084 98.434,50.803C97.776,52.337 96.369,52.994 94.366,52.994Z" style="fill:rgb(35,31,32);fill-rule:nonzero;"/>
            <path d="M118.248,56.1L121.973,43.113C122.504,41.236 122.879,39.859 123.068,38.951L123.13,38.951C123.005,40.734 122.879,44.114 122.879,47.088L122.879,56.1L126.541,56.1L126.541,34.82L120.845,34.82L117.653,46.556C117.184,48.339 116.653,50.185 116.465,51.03L116.402,51.03C116.245,50.092 115.807,48.59 115.244,46.587L111.864,34.82L106.262,34.82L106.262,56.1L109.923,56.1L109.923,47.088C109.923,43.113 109.799,40.453 109.735,39.452L109.799,39.452C109.799,39.452 110.143,40.985 110.769,43.176L114.494,56.1L118.248,56.1Z" style="fill:rgb(35,31,32);fill-rule:nonzero;"/>
            <path d="M41.223,64.079L41.223,60.73L24.172,60.73L24.172,82.01L27.928,82.01L27.928,72.966L39.898,72.966L39.898,69.618L27.928,69.618L27.928,64.079L41.223,64.079Z" style="fill:rgb(35,31,32);fill-rule:nonzero;"/>
            <path d="M83.07,67.145C83.07,64.548 81.912,62.795 80.034,61.7C78.407,60.761 76.498,60.73 74.683,60.73L66.891,60.73L66.891,82.01L70.646,82.01L70.646,73.498L74.496,73.498L79.44,82.01L83.915,82.01L78.595,73.123C79.096,72.935 79.753,72.684 80.253,72.372C81.975,71.213 83.07,69.492 83.07,67.145ZM79.189,67.051C79.189,68.209 78.627,69.274 77.687,69.711C77.031,69.993 76.217,70.118 74.683,70.118L70.646,70.118L70.646,64.047L74.683,64.047C76.217,64.047 77.031,64.172 77.687,64.454C78.627,64.861 79.189,65.894 79.189,67.051Z" style="fill:rgb(35,31,32);fill-rule:nonzero;"/>
            <path d="M53.527,37.983C49.453,37.983 46.138,41.298 46.138,45.372C46.138,49.446 49.453,52.76 53.527,52.76C57.601,52.76 60.915,49.446 60.915,45.372C60.915,41.298 57.601,37.983 53.527,37.983ZM53.527,56.387C47.453,56.387 42.512,51.445 42.512,45.372C42.512,39.298 47.453,34.357 53.527,34.357C59.6,34.357 64.542,39.298 64.542,45.372C64.542,51.445 59.6,56.387 53.527,56.387Z" style="fill:rgb(35,31,32);fill-rule:nonzero;"/>
            <path d="M53.527,64.05C49.453,64.05 46.138,67.365 46.138,71.439C46.138,75.513 49.453,78.827 53.527,78.827C57.601,78.827 60.915,75.513 60.915,71.439C60.915,67.365 57.601,64.05 53.527,64.05ZM53.527,82.454C47.453,82.454 42.512,77.513 42.512,71.439C42.512,65.365 47.453,60.424 53.527,60.424C59.6,60.424 64.542,65.365 64.542,71.439C64.542,77.513 59.6,82.454 53.527,82.454Z" style="fill:rgb(35,31,32);fill-rule:nonzero;"/>
        </g>
    </g>
</svg>
