<?xml version="1.0" encoding="UTF-8" standalone="no"?>
<!DOCTYPE svg PUBLIC "-//W3C//DTD SVG 1.1//EN" "http://www.w3.org/Graphics/SVG/1.1/DTD/svg11.dtd">
<svg width="100%" height="100%" viewBox="0 0 78 114" version="1.1" xmlns="http://www.w3.org/2000/svg" xmlns:xlink="http://www.w3.org/1999/xlink" xml:space="preserve" style="fill-rule:evenodd;clip-rule:evenodd;stroke-linejoin:round;stroke-miterlimit:1.41421;">
    <g id="_-Sabine-Heydenbluth-" transform="matrix(0.672632,0,0,0.672632,-430.175,-571.744)">
        <path d="M704.275,988.582C704.275,989.823 703.819,990.806 702.907,991.532C701.995,992.257 700.783,992.62 699.27,992.62C697.453,992.62 696.059,992.42 695.089,992.02L695.089,990.982C696.161,991.437 697.527,991.664 699.189,991.664C700.41,991.664 701.378,991.384 702.093,990.825C702.809,990.265 703.166,989.531 703.166,988.622C703.166,988.06 703.048,987.593 702.81,987.224C702.573,986.854 702.186,986.517 701.651,986.212C701.115,985.906 700.328,985.577 699.291,985.225C697.771,984.703 696.722,984.138 696.142,983.531C695.562,982.924 695.272,982.115 695.272,981.105C695.272,979.993 695.708,979.086 696.58,978.384C697.451,977.682 698.572,977.331 699.942,977.331C701.339,977.331 702.651,977.595 703.878,978.124L703.502,979.02C702.268,978.504 701.088,978.246 699.962,978.246C698.863,978.246 697.989,978.501 697.337,979.009C696.686,979.518 696.361,980.21 696.361,981.085C696.361,981.634 696.461,982.085 696.661,982.438C696.861,982.79 697.188,983.107 697.643,983.389C698.097,983.67 698.877,984.007 699.982,984.401C701.142,984.801 702.013,985.189 702.597,985.566C703.18,985.942 703.605,986.369 703.873,986.847C704.141,987.325 704.275,987.904 704.275,988.582Z" style="fill:black;fill-rule:nonzero;"/>
        <path d="M713.461,992.417L713.207,990.667L713.126,990.667C712.57,991.379 711.998,991.883 711.412,992.178C710.825,992.473 710.132,992.62 709.331,992.62C708.246,992.62 707.402,992.342 706.798,991.786C706.195,991.23 705.893,990.46 705.893,989.477C705.893,988.399 706.342,987.561 707.241,986.964C708.139,986.368 709.44,986.052 711.142,986.018L713.248,985.957L713.248,985.225C713.248,984.174 713.034,983.38 712.607,982.844C712.18,982.309 711.491,982.041 710.542,982.041C709.518,982.041 708.456,982.326 707.358,982.895L706.981,982.02C708.195,981.451 709.396,981.166 710.583,981.166C711.796,981.166 712.703,981.481 713.304,982.112C713.904,982.743 714.204,983.726 714.204,985.062L714.204,992.417L713.461,992.417ZM709.392,991.705C710.572,991.705 711.503,991.367 712.185,990.693C712.866,990.018 713.207,989.08 713.207,987.88L713.207,986.791L711.274,986.873C709.721,986.947 708.614,987.19 707.953,987.6C707.292,988.01 706.961,988.65 706.961,989.518C706.961,990.209 707.173,990.747 707.597,991.13C708.021,991.513 708.619,991.705 709.392,991.705Z" style="fill:black;fill-rule:nonzero;"/>
        <path d="M722.037,981.146C723.583,981.146 724.748,981.632 725.531,982.605C726.315,983.579 726.706,985.001 726.706,986.873C726.706,988.711 726.294,990.128 725.47,991.125C724.646,992.122 723.488,992.62 721.996,992.62C721.21,992.62 720.501,992.457 719.87,992.132C719.24,991.806 718.741,991.345 718.375,990.748L718.284,990.748L717.999,992.417L717.368,992.417L717.368,976.588L718.375,976.588L718.375,980.566C718.375,981.163 718.362,981.712 718.334,982.214L718.304,983.078L718.375,983.078C718.796,982.414 719.302,981.926 719.896,981.614C720.489,981.302 721.203,981.146 722.037,981.146ZM722.017,982.061C720.715,982.061 719.782,982.434 719.219,983.18C718.657,983.926 718.375,985.157 718.375,986.873L718.375,987.046C718.375,988.714 718.668,989.911 719.255,990.637C719.842,991.362 720.755,991.725 721.996,991.725C723.204,991.725 724.112,991.303 724.723,990.459C725.333,989.614 725.638,988.412 725.638,986.852C725.638,983.658 724.431,982.061 722.017,982.061Z" style="fill:black;fill-rule:nonzero;"/>
        <path d="M730.359,992.417L729.352,992.417L729.352,981.359L730.359,981.359L730.359,992.417ZM729.209,978.287C729.209,977.636 729.423,977.311 729.85,977.311C730.06,977.311 730.225,977.395 730.343,977.565C730.462,977.734 730.521,977.975 730.521,978.287C730.521,978.592 730.462,978.833 730.343,979.009C730.225,979.186 730.06,979.274 729.85,979.274C729.423,979.274 729.209,978.945 729.209,978.287Z" style="fill:black;fill-rule:nonzero;"/>
        <path d="M741.356,992.417L741.356,985.245C741.356,984.133 741.122,983.324 740.654,982.819C740.186,982.314 739.46,982.061 738.477,982.061C737.154,982.061 736.186,982.395 735.573,983.063C734.959,983.731 734.652,984.815 734.652,986.313L734.652,992.417L733.645,992.417L733.645,981.359L734.499,981.359L734.693,982.875L734.754,982.875C735.473,981.722 736.751,981.146 738.589,981.146C741.098,981.146 742.353,982.492 742.353,985.184L742.353,992.417L741.356,992.417Z" style="fill:black;fill-rule:nonzero;"/>
        <path d="M749.982,992.62C748.375,992.62 747.122,992.125 746.224,991.135C745.325,990.145 744.876,988.758 744.876,986.974C744.876,985.211 745.31,983.799 746.178,982.738C747.046,981.676 748.216,981.146 749.687,981.146C750.989,981.146 752.017,981.6 752.77,982.509C753.522,983.417 753.899,984.652 753.899,986.212L753.899,987.025L745.934,987.025C745.947,988.544 746.302,989.704 746.997,990.504C747.692,991.305 748.687,991.705 749.982,991.705C750.613,991.705 751.167,991.661 751.646,991.572C752.124,991.484 752.729,991.294 753.461,991.003L753.461,991.918C752.837,992.19 752.261,992.374 751.732,992.473C751.203,992.571 750.62,992.62 749.982,992.62ZM749.687,982.041C748.623,982.041 747.768,982.392 747.124,983.094C746.48,983.796 746.103,984.808 745.995,986.13L752.831,986.13C752.831,984.848 752.553,983.846 751.996,983.124C751.44,982.402 750.671,982.041 749.687,982.041Z" style="fill:black;fill-rule:nonzero;"/>
        <path d="M651.793,1013.25L650.745,1013.25L650.745,1005.94L642.058,1005.94L642.058,1013.25L641.02,1013.25L641.02,998.378L642.058,998.378L642.058,1004.98L650.745,1004.98L650.745,998.378L651.793,998.378L651.793,1013.25Z" style="fill:black;fill-rule:nonzero;"/>
        <path d="M659.799,1013.45C658.192,1013.45 656.939,1012.96 656.04,1011.97C655.142,1010.98 654.693,1009.59 654.693,1007.81C654.693,1006.05 655.127,1004.63 655.995,1003.57C656.863,1002.51 658.033,1001.98 659.504,1001.98C660.806,1001.98 661.834,1002.43 662.586,1003.34C663.339,1004.25 663.716,1005.49 663.716,1007.05L663.716,1007.86L655.751,1007.86C655.764,1009.38 656.118,1010.54 656.814,1011.34C657.509,1012.14 658.504,1012.54 659.799,1012.54C660.43,1012.54 660.984,1012.49 661.462,1012.41C661.941,1012.32 662.546,1012.13 663.278,1011.84L663.278,1012.75C662.654,1013.02 662.078,1013.21 661.549,1013.31C661.02,1013.4 660.437,1013.45 659.799,1013.45ZM659.504,1002.87C658.439,1002.87 657.585,1003.23 656.941,1003.93C656.296,1004.63 655.92,1005.64 655.812,1006.96L662.648,1006.96C662.648,1005.68 662.369,1004.68 661.813,1003.96C661.257,1003.24 660.488,1002.87 659.504,1002.87Z" style="fill:black;fill-rule:nonzero;"/>
        <path d="M664.082,1002.19L665.12,1002.19L667.46,1008.4C668.172,1010.3 668.623,1011.59 668.812,1012.25L668.874,1012.25C669.158,1011.38 669.623,1010.07 670.267,1008.34L672.607,1002.19L673.644,1002.19L668.69,1015.04C668.29,1016.09 667.955,1016.79 667.683,1017.16C667.412,1017.52 667.095,1017.8 666.732,1017.98C666.369,1018.16 665.93,1018.25 665.415,1018.25C665.028,1018.25 664.598,1018.18 664.123,1018.04L664.123,1017.17C664.516,1017.27 664.94,1017.33 665.395,1017.33C665.74,1017.33 666.046,1017.25 666.31,1017.09C666.575,1016.92 666.814,1016.67 667.027,1016.33C667.241,1015.99 667.488,1015.44 667.77,1014.7C668.051,1013.96 668.233,1013.47 668.314,1013.25L664.082,1002.19Z" style="fill:black;fill-rule:nonzero;"/>
        <path d="M679.128,1001.98C679.928,1001.98 680.62,1002.12 681.203,1002.42C681.786,1002.71 682.308,1003.21 682.77,1003.91L682.831,1003.91C682.79,1003.06 682.77,1002.22 682.77,1001.4L682.77,997.422L683.767,997.422L683.767,1013.25L683.105,1013.25L682.851,1011.56L682.77,1011.56C681.929,1012.82 680.722,1013.45 679.148,1013.45C677.622,1013.45 676.456,1012.98 675.649,1012.03C674.842,1011.08 674.438,1009.7 674.438,1007.88C674.438,1005.97 674.838,1004.5 675.639,1003.5C676.439,1002.48 677.602,1001.98 679.128,1001.98ZM679.128,1002.89C677.921,1002.89 677.014,1003.32 676.407,1004.17C675.8,1005.01 675.496,1006.25 675.496,1007.86C675.496,1010.99 676.714,1012.56 679.148,1012.56C680.396,1012.56 681.312,1012.2 681.895,1011.47C682.478,1010.74 682.77,1009.55 682.77,1007.88L682.77,1007.71C682.77,1006 682.483,1004.77 681.91,1004.02C681.337,1003.27 680.41,1002.89 679.128,1002.89Z" style="fill:black;fill-rule:nonzero;"/>
        <path d="M691.529,1013.45C689.921,1013.45 688.668,1012.96 687.77,1011.97C686.871,1010.98 686.422,1009.59 686.422,1007.81C686.422,1006.05 686.856,1004.63 687.724,1003.57C688.592,1002.51 689.762,1001.98 691.234,1001.98C692.536,1001.98 693.563,1002.43 694.316,1003.34C695.069,1004.25 695.445,1005.49 695.445,1007.05L695.445,1007.86L687.48,1007.86C687.493,1009.38 687.848,1010.54 688.543,1011.34C689.238,1012.14 690.233,1012.54 691.529,1012.54C692.159,1012.54 692.714,1012.49 693.192,1012.41C693.67,1012.32 694.275,1012.13 695.008,1011.84L695.008,1012.75C694.384,1013.02 693.807,1013.21 693.278,1013.31C692.749,1013.4 692.166,1013.45 691.529,1013.45ZM691.234,1002.87C690.169,1002.87 689.314,1003.23 688.67,1003.93C688.026,1004.63 687.649,1005.64 687.541,1006.96L694.377,1006.96C694.377,1005.68 694.099,1004.68 693.543,1003.96C692.987,1003.24 692.217,1002.87 691.234,1002.87Z" style="fill:black;fill-rule:nonzero;"/>
        <path d="M705.791,1013.25L705.791,1006.08C705.791,1004.97 705.557,1004.16 705.089,1003.65C704.621,1003.15 703.895,1002.89 702.912,1002.89C701.59,1002.89 700.621,1003.23 700.008,1003.9C699.394,1004.56 699.087,1005.65 699.087,1007.15L699.087,1013.25L698.08,1013.25L698.08,1002.19L698.935,1002.19L699.128,1003.71L699.189,1003.71C699.908,1002.56 701.186,1001.98 703.024,1001.98C705.533,1001.98 706.788,1003.33 706.788,1006.02L706.788,1013.25L705.791,1013.25Z" style="fill:black;fill-rule:nonzero;"/>
        <path d="M714.621,1001.98C716.167,1001.98 717.332,1002.47 718.115,1003.44C718.899,1004.41 719.29,1005.83 719.29,1007.71C719.29,1009.54 718.878,1010.96 718.054,1011.96C717.23,1012.96 716.072,1013.45 714.58,1013.45C713.794,1013.45 713.085,1013.29 712.454,1012.97C711.824,1012.64 711.325,1012.18 710.959,1011.58L710.867,1011.58L710.583,1013.25L709.952,1013.25L709.952,997.422L710.959,997.422L710.959,1001.4C710.959,1002 710.945,1002.55 710.918,1003.05L710.888,1003.91L710.959,1003.91C711.379,1003.25 711.886,1002.76 712.48,1002.45C713.073,1002.13 713.787,1001.98 714.621,1001.98ZM714.601,1002.89C713.299,1002.89 712.366,1003.27 711.803,1004.01C711.24,1004.76 710.959,1005.99 710.959,1007.71L710.959,1007.88C710.959,1009.55 711.252,1010.74 711.839,1011.47C712.425,1012.2 713.339,1012.56 714.58,1012.56C715.787,1012.56 716.696,1012.14 717.307,1011.29C717.917,1010.45 718.222,1009.25 718.222,1007.69C718.222,1004.49 717.015,1002.89 714.601,1002.89Z" style="fill:black;fill-rule:nonzero;"/>
        <rect x="721.935" y="997.422" width="1.007" height="15.828" style="fill:black;fill-rule:nonzero;"/>
        <path d="M727.103,1002.19L727.103,1009.35C727.103,1010.47 727.337,1011.27 727.805,1011.78C728.273,1012.28 728.999,1012.54 729.982,1012.54C731.298,1012.54 732.266,1012.21 732.887,1011.54C733.507,1010.88 733.817,1009.8 733.817,1008.3L733.817,1002.19L734.814,1002.19L734.814,1013.25L733.96,1013.25L733.777,1011.72L733.716,1011.72C732.997,1012.88 731.718,1013.45 729.881,1013.45C727.365,1013.45 726.107,1012.11 726.107,1009.42L726.107,1002.19L727.103,1002.19Z" style="fill:black;fill-rule:nonzero;"/>
        <path d="M741.02,1012.56C741.657,1012.56 742.213,1012.5 742.688,1012.4L742.688,1013.21C742.2,1013.37 741.637,1013.45 741,1013.45C740.023,1013.45 739.302,1013.19 738.838,1012.67C738.373,1012.15 738.141,1011.33 738.141,1010.21L738.141,1003.07L736.503,1003.07L736.503,1002.48L738.141,1002.02L738.65,999.517L739.169,999.517L739.169,1002.19L742.414,1002.19L742.414,1003.07L739.169,1003.07L739.169,1010.07C739.169,1010.91 739.318,1011.54 739.616,1011.95C739.915,1012.36 740.382,1012.56 741.02,1012.56Z" style="fill:black;fill-rule:nonzero;"/>
        <path d="M752.373,1013.25L752.373,1006.08C752.373,1004.97 752.139,1004.16 751.671,1003.65C751.203,1003.15 750.477,1002.89 749.494,1002.89C748.172,1002.89 747.204,1003.23 746.59,1003.9C745.976,1004.56 745.669,1005.65 745.669,1007.15L745.669,1013.25L744.662,1013.25L744.662,997.422L745.669,997.422L745.669,1002.46L745.618,1003.87L745.69,1003.87C746.103,1003.21 746.625,1002.73 747.256,1002.43C747.887,1002.13 748.67,1001.98 749.606,1001.98C752.115,1001.98 753.37,1003.33 753.37,1006.02L753.37,1013.25L752.373,1013.25Z" style="fill:black;fill-rule:nonzero;"/>
    </g>
    <g>
        <g transform="matrix(0.192346,0,0,0.192346,7.34094,-0.00903384)">
            <rect x="106.2" y="0.049" width="104.006" height="89.199" style="fill:rgb(218,25,58);fill-rule:nonzero;"/>
        </g>
        <g transform="matrix(0.192346,0,0,0.192346,7.34094,-0.00903384)">
            <rect x="0.609" y="0.047" width="105.585" height="89.201" style="fill:rgb(246,146,16);fill-rule:nonzero;"/>
        </g>
        <g transform="matrix(0.192346,0,0,0.192346,7.34094,-0.00903384)">
            <rect x="261.57" y="241.061" width="104.006" height="158.336" style="fill:rgb(218,25,58);fill-rule:nonzero;"/>
        </g>
        <g transform="matrix(0.192346,0,0,0.192346,7.34094,-0.00903384)">
            <rect x="155.979" y="241.06" width="105.585" height="158.337" style="fill:rgb(246,146,16);fill-rule:nonzero;"/>
        </g>
        <g transform="matrix(0.192346,0,0,0.192346,7.34094,-0.00903384)">
            <path d="M233.207,346.067C233.207,350.137 229.935,353.41 225.953,353.41L178.622,353.41L178.622,338.814L225.953,338.814C230.023,338.814 233.207,342.086 233.207,346.067ZM243.115,346.067C243.204,336.513 235.418,328.729 225.953,328.729L168.714,328.729L168.714,388L178.622,388L178.622,363.407L225.953,363.407C235.418,363.407 243.115,355.623 243.115,346.067Z" style="fill:rgb(218,25,58);fill-rule:nonzero;"/>
        </g>
        <g transform="matrix(0.192346,0,0,0.192346,7.34094,-0.00903384)">
            <path d="M294.074,338.763C290.004,338.763 286.82,342.037 286.82,346.019C286.82,350.086 290.093,353.361 294.074,353.361L334.15,353.361C343.618,353.361 351.4,361.058 351.314,370.612C351.314,380.166 343.618,387.95 334.15,387.95L259.009,387.95L259.009,377.954L334.15,377.954C338.13,377.954 341.405,374.681 341.405,370.612C341.405,366.631 338.218,363.358 334.15,363.358L294.074,363.358C284.607,363.358 276.912,355.572 276.912,346.019C276.822,336.464 284.607,328.678 294.074,328.678L351.314,328.678L351.314,338.763L294.074,338.763Z" style="fill:rgb(246,146,16);fill-rule:nonzero;"/>
        </g>
        <g transform="matrix(0.192346,0,0,0.192346,7.34094,-0.00903384)">
            <path d="M194.948,384.858C194.948,386.651 193.674,387.943 191.893,387.943L184.761,387.943C183.045,387.943 181.707,386.586 181.707,384.858L181.707,377.395L183.471,377.395L183.471,384.858C183.471,385.599 184.022,386.165 184.761,386.165L191.893,386.165C192.695,386.165 193.185,385.659 193.185,384.858L193.185,377.395L194.948,377.395L194.948,384.858Z" style="fill:rgb(218,25,58);fill-rule:nonzero;"/>
        </g>
        <g transform="matrix(0.192346,0,0,0.192346,7.34094,-0.00903384)">
            <path d="M208.722,387.943L199.717,379.33L199.717,387.943L197.953,387.943L197.953,377.395L200.424,377.395L209.431,386.004L209.431,377.395L211.192,377.395L211.192,387.943L208.722,387.943Z" style="fill:rgb(218,25,58);fill-rule:nonzero;"/>
        </g>
        <g transform="matrix(0.192346,0,0,0.192346,7.34094,-0.00903384)">
            <path d="M225.675,385.077C225.675,385.78 225.094,386.381 224.385,386.381L215.962,386.381L215.962,379.408L224.385,379.408C225.094,379.408 225.675,379.991 225.675,380.698L225.675,385.077ZM227.442,384.858L227.442,380.48C227.442,378.779 226.071,377.395 224.385,377.395L214.2,377.395L214.2,387.943L224.385,387.943C226.071,387.943 227.442,386.557 227.442,384.858Z" style="fill:rgb(218,25,58);fill-rule:nonzero;"/>
        </g>
        <g transform="matrix(0.192346,0,0,0.192346,7.34094,-0.00903384)">
            <path d="M164.961,413.436L157.549,413.436L157.549,417.288L155.997,417.288L155.997,408.004L164.961,408.004C166.444,408.004 167.664,409.223 167.649,410.719C167.649,412.215 166.444,413.436 164.961,413.436ZM164.961,409.584L157.549,409.584L157.549,411.87L164.961,411.87C165.585,411.87 166.098,411.358 166.098,410.719C166.098,410.096 165.599,409.584 164.961,409.584Z" style="fill:rgb(218,25,58);fill-rule:nonzero;"/>
        </g>
        <g transform="matrix(0.192346,0,0,0.192346,7.34094,-0.00903384)">
            <path d="M176.337,414.571L175.575,414.571L178.249,417.274L176.378,417.274L173.677,414.571L171.266,414.571L171.266,417.274L169.936,417.274L169.936,410.54L176.337,410.54C177.446,410.54 178.346,411.44 178.333,412.563C178.333,413.671 177.446,414.571 176.337,414.571ZM176.337,411.884L171.266,411.884L171.266,413.242L176.337,413.242C176.697,413.242 177.002,412.937 177.002,412.563C177.016,412.188 176.711,411.884 176.337,411.884Z" style="fill:rgb(218,25,58);fill-rule:nonzero;"/>
        </g>
        <g transform="matrix(0.192346,0,0,0.192346,7.34094,-0.00903384)">
            <path d="M186.909,417.288L182.475,417.288C181.297,417.288 180.453,416.442 180.453,415.265L180.453,412.563C180.453,411.426 181.339,410.54 182.475,410.54L186.909,410.54C188.059,410.54 188.932,411.413 188.932,412.563L188.932,415.265C188.932,416.47 188.115,417.288 186.909,417.288ZM187.574,412.563C187.574,412.147 187.325,411.884 186.909,411.884L182.475,411.884C182.087,411.884 181.796,412.174 181.796,412.563L181.796,415.265C181.796,415.707 182.032,415.944 182.475,415.944L186.909,415.944C187.366,415.944 187.574,415.721 187.574,415.265L187.574,412.563Z" style="fill:rgb(218,25,58);fill-rule:nonzero;"/>
        </g>
        <g transform="matrix(0.192346,0,0,0.192346,7.34094,-0.00903384)">
            <path d="M196.622,417.288L190.844,417.288L190.844,415.944L196.622,415.944C197.065,415.944 197.301,415.707 197.301,415.265L197.301,410.54L198.645,410.54L198.645,415.265C198.645,416.457 197.8,417.288 196.622,417.288Z" style="fill:rgb(218,25,58);fill-rule:nonzero;"/>
        </g>
        <g transform="matrix(0.192346,0,0,0.192346,7.34094,-0.00903384)">
            <path d="M200.571,417.288L200.571,410.54L209.051,410.54L209.051,411.884L201.915,411.884L201.915,413.242L209.051,413.242L209.051,414.585L201.915,414.585L201.915,415.944L209.051,415.944L209.051,417.288L200.571,417.288Z" style="fill:rgb(218,25,58);fill-rule:nonzero;"/>
        </g>
        <g transform="matrix(0.192346,0,0,0.192346,7.34094,-0.00903384)">
            <path d="M217.115,417.288L212.307,414.683L212.307,417.288L210.962,417.288L210.962,410.54L212.307,410.54L212.307,413.144L217.087,410.54L219.525,410.54L213.346,413.908L219.553,417.288L217.115,417.288Z" style="fill:rgb(218,25,58);fill-rule:nonzero;"/>
        </g>
        <g transform="matrix(0.192346,0,0,0.192346,7.34094,-0.00903384)">
            <path d="M226.093,411.884L226.093,417.288L224.75,417.288L224.75,411.884L221.189,411.884L221.189,410.54L229.668,410.54L229.668,411.884L226.093,411.884Z" style="fill:rgb(218,25,58);fill-rule:nonzero;"/>
        </g>
        <g transform="matrix(0.192346,0,0,0.192346,7.34094,-0.00903384)">
            <path d="M231.58,417.288L231.58,410.54L240.06,410.54L240.06,411.884L232.924,411.884L232.924,413.242L240.06,413.242L240.06,414.585L232.924,414.585L232.924,415.944L240.06,415.944L240.06,417.288L231.58,417.288Z" style="fill:rgb(218,25,58);fill-rule:nonzero;"/>
        </g>
        <g transform="matrix(0.192346,0,0,0.192346,7.34094,-0.00903384)">
            <path d="M254.443,417.288L250.008,417.288C248.873,417.288 247.985,416.402 247.985,415.265L247.985,410.54L249.33,410.54L249.33,415.265C249.33,415.653 249.621,415.944 250.008,415.944L254.443,415.944C254.872,415.944 255.107,415.694 255.107,415.265L255.107,410.54L256.465,410.54L256.465,415.265C256.465,416.429 255.607,417.288 254.443,417.288Z" style="fill:rgb(218,25,58);fill-rule:nonzero;"/>
        </g>
        <g transform="matrix(0.192346,0,0,0.192346,7.34094,-0.00903384)">
            <path d="M265.139,417.288L259.721,412.147L259.721,417.288L258.377,417.288L258.377,410.54L260.095,410.54L265.5,415.68L265.5,410.54L266.857,410.54L266.857,417.288L265.139,417.288Z" style="fill:rgb(218,25,58);fill-rule:nonzero;"/>
        </g>
        <g transform="matrix(0.192346,0,0,0.192346,7.34094,-0.00903384)">
            <path d="M275.226,417.288L268.769,417.288L268.769,410.54L275.226,410.54C276.349,410.54 277.25,411.44 277.25,412.563L277.25,415.265C277.25,416.373 276.335,417.288 275.226,417.288ZM275.89,412.563C275.89,412.188 275.599,411.884 275.226,411.884L270.113,411.884L270.113,415.944L275.226,415.93C275.599,415.93 275.89,415.639 275.89,415.265L275.89,412.563Z" style="fill:rgb(218,25,58);fill-rule:nonzero;"/>
        </g>
        <g transform="matrix(0.192346,0,0,0.192346,7.34094,-0.00903384)">
            <path d="M288.222,409.584C287.585,409.584 287.085,410.096 287.085,410.719C287.085,411.358 287.599,411.87 288.222,411.87L294.5,411.87C295.982,411.87 297.203,413.076 297.187,414.571C297.187,416.068 295.982,417.288 294.5,417.288L285.535,417.288L285.535,415.721L294.5,415.721C295.125,415.721 295.636,415.209 295.636,414.571C295.636,413.949 295.138,413.436 294.5,413.436L288.222,413.436C286.74,413.436 285.535,412.215 285.535,410.719C285.521,409.223 286.74,408.004 288.222,408.004L297.187,408.004L297.187,409.584L288.222,409.584Z" style="fill:rgb(218,25,58);fill-rule:nonzero;"/>
        </g>
        <g transform="matrix(0.192346,0,0,0.192346,7.34094,-0.00903384)">
            <path d="M299.474,417.288L299.474,410.54L307.953,410.54L307.953,411.884L300.818,411.884L300.818,413.242L307.953,413.242L307.953,414.585L300.818,414.585L300.818,415.944L307.953,415.944L307.953,417.288L299.474,417.288Z" style="fill:rgb(218,25,58);fill-rule:nonzero;"/>
        </g>
        <g transform="matrix(0.192346,0,0,0.192346,7.34094,-0.00903384)">
            <path d="M318.789,417.288L318.789,412.494L315.644,417.288L314.355,417.288L311.21,412.494L311.21,417.288L309.867,417.288L309.867,410.54L311.597,410.54L314.992,415.624L318.402,410.54L320.134,410.54L320.134,417.288L318.789,417.288Z" style="fill:rgb(218,25,58);fill-rule:nonzero;"/>
        </g>
        <g transform="matrix(0.192346,0,0,0.192346,7.34094,-0.00903384)">
            <rect x="322.06" y="410.54" width="1.344" height="6.748" style="fill:rgb(218,25,58);fill-rule:nonzero;"/>
        </g>
        <g transform="matrix(0.192346,0,0,0.192346,7.34094,-0.00903384)">
            <path d="M332.091,417.288L326.673,412.147L326.673,417.288L325.33,417.288L325.33,410.54L327.046,410.54L332.451,415.68L332.451,410.54L333.808,410.54L333.808,417.288L332.091,417.288Z" style="fill:rgb(218,25,58);fill-rule:nonzero;"/>
        </g>
        <g transform="matrix(0.192346,0,0,0.192346,7.34094,-0.00903384)">
            <path d="M343.23,417.288L342.4,415.944L337.896,415.944L337.064,417.288L335.429,417.288L339.476,410.54L340.82,410.54L344.865,417.288L343.23,417.288ZM340.154,412.313L338.742,414.585L341.568,414.585L340.154,412.313Z" style="fill:rgb(218,25,58);fill-rule:nonzero;"/>
        </g>
        <g transform="matrix(0.192346,0,0,0.192346,7.34094,-0.00903384)">
            <path d="M352.902,414.571L352.14,414.571L354.814,417.274L352.943,417.274L350.242,414.571L347.832,414.571L347.832,417.274L346.502,417.274L346.502,410.54L352.902,410.54C354.011,410.54 354.91,411.44 354.896,412.563C354.896,413.671 354.011,414.571 352.902,414.571ZM352.902,411.884L347.832,411.884L347.832,413.242L352.902,413.242C353.263,413.242 353.566,412.937 353.566,412.563C353.582,412.188 353.277,411.884 352.902,411.884Z" style="fill:rgb(218,25,58);fill-rule:nonzero;"/>
        </g>
        <g transform="matrix(0.192346,0,0,0.192346,7.34094,-0.00903384)">
            <path d="M357.017,417.288L357.017,410.54L365.498,410.54L365.498,411.884L358.361,411.884L358.361,413.242L365.498,413.242L365.498,414.585L358.361,414.585L358.361,415.944L365.498,415.944L365.498,417.288L357.017,417.288Z" style="fill:rgb(218,25,58);fill-rule:nonzero;"/>
        </g>
        <g transform="matrix(0.192346,0,0,0.192346,7.34094,-0.00903384)">
            <rect x="230.634" y="377.84" width="30.961" height="10.116" style="fill:rgb(218,25,58);fill-rule:nonzero;"/>
        </g>
    </g>
</svg>
