<?xml version="1.0" encoding="UTF-8" standalone="no"?>
<!DOCTYPE svg PUBLIC "-//W3C//DTD SVG 1.1//EN" "http://www.w3.org/Graphics/SVG/1.1/DTD/svg11.dtd">
<svg width="100%" height="100%" viewBox="0 0 2980 617" version="1.1" xmlns="http://www.w3.org/2000/svg" xmlns:xlink="http://www.w3.org/1999/xlink" xml:space="preserve" style="fill-rule:evenodd;clip-rule:evenodd;stroke-linejoin:round;stroke-miterlimit:1.41421;">
    <g transform="matrix(4.16667,0,0,4.16667,0,0)">
        <path d="M650.387,116.018L641.509,116.018L641.509,107.35L650.387,107.35L650.387,116.018ZM678.732,87.674L654.902,87.674L654.902,83.918L676.484,83.918L676.484,78.796L678.732,78.796L678.732,87.674ZM639.362,87.674L613.164,87.674L613.164,78.796L617.779,78.796L617.779,83.918L639.362,83.918L639.362,87.674Z" style="fill:rgb(255,242,0);fill-rule:nonzero;"/>
        <path d="M571.596,120.698C565.707,120.698 560.496,120.079 555.962,118.843C556.153,118.2 556.416,117.583 556.753,116.991C557.281,116.062 558.306,115.596 559.828,115.596C560.462,115.596 562.967,116.357 567.342,117.879C571.697,119.393 575.873,120.154 579.872,120.162C577.308,120.519 574.549,120.698 571.596,120.698ZM552.541,117.744C549.296,116.533 546.459,114.947 544.031,112.989C537.659,107.851 534.227,100.102 533.734,89.742L552.357,89.742C552.767,95.17 554.514,99.116 557.598,101.581C560.681,104.049 565.224,105.281 571.226,105.281C574.104,105.281 576.528,104.974 578.502,104.356C580.476,103.74 582.079,102.918 583.313,101.89C584.545,100.863 585.43,99.65 585.964,98.252C586.499,96.855 586.766,95.334 586.766,93.689C586.766,91.388 585.902,89.229 584.175,87.215C582.449,85.2 579.283,83.741 574.679,82.836L563.21,80.739C558.687,79.917 554.7,78.848 551.246,77.533C547.793,76.217 544.894,74.511 542.551,72.415C540.208,70.318 538.42,67.749 537.187,64.707C535.953,61.665 535.337,58.047 535.337,53.853C535.337,51.749 535.549,49.77 535.973,47.914C536.646,49.812 537.263,52.039 537.824,54.594L540.931,54.594L540.435,38.877C541.711,37.326 543.198,35.946 544.895,34.737C547.896,32.599 551.493,30.976 555.687,29.866C559.879,28.756 564.484,28.2 569.5,28.2C575.913,28.2 581.257,28.941 585.532,30.421C589.065,31.644 592.037,33.19 594.447,35.058C594.345,35.062 594.24,35.063 594.134,35.063C593.542,35.063 591.164,34.334 587,32.876C582.836,31.417 579.274,30.688 576.315,30.688C569.128,30.688 563.357,32.866 559.004,37.22C554.649,41.574 552.473,47.028 552.473,53.58C552.473,58.526 554.311,63.05 557.989,67.15C559.976,69.306 562.636,71.441 565.97,73.555L577.046,80.466C583.417,84.44 587.595,87.421 589.578,89.407C592.615,92.537 594.134,96.214 594.134,100.441C594.134,105.133 592.625,108.79 589.607,111.411C586.589,114.033 583.011,115.342 578.875,115.342C571.234,115.342 564.84,112.32 559.69,106.275C556.735,102.809 554.16,98.158 551.965,92.324L548.985,92.324L552.541,117.744ZM605.147,86.486C604.552,85.289 603.834,84.149 602.994,83.066C600.065,79.388 595.031,75.352 587.893,70.955L581.535,67.031C589.412,68.943 595.307,71.765 599.222,75.498C602.187,78.326 604.162,81.989 605.147,86.486ZM586.889,56.937C585.984,52.086 584.236,48.591 581.647,46.454C579.058,44.316 575.131,43.247 569.869,43.247C567.938,43.247 566.219,43.349 564.712,43.553C565.356,41.792 566.444,40.304 567.977,39.09C570.618,36.998 573.715,35.951 577.266,35.951C581.832,35.951 586.45,37.6 591.122,40.897C595.185,43.765 598.28,48.537 600.409,55.211L586.889,56.937ZM604.036,54.748L603.641,50.92C603.913,52.169 604.126,53.434 604.278,54.717L604.036,54.748Z" style="fill:rgb(47,187,237);fill-rule:nonzero;"/>
        <path d="M484.749,118.45L482.268,118.45L482.268,46.33L471.51,46.33C472.521,43.883 473.71,42.114 475.078,41.024C477.678,38.953 482.571,37.917 489.758,37.917L497.051,37.917L497.051,102.85C497.051,108.446 496.374,111.938 495.021,113.326C493.668,114.715 490.244,115.62 484.749,116.04L484.749,118.45ZM527.283,46.33L509.987,46.33L509.987,37.917L517.216,37.917C521.354,37.917 524.711,38.234 527.283,38.867L527.283,46.33ZM466.327,46.33L455.752,46.33L455.752,30.421L527.283,30.421L527.283,32.527L466.803,32.527L466.327,46.33Z" style="fill:rgb(255,242,0);fill-rule:nonzero;"/>
        <path d="M292.549,118.478L288.316,118.478L321.368,30.421L292.549,118.478ZM371.934,118.45L352.201,118.45L371.934,118.45ZM351.332,115.939L345.171,98.129L314.339,98.129L310.455,109.372C310.585,108.423 310.888,107.27 311.364,105.912C312.019,104.04 314.033,98.856 317.406,90.359L351.631,90.359L356.83,102.85C357.591,104.618 358.182,106.3 358.606,107.899C359.028,109.499 359.24,110.613 359.24,111.244C359.24,113.137 358.69,114.326 357.592,114.81C356.601,115.245 354.515,115.622 351.332,115.939ZM349.44,85.095L319.606,85.095L320.499,82.959L340.361,82.959L331.455,56.752L334.557,49.331L349.44,85.095ZM316.033,79.608L326.508,30.421L338.881,30.421L339.1,31.005L336.666,31.005L316.033,79.608Z" style="fill:rgb(236,0,140);fill-rule:nonzero;"/>
        <path d="M278.994,118.478L278.99,118.478L281.361,102.787L277.947,102.787C279.101,100.983 280.211,98.9 281.277,96.538L284.892,96.538L278.994,118.478ZM218.709,118.478L208.797,118.478L208.797,116.068C213.574,115.564 216.67,114.713 218.087,113.514C218.314,113.322 218.523,113.083 218.713,112.796L218.709,118.478ZM270.751,88.421L267.707,88.421C267.11,85.333 266.409,82.887 265.606,81.081L270.751,81.081L270.751,88.421ZM270.751,65.295L265.849,65.295C266.563,63.542 267.182,61.253 267.707,58.427L270.751,58.427L270.751,65.295ZM233.401,59.889L218.766,38.415L218.766,38.451C218.57,38.121 218.355,37.836 218.119,37.596C216.724,36.181 213.617,35.304 208.797,34.965L208.797,32.555L221.246,32.555L233.401,42.915L233.401,59.889ZM278.233,51.135L274.936,51.135C274.567,49.214 274.136,47.521 273.643,46.056L278.112,46.056L278.233,51.135Z" style="fill:rgb(255,242,0);fill-rule:nonzero;"/>
        <path d="M92.563,118.478L54.706,118.478L54.706,116.068C60.201,115.648 63.625,114.744 64.979,113.354C65.042,113.289 65.104,113.219 65.165,113.145L65.165,118.45L83.665,118.45L83.665,114.465C85.528,115.243 88.494,115.777 92.563,116.068L92.563,118.478ZM110.889,54.623L107.782,54.623C107.051,51.29 106.224,48.516 105.302,46.302L109.257,46.302L109.257,32.555L110.192,32.555L110.889,54.623ZM39.17,54.623L36,54.623L36.761,32.555L38.649,32.555L38.649,46.302L41.49,46.302C40.57,48.516 39.796,51.289 39.17,54.623ZM83.665,47.256L83.665,46.302L84.024,46.302L83.665,47.256Z" style="fill:rgb(47,187,237);fill-rule:nonzero;"/>
        <path d="M449.375,118.45L431.95,118.45L417.15,83.288L414.067,83.288L411.191,83.288L411.191,78.754L416.89,78.437L449.375,118.45ZM386.841,118.45L383.277,118.45L383.277,116.04C382.742,115.966 382.234,115.881 381.754,115.785L381.754,28.283L412.956,28.283C419.863,28.283 425.557,29.085 430.038,30.688C432.627,31.615 434.893,32.706 436.837,33.961C432.784,33.005 428.103,32.527 422.795,32.527L407.809,32.527L386.841,32.527L386.841,34.937C391.533,35.317 394.566,36.216 395.94,37.632C397.313,39.048 398.001,42.039 398.001,46.604L398.001,102.85C398.001,108.236 397.388,111.665 396.162,113.137C394.936,114.609 391.828,115.577 386.841,116.04L386.841,118.45ZM433.936,79.001L432.244,76.915C434.785,76.529 437.14,75.997 439.308,75.319C437.761,76.646 435.966,77.863 433.923,78.971L433.936,79.001ZM411.191,73.935L411.191,67.995L414.19,67.995C417.067,67.995 419.452,67.688 421.343,67.07C423.234,66.454 424.734,65.591 425.844,64.481C426.955,63.37 427.715,62.035 428.126,60.473C428.537,58.911 428.743,57.183 428.743,55.292C428.743,53.73 428.496,52.23 428.003,50.79C427.51,49.352 426.667,48.078 425.474,46.967C424.282,45.858 422.638,44.995 420.541,44.378C418.445,43.761 415.793,43.452 412.587,43.452L411.191,43.452L411.191,41.968C411.191,40.026 411.603,38.792 412.427,38.265C413.252,37.738 415.503,37.473 419.181,37.473C424.634,37.473 429.01,38.212 432.307,39.689C438.479,42.431 441.565,47.558 441.565,55.068C441.565,62.875 438.119,68.191 431.229,71.018C427.212,72.625 420.533,73.597 411.191,73.935Z" style="fill:rgb(255,242,0);fill-rule:nonzero;"/>
        <path d="M250.485,113.405C242.355,113.405 237.475,113.173 235.845,112.707C234.216,112.243 233.401,110.721 233.401,108.142L233.401,75.992L253.439,75.992C258.933,75.992 262.444,76.807 263.966,78.434C264.553,79.062 265.1,79.945 265.606,81.081L237.086,81.081L237.086,102.787L277.947,102.787C275.489,106.633 272.833,109.21 269.98,110.52C265.789,112.444 259.29,113.405 250.485,113.405ZM218.713,112.796L218.766,38.451C219.73,40.076 220.212,42.804 220.212,46.633L220.212,104.4C220.212,108.497 219.712,111.295 218.713,112.796ZM276.305,81.081L270.751,81.081L270.751,65.295L276.305,65.295L276.305,81.081ZM253.439,70.856L233.401,70.856L233.401,59.889L237.086,65.295L265.849,65.295C265.298,66.648 264.692,67.681 264.029,68.396C262.507,70.037 258.976,70.856 253.439,70.856Z" style="fill:rgb(47,187,237);fill-rule:nonzero;"/>
        <path d="M278.99,118.478L218.709,118.478L218.713,112.796C219.712,111.295 220.212,108.497 220.212,104.4L220.212,46.633C220.212,42.804 219.73,40.076 218.766,38.451L218.766,38.415L233.401,59.889L233.401,70.856L253.439,70.856C258.976,70.856 262.507,70.037 264.029,68.396C264.692,67.681 265.298,66.648 265.849,65.295L270.751,65.295L270.751,81.081L265.606,81.081C265.1,79.945 264.553,79.062 263.966,78.434C262.444,76.807 258.933,75.992 253.439,75.992L233.401,75.992L233.401,108.142C233.401,110.721 234.216,112.243 235.845,112.707C237.475,113.173 242.355,113.405 250.485,113.405C259.29,113.405 265.789,112.444 269.98,110.52C272.833,109.21 275.489,106.633 277.947,102.787L281.361,102.787L278.99,118.478Z" style="fill:rgb(102,180,69);fill-rule:nonzero;"/>
        <path d="M278.771,46.056L278.112,46.056L277.789,32.555L221.246,32.555L218.709,30.393L278.771,30.393L278.771,46.056ZM273.643,46.056L237.086,46.056L233.401,42.915L233.401,41.877C233.401,40.186 233.623,39.034 234.069,38.421C234.514,37.808 235.69,37.501 237.598,37.501L255.278,37.501C262.888,37.501 267.791,38.344 269.99,40.026C271.45,41.144 272.668,43.154 273.643,46.056Z" style="fill:rgb(47,187,237);fill-rule:nonzero;"/>
        <path d="M278.112,46.056L273.643,46.056C272.668,43.154 271.45,41.144 269.99,40.026C267.791,38.344 262.888,37.501 255.278,37.501L237.598,37.501C235.69,37.501 234.514,37.808 234.069,38.421C233.623,39.034 233.401,40.186 233.401,41.877L233.401,42.915L221.246,32.555L277.789,32.555L278.112,46.056Z" style="fill:rgb(102,180,69);fill-rule:nonzero;"/>
        <path d="M83.665,114.465C83.108,114.233 82.65,113.979 82.29,113.703C80.726,112.505 79.944,109.404 79.944,104.4L79.944,57.131L83.665,47.256L83.665,114.465ZM65.165,113.145L65.165,46.302L41.49,46.302C42.496,43.884 43.678,42.134 45.036,41.052C47.636,38.982 52.528,37.945 59.716,37.945L67.008,37.945L67.008,102.879C67.008,108.211 66.393,111.633 65.165,113.145ZM105.302,46.302L84.024,46.302L87.173,37.945C94.697,37.945 99.633,38.992 101.98,41.084C103.198,42.171 104.306,43.91 105.302,46.302ZM109.257,32.555L38.649,32.555L38.649,30.393L109.257,30.393L109.257,32.555Z" style="fill:rgb(255,242,0);fill-rule:nonzero;"/>
        <path d="M83.665,118.45L65.165,118.45L65.165,113.145C66.393,111.633 67.008,108.211 67.008,102.879L67.008,37.945L59.716,37.945C52.528,37.945 47.636,38.982 45.036,41.052C43.678,42.134 42.496,43.884 41.49,46.302L38.649,46.302L38.649,32.555L109.257,32.555L109.257,46.302L105.302,46.302C104.306,43.91 103.198,42.171 101.98,41.084C99.633,38.992 94.697,37.945 87.173,37.945L84.024,46.302L83.665,46.302L83.665,47.256L79.944,57.131L79.944,104.4C79.944,109.404 80.726,112.505 82.29,113.703C82.65,113.979 83.108,114.233 83.665,114.465L83.665,118.45Z" style="fill:rgb(102,180,69);fill-rule:nonzero;"/>
        <path d="M312.127,118.45L293.872,118.45L293.872,116.04C297.211,115.664 299.354,114.407 301.025,112.271C302.694,110.135 305.557,104.29 309.611,94.737L316.033,79.608L308.474,115.105L310.455,109.372C310.406,109.731 310.381,110.06 310.381,110.361C310.381,112.548 311.268,114.063 313.042,114.905C314.139,115.41 316.206,115.788 319.244,116.04L312.127,118.45ZM383.277,118.45L371.934,118.45L339.1,31.005L339.252,31.005L371.609,104.628C373.765,109.505 375.487,112.521 376.777,113.676C377.84,114.629 379.499,115.332 381.754,115.785L381.754,118.45L383.277,118.45ZM352.201,118.45L350.252,118.45L350.252,116.04C350.625,116.007 350.985,115.973 351.332,115.939L352.201,118.45ZM320.499,82.959L319.026,82.959L329.632,51.387L331.455,56.752L320.499,82.959Z" style="fill:rgb(47,187,237);fill-rule:nonzero;"/>
        <path d="M371.934,118.45L352.201,118.45L351.332,115.939C354.515,115.622 356.601,115.245 357.592,114.81C358.69,114.326 359.24,113.137 359.24,111.244C359.24,110.613 359.028,109.499 358.606,107.899C358.182,106.3 357.591,104.618 356.83,102.85L351.631,90.359L317.406,90.359C314.033,98.856 312.019,104.04 311.364,105.912C310.888,107.27 310.585,108.423 310.455,109.372L308.474,115.105L316.033,79.608L336.666,31.005L339.1,31.005L371.934,118.45ZM320.499,82.959L319.606,85.095L349.44,85.095L334.557,49.331L331.455,56.752L329.632,51.387L319.026,82.959L320.499,82.959Z" style="fill:rgb(121,42,144);fill-rule:nonzero;"/>
        <path d="M383.277,118.45L381.754,118.45L381.754,115.785C382.234,115.881 382.742,115.966 383.277,116.04L383.277,118.45Z" style="fill:rgb(102,180,69);fill-rule:nonzero;"/>
        <path d="M470.291,118.45L449.375,118.45L451.806,118.45L433.936,79.001L459.003,109.875C460.652,111.889 462.301,113.357 463.95,114.279C465.598,115.202 467.712,115.788 470.291,116.04L470.291,118.45ZM422.922,118.45L386.841,118.45L399.884,118.45L399.884,83.288L411.191,83.288L411.191,104.349C411.191,109.153 411.92,112.197 413.378,113.481C414.837,114.766 418.017,115.619 422.922,116.04L422.922,118.45ZM439.308,75.319C441.434,73.496 443.093,71.466 444.283,69.229C446.338,65.364 447.366,60.596 447.366,54.922C447.366,51.88 446.872,48.776 445.886,45.61C444.899,42.445 443.131,39.568 440.582,36.977C439.506,35.884 438.258,34.879 436.837,33.961C438.498,34.353 440.052,34.825 441.502,35.377C450.971,38.965 455.706,45.571 455.706,55.196C455.706,61.655 453.602,66.615 449.396,70.077C446.668,72.322 443.306,74.069 439.308,75.319ZM411.191,67.995L399.884,67.995L399.884,43.452L411.191,43.452L411.191,67.995Z" style="fill:rgb(47,187,237);fill-rule:nonzero;"/>
        <path d="M451.806,118.45L449.375,118.45L416.89,78.437L411.191,78.754L411.191,83.288L399.884,83.288L399.884,118.45L386.841,118.45L386.841,116.04C391.828,115.577 394.936,114.609 396.162,113.137C397.388,111.665 398.001,108.236 398.001,102.85L398.001,46.604C398.001,42.039 397.313,39.048 395.94,37.632C394.566,36.216 391.533,35.317 386.841,34.937L386.841,32.527L422.795,32.527C428.103,32.527 432.784,33.005 436.837,33.961C438.258,34.879 439.506,35.884 440.582,36.977C443.131,39.568 444.899,42.445 445.886,45.61C446.872,48.776 447.366,51.88 447.366,54.922C447.366,60.596 446.338,65.364 444.283,69.229C443.093,71.466 441.434,73.496 439.308,75.319C437.14,75.997 434.785,76.529 432.244,76.915L433.936,79.001L451.806,118.45ZM411.191,67.995L411.191,73.935C420.533,73.597 427.212,72.625 431.229,71.018C438.119,68.191 441.565,62.875 441.565,55.068C441.565,47.558 438.479,42.431 432.307,39.689C429.01,38.212 424.634,37.473 419.181,37.473C415.503,37.473 413.252,37.738 412.427,38.265C411.603,38.792 411.191,40.026 411.191,41.968L411.191,43.452L399.884,43.452L399.884,67.995L411.191,67.995Z" style="fill:rgb(102,180,69);fill-rule:nonzero;"/>
        <path d="M522.604,118.45L484.749,118.45L500.768,118.45L500.768,46.33L509.987,46.33L509.987,104.372C509.987,109.376 510.768,112.477 512.333,113.675C513.896,114.874 517.32,115.661 522.604,116.04L522.604,118.45ZM469.213,54.594L466.042,54.594L466.327,46.33L471.51,46.33C470.599,48.535 469.833,51.289 469.213,54.594ZM535.973,47.914C534.821,44.663 533.504,42.377 532.022,41.056C530.967,40.115 529.387,39.385 527.283,38.867L527.283,32.527L540.234,32.527L540.435,38.877C539.454,40.068 538.598,41.361 537.865,42.754C537.025,44.352 536.395,46.072 535.973,47.914Z" style="fill:rgb(236,0,140);fill-rule:nonzero;"/>
        <path d="M540.931,54.594L537.824,54.594C537.263,52.039 536.646,49.812 535.973,47.914C536.395,46.072 537.025,44.352 537.865,42.754C538.598,41.361 539.454,40.068 540.435,38.877L540.931,54.594Z" style="fill:rgb(121,42,144);fill-rule:nonzero;"/>
        <path d="M500.768,118.45L484.749,118.45L484.749,116.04C490.244,115.62 493.668,114.715 495.021,113.326C496.374,111.938 497.051,108.446 497.051,102.85L497.051,37.917L489.758,37.917C482.571,37.917 477.678,38.953 475.078,41.024C473.71,42.114 472.521,43.883 471.51,46.33L466.327,46.33L466.803,32.527L527.283,32.527L527.283,38.867C524.711,38.234 521.354,37.917 517.216,37.917L509.987,37.917L509.987,46.33L500.768,46.33L500.768,118.45Z" style="fill:rgb(237,28,36);fill-rule:nonzero;"/>
        <path d="M579.93,120.162C579.91,120.162 579.891,120.162 579.872,120.162C582.304,119.823 584.561,119.323 586.642,118.663C590.918,117.306 594.474,115.416 597.311,112.99C600.147,110.565 602.285,107.729 603.723,104.481C605.162,101.232 605.882,97.677 605.882,93.813C605.882,91.164 605.637,88.722 605.147,86.486C606.598,89.403 607.324,92.659 607.324,96.256C607.324,103.062 604.756,108.748 599.619,113.313C594.483,117.879 587.92,120.162 579.93,120.162ZM555.707,119.972L552.853,119.972L552.541,117.744C553.635,118.153 554.775,118.519 555.962,118.843C555.853,119.211 555.768,119.587 555.707,119.972ZM581.535,67.031C580.478,66.774 579.385,66.534 578.256,66.31L566.17,63.966C561.729,63.062 558.585,61.788 556.735,60.143C554.885,58.499 553.96,56.033 553.96,52.744C553.96,51.511 554.207,50.319 554.7,49.167C555.193,48.017 556.057,47.01 557.29,46.146C558.523,45.282 560.147,44.583 562.161,44.049C562.93,43.845 563.781,43.679 564.712,43.553C564.246,44.829 564.013,46.247 564.013,47.809C564.013,51.149 565.026,54.003 567.051,56.37C569.075,58.78 572.221,61.295 576.488,63.916L581.535,67.031ZM604.407,58.336L601.299,58.336C601.024,57.251 600.727,56.21 600.409,55.211L604.036,54.748L604.407,58.336ZM603.641,50.92C603.181,48.807 602.551,46.743 601.75,44.727C600.476,41.52 598.523,38.705 595.892,36.279C595.435,35.858 594.953,35.451 594.447,35.058C595.885,35.011 596.891,34.633 597.463,33.922C598.075,33.161 598.551,32.083 598.89,30.688L601.553,30.688L603.641,50.92Z" style="fill:rgb(236,0,140);fill-rule:nonzero;"/>
        <path d="M579.872,120.162C575.873,120.154 571.697,119.393 567.342,117.879C562.967,116.357 560.462,115.596 559.828,115.596C558.306,115.596 557.281,116.062 556.753,116.991C556.416,117.583 556.153,118.2 555.962,118.843C554.775,118.519 553.635,118.153 552.541,117.744L548.985,92.324L551.965,92.324C554.16,98.158 556.735,102.809 559.69,106.275C564.84,112.32 571.234,115.342 578.875,115.342C583.011,115.342 586.589,114.033 589.607,111.411C592.625,108.79 594.134,105.133 594.134,100.441C594.134,96.214 592.615,92.537 589.578,89.407C587.595,87.421 583.417,84.44 577.046,80.466L565.97,73.555C562.636,71.441 559.976,69.306 557.989,67.15C554.311,63.05 552.473,58.526 552.473,53.58C552.473,47.028 554.649,41.574 559.004,37.22C563.357,32.866 569.128,30.688 576.315,30.688C579.274,30.688 582.836,31.417 587,32.876C591.164,34.334 593.542,35.063 594.134,35.063C594.24,35.063 594.345,35.062 594.447,35.058C594.953,35.451 595.435,35.858 595.892,36.279C598.523,38.705 600.476,41.52 601.75,44.727C602.551,46.743 603.181,48.807 603.641,50.92L604.036,54.748L600.409,55.211C598.28,48.537 595.185,43.765 591.122,40.897C586.45,37.6 581.832,35.951 577.266,35.951C573.715,35.951 570.618,36.998 567.977,39.09C566.444,40.304 565.356,41.792 564.712,43.553C563.781,43.679 562.93,43.845 562.161,44.049C560.147,44.583 558.523,45.282 557.29,46.146C556.057,47.01 555.193,48.017 554.7,49.167C554.207,50.319 553.96,51.511 553.96,52.744C553.96,56.033 554.885,58.499 556.735,60.143C558.585,61.788 561.729,63.062 566.17,63.966L578.256,66.31C579.385,66.534 580.478,66.774 581.535,67.031L587.893,70.955C595.031,75.352 600.065,79.388 602.994,83.066C603.834,84.149 604.552,85.289 605.147,86.486C605.637,88.722 605.882,91.164 605.882,93.813C605.882,97.677 605.162,101.232 603.723,104.481C602.285,107.729 600.147,110.565 597.311,112.99C594.474,115.416 590.918,117.306 586.642,118.663C584.561,119.323 582.304,119.823 579.872,120.162Z" style="fill:rgb(121,42,144);fill-rule:nonzero;"/>
        <path d="M198.544,118.478L181.249,118.478L181.249,81.451L179.691,81.451L179.691,77.641L140.249,77.641L140.249,46.633C140.249,41.983 140.963,38.96 142.393,37.565C143.025,36.947 143.983,36.434 145.265,36.024L145.265,64.431L179.691,64.431L179.691,71.934L192.881,104.497C192.891,109.151 193.598,112.136 195.005,113.451C195.478,113.892 196.137,114.284 196.983,114.625L198.544,118.478ZM198.544,115.141C197.968,114.985 197.447,114.813 196.983,114.625L192.881,104.497C192.881,104.465 192.881,104.433 192.881,104.4L192.881,46.633C192.881,41.983 193.588,38.96 195.005,37.565C195.737,36.844 196.916,36.265 198.544,35.826L198.544,115.141ZM145.265,114.984C144.99,114.897 144.73,114.806 144.485,114.71L140.249,94.413L140.249,86.751L140.249,77.641L143.551,82.484L145.265,82.483L145.265,114.984ZM198.544,32.555L181.249,32.555L181.249,30.393L198.544,30.393L198.544,32.555ZM145.265,32.555L127.34,32.555L126.889,30.393L145.265,30.393L145.265,32.555Z" style="fill:rgb(47,187,237);fill-rule:nonzero;"/>
        <path d="M654.902,107.35L650.387,107.35L650.387,87.674L654.902,87.674L654.902,107.35ZM641.509,107.35L639.362,107.35L639.362,87.674L641.509,87.674L641.509,107.35ZM676.484,78.796L650.387,78.796L650.387,50.451L641.509,50.451L641.509,78.796L617.779,78.796L617.779,68.995L639.362,68.995L639.362,45.562L654.902,45.562L654.902,68.995L676.484,68.995L676.484,78.796Z" style="fill:rgb(47,187,237);fill-rule:nonzero;"/>
        <path d="M650.387,107.35L641.509,107.35L641.509,87.674L639.362,87.674L639.362,83.918L617.779,83.918L617.779,78.796L641.509,78.796L641.509,50.451L650.387,50.451L650.387,78.796L676.484,78.796L676.484,83.918L654.902,83.918L654.902,87.674L650.387,87.674L650.387,107.35Z" style="fill:rgb(102,180,69);fill-rule:nonzero;"/>
        <path d="M204.295,118.478L198.544,118.478L198.544,115.141C200.068,115.556 201.985,115.865 204.295,116.068L204.295,118.478ZM151.663,118.478L115.645,118.478L115.645,116.068C120.718,115.521 123.889,114.586 125.157,113.26C126.425,111.935 127.059,108.475 127.059,102.879L127.059,46.633C127.059,41.983 126.351,38.96 124.935,37.565C123.518,36.17 120.422,35.304 115.645,34.965L115.645,32.555L127.34,32.555L140.249,94.413L140.249,104.4C140.249,109.11 140.963,112.137 142.393,113.482C142.89,113.95 143.587,114.359 144.485,114.71L145.265,118.45L145.265,114.984C146.882,115.496 149.014,115.857 151.663,116.068L151.663,118.478ZM145.265,82.483L145.265,81.451L179.691,81.451L179.691,82.469L145.265,82.483ZM181.249,64.431L179.691,64.431L179.691,46.633C179.691,41.983 178.994,38.96 177.599,37.565C176.204,36.17 173.097,35.304 168.277,34.965L168.277,32.555L181.249,32.555L181.249,64.431ZM145.265,36.024L145.265,32.555L151.663,32.555L151.663,34.965C149.014,35.154 146.882,35.507 145.265,36.024ZM198.544,35.826L198.544,32.555L204.295,32.555L204.295,34.965C201.985,35.129 200.068,35.416 198.544,35.826Z" style="fill:rgb(236,0,140);fill-rule:nonzero;"/>
        <path d="M198.544,118.478L196.983,114.625C197.447,114.813 197.968,114.985 198.544,115.141L198.544,118.478ZM145.265,118.45L144.485,114.71C144.73,114.806 144.99,114.897 145.265,114.984L145.265,118.45ZM196.983,114.625C196.137,114.284 195.478,113.892 195.005,113.451C193.598,112.136 192.891,109.151 192.881,104.497L196.983,114.625ZM192.881,104.497L179.691,71.934L179.691,64.431L181.249,64.431L181.249,32.555L198.544,32.555L198.544,35.826C196.916,36.265 195.737,36.844 195.005,37.565C193.588,38.96 192.881,41.983 192.881,46.633L192.881,104.497ZM140.249,94.413L127.34,32.555L145.265,32.555L145.265,36.024C143.983,36.434 143.025,36.947 142.393,37.565C140.963,38.96 140.249,41.983 140.249,46.633L140.249,94.413ZM143.551,82.484L140.249,77.641L179.691,77.641L179.691,81.451L145.265,81.451L145.265,82.483L143.551,82.484Z" style="fill:rgb(121,42,144);fill-rule:nonzero;"/>
    </g>
</svg>
