<?xml version="1.0" encoding="UTF-8" standalone="no"?>
<!DOCTYPE svg PUBLIC "-//W3C//DTD SVG 1.1//EN" "http://www.w3.org/Graphics/SVG/1.1/DTD/svg11.dtd">
<svg width="100%" height="100%" viewBox="0 0 261 97" version="1.1" xmlns="http://www.w3.org/2000/svg" xmlns:xlink="http://www.w3.org/1999/xlink" xml:space="preserve" style="fill-rule:evenodd;clip-rule:evenodd;stroke-linejoin:round;stroke-miterlimit:1.41421;">
    <g transform="matrix(1,0,0,1,-167.23,-76.999)">
        <path d="M233.996,140.264L212.723,131.942L212.723,127.333L233.996,119.05L233.996,124.477L219.158,129.581L233.996,134.874L233.996,140.264Z" style="fill:rgb(228,123,46);fill-rule:nonzero;"/>
        <path d="M270.926,133.18L277.001,134.913C276.07,137.959 274.521,140.222 272.355,141.701C270.189,143.18 267.441,143.92 264.11,143.92C259.99,143.92 256.603,142.654 253.95,140.121C251.297,137.588 249.97,134.125 249.97,129.733C249.97,125.086 251.304,121.478 253.971,118.907C256.638,116.336 260.145,115.051 264.491,115.051C268.287,115.051 271.371,116.06 273.741,118.079C275.153,119.272 276.211,120.986 276.917,123.22L270.714,124.553C270.348,123.106 269.582,121.963 268.418,121.125C267.254,120.288 265.839,119.869 264.174,119.869C261.873,119.869 260.007,120.611 258.575,122.097C257.142,123.582 256.426,125.988 256.426,129.314C256.426,132.843 257.132,135.357 258.543,136.855C259.954,138.353 261.789,139.102 264.047,139.102C265.712,139.102 267.144,138.626 268.344,137.674C269.543,136.722 270.404,135.224 270.926,133.18Z" style="fill:rgb(228,123,46);fill-rule:nonzero;"/>
        <rect x="282.354" y="115.527" width="6.266" height="27.917" style="fill:rgb(228,123,46);fill-rule:nonzero;"/>
        <path d="M301.574,143.444L301.574,120.249L292.366,120.249L292.366,115.527L317.026,115.527L317.026,120.249L307.84,120.249L307.84,143.444L301.574,143.444Z" style="fill:rgb(228,123,46);fill-rule:nonzero;"/>
        <path d="M329.219,143.444L329.219,131.694L317.852,115.527L325.197,115.527L332.5,126.572L339.655,115.527L346.873,115.527L335.463,131.732L335.463,143.444L329.219,143.444Z" style="fill:rgb(228,123,46);fill-rule:nonzero;"/>
        <path d="M359.947,140.283L359.947,134.894L374.806,129.638L359.947,124.439L359.947,119.088L381.241,127.372L381.241,131.942L359.947,140.283Z" style="fill:rgb(228,123,46);fill-rule:nonzero;"/>
        <path d="M217.8,95.61L212.427,76.999L215.176,76.999L218.256,89.199C218.587,90.477 218.873,91.746 219.112,93.007C219.628,91.019 219.932,89.872 220.024,89.567L223.878,76.999L227.11,76.999L230.011,86.419C230.738,88.755 231.263,90.951 231.585,93.007C231.843,91.831 232.179,90.481 232.594,88.958L235.77,76.999L238.464,76.999L232.911,95.61L230.328,95.61L226.06,81.429C225.701,80.244 225.489,79.517 225.425,79.246C225.213,80.101 225.015,80.828 224.831,81.429L220.535,95.61L217.8,95.61Z" style="fill:rgb(164,167,166);fill-rule:nonzero;"/>
        <path d="M246.703,95.61L246.703,76.999L261.056,76.999L261.056,79.195L249.33,79.195L249.33,84.895L260.312,84.895L260.312,87.079L249.33,87.079L249.33,93.414L261.517,93.414L261.517,95.61L246.703,95.61Z" style="fill:rgb(164,167,166);fill-rule:nonzero;"/>
        <path d="M284.394,93.414L289.889,93.414C290.833,93.414 291.495,93.384 291.877,93.325C292.549,93.224 293.111,93.054 293.563,92.817C294.014,92.581 294.385,92.235 294.677,91.783C294.968,91.33 295.114,90.807 295.114,90.215C295.114,89.521 294.903,88.918 294.481,88.406C294.06,87.893 293.475,87.534 292.727,87.327C291.979,87.119 290.903,87.016 289.498,87.016L284.394,87.016L284.394,93.414ZM284.394,84.819L289.167,84.819C290.461,84.819 291.39,84.747 291.952,84.603C292.694,84.417 293.254,84.108 293.63,83.677C294.007,83.245 294.195,82.704 294.195,82.052C294.195,81.434 294.019,80.89 293.668,80.42C293.316,79.951 292.815,79.629 292.163,79.456C291.51,79.282 290.391,79.195 288.805,79.195L284.394,79.195L284.394,84.819ZM281.473,95.61L281.473,76.999L289.754,76.999C291.44,76.999 292.792,77.187 293.811,77.564C294.83,77.94 295.628,78.52 296.205,79.303C296.782,80.086 297.071,80.905 297.071,81.76C297.071,82.555 296.814,83.304 296.303,84.007C295.791,84.709 295.018,85.276 293.984,85.708C295.319,86.038 296.345,86.601 297.063,87.396C297.78,88.192 298.139,89.131 298.139,90.215C298.139,91.086 297.921,91.897 297.485,92.646C297.048,93.395 296.508,93.973 295.866,94.379C295.224,94.785 294.418,95.092 293.45,95.299C292.481,95.507 291.294,95.61 289.889,95.61L281.473,95.61Z" style="fill:rgb(164,167,166);fill-rule:nonzero;"/>
        <path d="M319.724,76.999L322.5,76.999L322.5,87.752C322.5,89.623 322.261,91.108 321.785,92.208C321.308,93.308 320.447,94.203 319.202,94.893C317.956,95.583 316.322,95.928 314.3,95.928C312.334,95.928 310.727,95.627 309.477,95.026C308.227,94.425 307.335,93.556 306.801,92.417C306.267,91.279 306,89.724 306,87.752L306,76.999L308.776,76.999L308.776,87.739C308.776,89.356 308.945,90.547 309.284,91.313C309.622,92.079 310.205,92.669 311.03,93.084C311.855,93.499 312.864,93.706 314.056,93.706C316.098,93.706 317.553,93.295 318.422,92.475C319.289,91.654 319.724,90.075 319.724,87.739L319.724,76.999Z" style="fill:rgb(164,167,166);fill-rule:nonzero;"/>
        <rect x="331.655" y="76.999" width="3.306" height="18.611" style="fill:rgb(164,167,166);fill-rule:nonzero;"/>
        <path d="M344.653,95.61L344.653,76.999L347.387,76.999L347.387,93.414L357.562,93.414L357.562,95.61L344.653,95.61Z" style="fill:rgb(164,167,166);fill-rule:nonzero;"/>
        <path d="M367.961,93.414L372.415,93.414C373.79,93.414 374.869,93.3 375.652,93.071C376.434,92.843 377.058,92.521 377.523,92.106C378.177,91.522 378.687,90.737 379.052,89.751C379.418,88.766 379.6,87.57 379.6,86.165C379.6,84.218 379.242,82.723 378.526,81.677C377.81,80.632 376.94,79.932 375.915,79.576C375.175,79.322 373.984,79.195 372.343,79.195L367.961,79.195L367.961,93.414ZM365.2,95.61L365.2,76.999L372.386,76.999C374.008,76.999 375.246,77.088 376.1,77.266C377.295,77.511 378.315,77.956 379.159,78.599C380.26,79.428 381.083,80.488 381.628,81.779C382.174,83.069 382.446,84.544 382.446,86.203C382.446,87.617 382.261,88.869 381.892,89.961C381.521,91.053 381.047,91.956 380.469,92.671C379.89,93.387 379.256,93.949 378.569,94.36C377.881,94.77 377.051,95.081 376.078,95.293C375.107,95.504 373.989,95.61 372.728,95.61L365.2,95.61Z" style="fill:rgb(164,167,166);fill-rule:nonzero;"/>
        <path d="M169.8,173.777L169.959,84.134" style="fill:rgb(164,167,166);fill-rule:nonzero;"/>
        <path d="M172.459,84.138L172.3,173.781L167.3,173.772L167.459,84.129L172.459,84.138Z" style="fill:rgb(164,167,166);"/>
        <path d="M167.249,171.304L427.25,171.463" style="fill:rgb(164,167,166);fill-rule:nonzero;"/>
        <path d="M427.252,168.963L427.249,173.963L167.248,173.804L167.251,168.804L427.252,168.963Z" style="fill:rgb(164,167,166);"/>
        <path d="M425.171,173.777L425.33,84.134" style="fill:rgb(164,167,166);fill-rule:nonzero;"/>
        <path d="M427.83,84.138L427.671,173.781L422.671,173.772L422.83,84.129L427.83,84.138Z" style="fill:rgb(164,167,166);"/>
        <path d="M406.833,86.304L427.375,86.463" style="fill:rgb(164,167,166);fill-rule:nonzero;"/>
        <path d="M427.395,83.963L427.356,88.963L406.814,88.804L406.853,83.804L427.395,83.963Z" style="fill:rgb(164,167,166);"/>
        <path d="M167.249,86.054L187.791,86.213" style="fill:rgb(164,167,166);fill-rule:nonzero;"/>
        <path d="M187.811,83.713L187.772,88.713L167.23,88.554L167.269,83.554L187.811,83.713Z" style="fill:rgb(164,167,166);"/>
    </g>
</svg>
