<?xml version="1.0" encoding="utf-8"?>
<!-- Generator: Adobe Illustrator 16.0.0, SVG Export Plug-In . SVG Version: 6.00 Build 0)  -->
<!DOCTYPE svg PUBLIC "-//W3C//DTD SVG 1.1//EN" "http://www.w3.org/Graphics/SVG/1.1/DTD/svg11.dtd">
<svg version="1.1" id="Ebene_1" xmlns="http://www.w3.org/2000/svg" xmlns:xlink="http://www.w3.org/1999/xlink" x="0px" y="0px"
	 width="340.16px" height="226.77px" viewBox="0 0 340.16 226.77" enable-background="new 0 0 340.16 226.77" xml:space="preserve">
<g>
	<defs>
		<rect id="SVGID_1_" x="44.997" y="44.635" width="255.026" height="136.647"/>
	</defs>
	<clipPath id="SVGID_2_">
		<use xlink:href="#SVGID_1_"  overflow="visible"/>
	</clipPath>
	<path clip-path="url(#SVGID_2_)" fill="#E94B4F" d="M216.165,174.091h7.996v-14.066l12.682-21.69h-8.422l-8.023,14.309
		l-8.172-14.309h-8.88l12.819,21.589V174.091z M202.746,138.394h-30.351v7.24h11.384v28.457h8.022v-28.457h10.944V138.394z
		 M159.294,174.091h8.02v-35.694h-8.02V174.091z M152.537,165.977l-0.17-0.115c-2.475,1.056-4.571,1.58-7.778,1.58
		c-7.635,0-11.866-4.172-11.866-11.212c0-7.175,4.256-11.326,11.685-11.326c2.974,0,5.649,0.625,8.02,1.803l0.108-0.07v-7.564
		c-3.004-0.954-5.984-1.448-9.409-1.448c-11.196,0-18.989,7.167-18.989,18.989c0,11.374,8.088,18.122,19.128,18.122
		c3.508,0,6.809-0.588,9.27-1.479V165.977z"/>
	<path clip-path="url(#SVGID_2_)" fill="#E94B4F" d="M280.496,121.614c-2.529,0.017-3.784-0.02-5.3-0.138V100.04
		c1.271-0.142,2.399-0.26,5.03-0.26c6.809,0,11.361,3.582,11.361,10.771C291.588,117.771,287.858,121.573,280.496,121.614z
		 M280.361,92.504c-6.085,0-9.959,0.287-13.173,0.503v35.598c1.759,0.067,5.628,0.087,12.431,0.087
		c12.576,0,20.403-6.495,20.403-18.267c0-11.002-7.211-17.924-19.656-17.924L280.361,92.504z M248.099,121.949V92.948h-8.022v35.697
		h22.173v-6.695H248.099z M223.317,128.642h8.018V92.948h-8.018V128.642z M199.573,129.361c9.779,0,15.472-5.449,15.472-14.951
		V92.948h-7.806v20.468c0,6.035-2.655,9.116-7.579,9.116c-4.982,0-7.579-3.007-7.579-9.116V92.948h-8.022v21.462
		c0,9.635,5.536,14.954,15.515,14.954V129.361z M164.011,122.717h-3.995v-9.537h4.042c3.632,0,5.802,1.824,5.849,4.727
		c0,3.051-1.69,4.813-5.896,4.813V122.717z M163.566,98.843c3.515,0,5.179,1.836,5.179,4.279c0,2.855-1.718,4.561-4.457,4.561
		h-4.272v-8.675C161.241,98.898,162.29,98.843,163.566,98.843z M171.782,109.409c3.015-1.518,4.653-4.052,4.653-7.485
		c0-5.088-2.99-9.432-13.797-9.432c-4.628,0-7.899,0.152-10.514,0.41v35.74h12.744c7.907,0,12.942-3.746,12.942-10.446
		C177.775,113.845,175.434,110.85,171.782,109.409z"/>
</g>
<path fill="#E94B4F" d="M186.282,76.715v-8.678h13.47v-6.312h-13.47v-7.743h14.493v-6.481h-22.511v35.694h23.031v-6.48H186.282z
	 M165.746,47.501l-6.032,21.181l-0.732,3.315l-0.77-3.32L151.134,47.8h-5.942l-7.075,21.687l-0.645,2.696l-0.511-2.703
	l-6.386-21.979h-8.683l12.07,35.901h6.281l7.315-21.456l0.543-1.99l0.499,1.997l7.316,21.449h6.098l11.609-35.901H165.746z"/>
<polygon fill="#FFFFFF" points="49.407,128.188 79.177,126.705 102.305,136.416 59.398,139.198 "/>
<polygon fill="#FAD4CB" points="93.83,136.813 59.932,128.75 59.932,92.528 93.83,94.73 "/>
<polygon fill="#E94B4F" points="59.397,139.198 59.397,181.282 102.305,176.534 102.305,136.416 "/>
<polygon fill="#FAD4CB" points="49.407,166.849 59.397,181.282 59.397,139.198 49.421,128.188 "/>
<polygon fill="#FFFFFF" points="59.931,92.528 93.829,85.205 121.128,89.336 94.238,95.056 "/>
<polygon fill="#FAD4CB" points="44.997,47.519 44.997,91.948 91.075,92.839 91.075,47.519 "/>
<polygon fill="#E94B4F" points="93.83,136.813 121.029,128.709 121.128,89.334 93.83,95.022 "/>
<polygon fill="#E94B4F" points="91.074,47.519 91.074,92.839 93.73,82.904 93.829,44.632 "/>
<polygon fill="#FFFFFF" points="52.87,44.632 44.998,47.519 91.073,47.519 93.831,44.632 "/>
</svg>
