<?xml version="1.0" encoding="UTF-8" standalone="no"?>
<!DOCTYPE svg PUBLIC "-//W3C//DTD SVG 1.1//EN" "http://www.w3.org/Graphics/SVG/1.1/DTD/svg11.dtd">
<svg width="100%" height="100%" viewBox="0 0 12609 2746" version="1.1" xmlns="http://www.w3.org/2000/svg" xmlns:xlink="http://www.w3.org/1999/xlink" xml:space="preserve" style="fill-rule:evenodd;clip-rule:evenodd;stroke-linejoin:round;stroke-miterlimit:1.41421;">
    <g transform="matrix(4.16667,0,0,4.16667,0,0)">
        <path d="M1003.33,14.592C649.832,23.825 331.625,119.008 99.426,237.288L99.426,247.739C330.688,130.162 650.398,56.022 1004.22,46.83C1363.53,37.414 1691.26,97.04 1929.36,205.669L1930.96,195.796C1691.7,86.729 1363.41,5.224 1003.33,14.592Z" style="fill:rgb(138,8,16);fill-rule:nonzero;"/>
        <path d="M1228.4,400.337C1217.93,400.337 1209.34,391.858 1209.34,381.241C1209.34,370.729 1217.93,362.145 1228.4,362.145C1238.96,362.145 1247.54,370.729 1247.54,381.241C1247.54,391.858 1238.96,400.337 1228.4,400.337Z" style="fill:rgb(35,31,32);fill-rule:nonzero;"/>
        <path d="M1516.19,492.926C1516.19,469.1 1500.74,445.879 1477.46,445.879C1465.94,445.879 1451.69,453.272 1451.69,476.893C1451.69,491.953 1457.84,504.572 1467.19,513.362C1476.47,522.274 1486.5,524.241 1493.88,525.885C1501.05,522.676 1516.19,515.228 1516.19,492.926ZM1441.36,617.335C1441.36,636.738 1468.21,641.282 1484.57,641.282C1516.8,641.282 1539.36,627.059 1539.36,608.078C1539.36,592.942 1523.29,590.625 1515.84,589.366C1510.02,588.353 1481.65,586.462 1475.23,585.755C1452.36,595.781 1441.36,604.465 1441.36,617.335ZM1434.97,560.343C1434.97,549.366 1435.21,549.366 1465.94,537.456C1458.49,535.87 1449.78,534.166 1441.12,527.837C1431.66,521.356 1422.38,509.08 1422.38,489.737C1422.38,455.257 1452.36,432.97 1487.45,432.97C1495.57,432.97 1505.82,433.95 1517.77,439.145C1530.7,437.519 1543.89,436.547 1556.8,436.547C1567.82,436.547 1568.04,436.547 1568.04,445.879C1568.04,455.257 1567.82,456.477 1561.93,456.477C1549.08,456.477 1545.23,456.477 1536.2,456.922C1539.73,461.026 1545.23,468.161 1545.23,482.981C1545.23,505.203 1528.79,526.818 1488.81,538.754C1480.45,541.332 1465.25,545.53 1463.32,546.788C1462.02,547.394 1461.37,548.699 1461.37,550.724C1461.37,560.996 1476.86,561.607 1505.82,563.267C1528.1,564.2 1565.2,566.471 1565.2,598.337C1565.2,631.624 1517.77,659 1469.71,659C1452.58,659 1422.69,653.824 1417.25,639.316C1416.23,637.384 1415.28,634.179 1415.28,621.883C1415.28,611.287 1415.28,607.023 1424.29,600.935C1437.2,592.229 1451.69,586.462 1460.42,582.505C1438.86,578.693 1434.97,567.166 1434.97,560.343Z" style="fill:rgb(35,31,32);fill-rule:nonzero;"/>
        <path d="M1653.07,484.299C1663.41,481.642 1664.36,478.744 1664.36,475.534C1664.36,464.21 1653.77,446.491 1637.92,446.491C1624.69,446.491 1611.48,459.115 1611.19,493.614C1627.65,490.693 1637,488.462 1653.07,484.299ZM1695.94,541.919L1697.24,546.788C1697.89,549.366 1697.89,549.366 1697.89,550.017C1697.89,553.854 1670.21,575.809 1636.35,575.809C1589.94,575.809 1579.2,536.783 1579.2,511.296C1579.2,461.391 1614.11,432.97 1646.63,432.97C1672.72,432.97 1690.78,450.103 1695.33,467.801C1696.9,474.577 1697.24,475.188 1699.17,475.838C1701.36,476.528 1701.36,478.112 1701.36,483.242C1701.36,488.462 1700.81,488.749 1692.71,490.068C1661.44,494.918 1642.77,498.408 1611.82,504.572C1612.81,515.228 1617.03,554.862 1655.71,554.862C1659.17,554.862 1676.58,554.862 1694.05,541.919L1695.94,541.919Z" style="fill:rgb(35,31,32);fill-rule:nonzero;"/>
        <path d="M1770.73,575.809C1762.41,575.809 1753.98,574.797 1747.17,573.904C1740.55,572.931 1734.97,571.874 1732.35,571.874C1730.38,571.874 1728.9,572.259 1726.91,572.259C1724.64,572.259 1724.64,570.614 1724.64,550.017C1724.64,542.319 1723.38,536.157 1723.38,531.933C1723.38,528.422 1727.86,528.015 1730.79,528.015C1733.04,528.015 1733.41,529.089 1734.97,533.864C1743.73,562.906 1768.5,563.574 1774.65,563.574C1795.85,563.574 1798.17,548.106 1798.17,543.257C1798.17,531.04 1788.21,524.587 1762.71,512.65C1747.92,505.508 1727.58,495.83 1727.58,472.917C1727.58,458.467 1737.89,432.97 1782.03,432.97C1793.28,432.97 1809.09,435.609 1810.71,435.609C1811.69,435.609 1814.24,434.966 1815.9,434.966C1818.14,434.966 1818.14,435.609 1818.81,441.722C1819.42,446.246 1821.37,464.616 1821.37,469.36C1821.37,471.984 1821.06,473.283 1813.61,473.283C1812.03,473.283 1811.46,472.917 1809.49,469.1C1802.65,454.3 1793.09,445.232 1776.96,445.232C1757.82,445.232 1755.61,458.789 1755.61,463.538C1755.61,473.95 1762.71,480.403 1784.67,490.068C1806.21,499.707 1828.77,509.646 1828.77,534.897C1828.77,562.253 1803,575.809 1770.73,575.809Z" style="fill:rgb(35,31,32);fill-rule:nonzero;"/>
        <path d="M1927.42,484.299C1937.76,481.642 1938.67,478.744 1938.67,475.534C1938.67,464.21 1928.02,446.491 1912.29,446.491C1899.16,446.491 1885.84,459.115 1885.55,493.614C1902,490.693 1911.44,488.462 1927.42,484.299ZM1970.35,541.919L1971.61,546.788C1972.27,549.366 1972.27,549.366 1972.27,550.017C1972.27,553.854 1944.52,575.809 1910.6,575.809C1864.22,575.809 1853.65,536.783 1853.65,511.296C1853.65,461.391 1888.4,432.97 1920.94,432.97C1947.09,432.97 1965.17,450.103 1969.68,467.801C1971.2,474.577 1971.61,475.188 1973.58,475.838C1975.88,476.528 1975.88,478.112 1975.88,483.242C1975.88,488.462 1975.16,488.749 1967.08,490.068C1935.85,494.918 1917.18,498.408 1886.21,504.572C1887.16,515.228 1891.33,554.862 1930.05,554.862C1933.54,554.862 1951.01,554.862 1968.38,541.919L1970.35,541.919Z" style="fill:rgb(35,31,32);fill-rule:nonzero;"/>
        <path d="M2013.52,376.919C2011.63,369.165 2007.72,368.843 1995.17,367.216C1992.6,366.976 1991.91,366.976 1991.91,363.402C1991.91,359.159 1992.6,358.838 1998.32,357.235C2024.52,348.891 2039.33,343.999 2046.74,343.999C2048.67,343.999 2049.95,345.297 2049.95,347.532C2049.95,351.143 2049.01,356.541 2048.67,359.83C2047.33,375.944 2047.03,389.745 2047.03,412.355C2047.03,417.204 2046.74,443.002 2046.74,466.22C2046.74,550.318 2048.04,552.59 2050.31,556.186C2053.14,561.301 2059.63,561.642 2072.52,562.906C2075.74,562.906 2076.42,563.574 2076.42,567.166C2076.42,572.259 2075.36,572.525 2071.56,572.525C2062.21,572.525 2047.68,572.259 2030.32,572.259C2015.1,572.259 2000.96,572.525 1994.5,572.525C1991.6,572.525 1990.59,571.593 1990.59,567.405C1990.59,563.267 1991.24,563.267 1996.47,562.596C2009.56,560.71 2013.52,555.474 2014.17,541.613C2015.47,519.757 2015.83,491.34 2015.83,450.423C2015.83,404.355 2015.83,384.592 2013.52,376.919Z" style="fill:rgb(35,31,32);fill-rule:nonzero;"/>
        <path d="M2108.99,376.919C2107.02,369.165 2103.18,368.843 2090.62,367.216C2088.04,366.976 2087.35,366.976 2087.35,363.402C2087.35,359.159 2088.04,358.838 2093.83,357.235C2119.87,348.891 2134.72,343.999 2142.27,343.999C2144.14,343.999 2145.35,345.297 2145.35,347.532C2145.35,351.143 2144.44,356.541 2144.14,359.83C2142.82,375.944 2142.44,389.745 2142.44,412.355C2142.44,417.204 2142.27,443.002 2142.27,466.22C2142.27,550.318 2143.49,552.59 2145.7,556.186C2148.56,561.301 2155.1,561.642 2167.88,562.906C2171.11,562.906 2171.86,563.574 2171.86,567.166C2171.86,572.259 2170.83,572.525 2166.99,572.525C2157.66,572.525 2143.15,572.259 2125.77,572.259C2110.59,572.259 2096.32,572.525 2090.01,572.525C2087.09,572.525 2086.13,571.593 2086.13,567.405C2086.13,563.267 2086.68,563.267 2091.86,562.596C2105.05,560.71 2108.99,555.474 2109.58,541.613C2110.9,519.757 2111.24,491.34 2111.24,450.423C2111.24,404.355 2111.24,384.592 2108.99,376.919Z" style="fill:rgb(35,31,32);fill-rule:nonzero;"/>
        <path d="M2236,575.809C2227.59,575.809 2219.26,574.797 2212.48,573.904C2205.63,572.931 2200.2,571.874 2197.58,571.874C2195.65,571.874 2194.06,572.259 2192.13,572.259C2189.86,572.259 2189.86,570.614 2189.86,550.017C2189.86,542.319 2188.66,536.157 2188.66,531.933C2188.66,528.422 2193.13,528.015 2196.03,528.015C2198.23,528.015 2198.69,529.089 2200.2,533.864C2208.98,562.906 2233.7,563.574 2239.83,563.574C2261.12,563.574 2263.43,548.106 2263.43,543.257C2263.43,531.04 2253.41,524.587 2227.94,512.65C2213.12,505.508 2192.79,495.83 2192.79,472.917C2192.79,458.467 2203.1,432.97 2247.3,432.97C2258.62,432.97 2274.39,435.609 2275.94,435.609C2276.93,435.609 2279.45,434.966 2281.15,434.966C2283.28,434.966 2283.28,435.609 2284.03,441.722C2284.66,446.246 2286.55,464.616 2286.55,469.36C2286.55,471.984 2286.29,473.283 2278.85,473.283C2277.17,473.283 2276.63,472.917 2274.68,469.1C2267.92,454.3 2258.26,445.232 2242.06,445.232C2223.12,445.232 2220.85,458.789 2220.85,463.538C2220.85,473.95 2227.94,480.403 2249.86,490.068C2271.41,499.707 2294,509.646 2294,534.897C2294,562.253 2268.2,575.809 2236,575.809Z" style="fill:rgb(35,31,32);fill-rule:nonzero;"/>
        <path d="M2432.92,541.332L2435.54,547.394C2436.51,549.366 2436.82,549.366 2436.82,550.017C2436.82,553.543 2409.44,575.809 2377.84,575.809C2336.82,575.809 2318.82,544.516 2318.82,513.362C2318.82,470.078 2352.67,432.97 2399.39,432.97C2419.74,432.97 2437.81,439.731 2437.81,450.996C2437.81,459.115 2425.53,467.173 2420.66,467.173C2418.4,467.173 2417.21,466.522 2412.91,463.538C2402,455.257 2388.82,453.633 2381.02,453.633C2352.67,453.633 2351.79,488.073 2351.79,498.123C2351.79,515.861 2357.81,553.854 2394.64,553.854C2398.09,553.854 2415.52,553.854 2430.71,541.332L2432.92,541.332Z" style="fill:rgb(35,31,32);fill-rule:nonzero;"/>
        <path d="M2479.64,379.189C2478.09,367.866 2472.25,367.561 2462.57,366.572C2459.73,366.572 2459.02,366.286 2459.02,363.079C2459.02,358.169 2459.73,358.169 2464.9,356.338C2478.42,351.795 2504.86,343.675 2509.03,343.675C2514.79,343.675 2514.79,345.297 2514.79,346.679C2514.79,348.202 2512.92,371.399 2512.6,376.228C2511.86,395.571 2511.64,427.21 2511.64,452.707C2533.85,441.983 2552.9,433.623 2572.27,433.623C2594.79,433.623 2607.34,449.737 2609.56,464.21C2610.91,472.224 2610.91,476.893 2610.91,518.454L2610.91,541.332C2610.91,560.343 2614.72,560.71 2626.98,562.253C2632.24,562.596 2632.84,562.906 2632.84,567.405C2632.84,571.593 2631.81,572.525 2627.37,572.525C2617.38,572.525 2601.22,571.874 2591.2,571.874C2586.37,571.874 2565.75,572.525 2561.51,572.525C2557.98,572.525 2557.69,571.593 2557.69,567.736C2557.69,563.267 2558.34,562.906 2564.23,561.908C2572.57,560.343 2575.76,557.319 2577.28,550.017C2579,542.932 2579.67,513.91 2579.67,504.937C2579.67,479.771 2579.67,454.932 2547.36,454.932C2534.15,454.932 2520.23,460.087 2511.64,463.296C2511.86,530.068 2512.23,544.841 2513.55,551.944C2515.11,559.696 2519.33,561.607 2529.67,562.253C2534.15,562.253 2534.9,563.267 2534.9,567.405C2534.9,571.874 2533.85,572.525 2530.01,572.525C2524.14,572.525 2498.37,571.874 2493.24,571.874C2488.04,571.874 2466.49,572.525 2462.29,572.525C2458.84,572.525 2458.08,571.266 2458.08,568.422C2458.08,562.906 2458.84,562.596 2464.25,561.908C2477.36,559.696 2479.05,549.02 2479.64,535.238C2480.36,516.793 2481.02,504.937 2481.02,450.709C2481.02,436.547 2481.02,389.136 2479.64,379.189Z" style="fill:rgb(35,31,32);fill-rule:nonzero;"/>
        <path d="M2701.14,556.493C2709.87,556.493 2727.6,553.243 2729.45,546.442C2730.5,543.257 2730.5,527.837 2730.5,522.274C2730.5,515.474 2727.93,512.65 2721.81,512.65C2713.72,512.65 2704.71,515.474 2698.28,518.131C2682.45,524.587 2682.45,528.769 2682.45,534.57C2682.45,551.944 2688.96,556.493 2701.14,556.493ZM2795.92,547.094L2795.61,554.134C2795.61,559.049 2795.61,559.696 2792.06,561.607C2773.76,571.266 2756.97,575.809 2748.31,575.809C2733.74,575.809 2731.5,564.486 2730.87,561.301C2721.13,565.544 2699.51,575.504 2679.87,575.504C2654.52,575.504 2649.98,556.186 2649.98,542.932C2649.98,521.969 2657.63,518.131 2675.35,512.289C2689.61,507.826 2709.87,503.884 2731.13,501.633C2731.5,473.95 2731.13,468.448 2728.56,463.296C2725.31,454.932 2715.71,453.272 2708,453.272C2704.71,453.272 2696.57,453.633 2689.61,456.252C2686.32,457.468 2686.14,459.115 2686.14,460.739C2686.14,461.631 2686.59,466.867 2686.59,468.161C2686.59,471.111 2685.37,472.571 2681.45,473.95C2678.02,475.229 2665.08,478.112 2659.9,478.112C2657.36,478.112 2655.13,476.528 2655.13,473.568C2655.13,462.359 2683.13,432.97 2725.31,432.97C2744.06,432.97 2752.55,441.722 2755.67,445.232C2761.48,452.314 2762.45,462.079 2762.45,469.36C2762.45,480.083 2760.81,527.406 2760.81,536.783C2760.81,548.413 2763.37,553.854 2771.82,553.854C2778.55,553.854 2788.25,550.017 2794.31,546.442L2795.92,547.094Z" style="fill:rgb(35,31,32);fill-rule:nonzero;"/>
        <path d="M2858.21,454.3C2858.21,484.56 2858.21,521.969 2858.75,541.001C2859.16,560.343 2866.26,561.908 2886.88,562.253C2892.06,562.253 2892.06,562.906 2892.06,567.166C2892.06,572.259 2891.04,572.931 2884.28,572.931C2878.93,572.931 2853.68,572.259 2837.22,572.259C2825.69,572.259 2810.41,572.931 2807.61,572.931C2805.38,572.931 2805.02,570.94 2805.02,568.422C2805.02,563.9 2805.02,563.267 2807.91,562.906C2823.05,560.71 2825.69,559.049 2826.28,537.089C2826.93,517.136 2826.93,477.807 2826.93,454.3L2810.22,454.3C2807.91,454.3 2807.61,454.3 2807.61,450.709C2807.61,446.246 2807.61,445.58 2809.17,444.926L2827.23,437.239C2827.94,411.056 2828.25,396.281 2845.3,375.944C2862.68,355.285 2887.23,344.366 2910.14,344.366C2932.68,344.366 2948.52,354.632 2948.52,365.657C2948.52,374.018 2931.69,381.748 2929.12,381.748C2926.54,381.748 2924.91,380.126 2921.06,376.594C2917.53,373.061 2910.75,366.572 2893.01,366.572C2859.44,366.572 2858.61,387.514 2858.21,436.547C2865.17,436.547 2940.86,435.955 2947.01,436.22C2950.52,436.547 2950.52,437.239 2950.52,444.926C2950.52,452.707 2950.52,454.3 2946.04,454.3L2858.21,454.3Z" style="fill:rgb(35,31,32);fill-rule:nonzero;"/>
        <path d="M3023.51,548.413L3023.51,554.542C3023.51,558.764 3023.51,559.049 3017.78,561.908C3011.41,565.112 2990.71,575.504 2971.06,575.504C2938.45,575.504 2938.45,547.826 2938.45,536.157C2938.45,530.068 2940.03,463.296 2940.34,453.939L2924.91,453.939C2923.88,453.633 2923.69,452.982 2923.69,449.515C2923.69,446.491 2923.88,446.246 2928.16,443.002C2939.74,434.636 2951.44,424.917 2960.12,415.277C2965.22,409.47 2965.87,408.763 2969.77,408.763C2972.6,408.763 2973.6,409.47 2973.6,411.422C2973.6,411.623 2971.96,432.69 2971.96,436.547C2977.51,436.547 3020.97,436.22 3023.24,436.547C3025.11,436.547 3025.11,437.519 3025.11,444.581C3025.11,446.246 3025.11,452.707 3024.54,453.633C3023.85,454.3 3020.66,454.3 3019.04,454.3L2971.33,454.3C2971.33,454.932 2970.72,481.642 2970.41,485.212C2970.07,498.123 2970.07,501.977 2970.07,519.757C2970.07,539.075 2970.07,554.862 2994.85,554.862C3006.82,554.862 3014.88,550.969 3020.38,548.413L3023.51,548.413Z" style="fill:rgb(35,31,32);fill-rule:nonzero;"/>
        <path d="M647.211,436.059L582.756,489.881L650.5,572.113L595.985,572.113L539.546,498.568L599.418,436.059L647.211,436.059ZM537.944,572.113L497.008,572.113L497.008,349.641L537.944,349.641L537.944,572.113Z" style="fill:rgb(35,31,32);fill-rule:nonzero;"/>
        <path d="M705.54,436.059L704.301,469.3C720.111,442.877 733.406,432.57 751.125,432.57C757.536,432.57 766.525,435.087 770.382,437.68C772.046,438.918 772.33,440.283 772.33,442.877C772.33,446.447 772.046,448.316 771.051,450.304L761.999,473.402L756.196,473.402C751.733,469.872 748.381,468.628 743.002,468.628C728.799,468.628 718.183,478.618 705.54,503.071L705.54,572.113L663.997,572.113L663.997,436.059L705.54,436.059Z" style="fill:rgb(35,31,32);fill-rule:nonzero;"/>
        <path d="M862.257,488.036C861.934,474.762 860.981,469.872 857.995,465.122C854.527,458.669 848.722,455.051 841.618,455.051C827.431,455.051 818.441,468.327 817.142,491.506L862.257,488.036ZM817.489,513.402C820.39,536.276 830.944,546.587 852.579,546.587C868.732,546.587 884.462,542.065 898.708,533.452L901.021,534.045L906.543,550.199C906.806,550.484 906.806,550.885 906.806,551.498C906.806,553.077 905.811,553.994 901.611,556.612C883.566,568.503 858.707,575.97 837.762,575.97C798.107,575.97 774.887,551.237 774.887,508.959C774.887,485.7 782.985,465.122 797.416,450.914C810.344,438.294 826.478,432.57 847.14,432.57C873.258,432.57 890.367,442.877 899.966,463.818C904.838,474.762 907.113,487.325 907.436,507.294L817.489,513.402Z" style="fill:rgb(35,31,32);fill-rule:nonzero;"/>
        <path d="M1008.97,511.19C999.229,512.451 982.263,515.329 976.784,516.631C966.126,518.944 963.855,521.503 963.855,531.486C963.855,542.731 968.381,546.587 980.621,546.587C988.981,546.587 992.188,545.996 1007.04,542.464L1008.97,541.819L1008.97,511.19ZM932.868,454.447C933.188,450.304 933.188,450.304 935.422,448.949C949.647,439.31 975.789,432.57 997.993,432.57C1018.35,432.57 1033.79,438.005 1041.87,447.629C1047.31,454.447 1049.62,462.846 1049.62,477.298L1049.62,486.026L1048.67,534.716C1048.34,544.39 1049.87,546.587 1055.75,546.587C1061.54,546.587 1067.36,545.288 1076.35,542.065L1077.63,543.072L1077.63,558.478C1077.63,562.053 1077.02,563.062 1073.15,565.033C1061.82,570.814 1045.42,575.285 1034.06,575.285C1023.46,575.285 1017.33,571.794 1012.61,562.495C986.08,572.378 974.389,575.285 959.939,575.285C938.041,575.285 924.462,560.45 924.462,535.991C924.462,506.361 936.721,499.56 1008.97,490.49C1008.97,472.103 1008.67,470.234 1006.72,466.703C1004.22,461.833 997.04,459.276 986.729,459.276C968.971,459.276 956.388,464.717 945.144,476.712L933.797,473.808L932.868,454.447Z" style="fill:rgb(35,31,32);fill-rule:nonzero;"/>
        <path d="M1213.12,436.059L1213.12,454.3L1138.57,454.3L1138.57,517.602C1138.57,540.865 1143.69,549.511 1156.97,549.511C1166.3,549.511 1176.26,547.314 1187.23,542.731L1189.8,543.743L1193.39,558.253L1193.39,559.537C1193.39,561.156 1192.44,561.768 1185.88,564.406C1167.68,572.378 1150.85,576.256 1135.68,576.256C1121.89,576.256 1110.59,570.474 1105.01,560.45C1101.23,553.773 1099.51,544.677 1099.51,529.602L1099.51,526.332L1100.53,455.257L1081.22,455.257L1081.22,449.595L1128.23,402.204L1139.31,402.204L1138.57,436.059L1213.12,436.059Z" style="fill:rgb(35,31,32);fill-rule:nonzero;"/>
        <rect x="1207.26" y="436.059" width="41.58" height="136.054" style="fill:rgb(35,31,32);fill-rule:nonzero;"/>
        <path d="M1311.33,436.059L1344.57,526.005L1380.39,436.059L1416.5,436.059L1349.81,572.113L1321.66,572.113L1264.31,436.059L1311.33,436.059Z" style="fill:rgb(35,31,32);fill-rule:nonzero;"/>
        <path d="M648.977,333.304L648.977,304.628L664.584,304.628L664.584,375.478L648.977,375.478L648.977,342.294L614.842,342.294L614.842,375.478L599.418,375.478L599.418,304.628L614.842,304.628L614.842,333.304L648.977,333.304Z" style="fill:rgb(35,31,32);fill-rule:nonzero;"/>
        <path d="M709.699,319.159L698.942,345.987L719.685,345.987L709.699,319.159ZM718.731,304.628L747.997,375.478L730.826,375.478L723.075,354.33L695.452,354.33L687.032,375.478L673.393,375.478L707.264,304.628L718.731,304.628Z" style="fill:rgb(35,31,32);fill-rule:nonzero;"/>
        <path d="M772.23,304.628L796.789,355.651L822.804,304.628L837.032,304.628L839.487,375.478L824.53,375.478L822.867,325.491L797.296,373.914L790.291,374.972L765.595,323.381L764.863,375.478L753.436,375.478L758.265,304.628L772.23,304.628Z" style="fill:rgb(35,31,32);fill-rule:nonzero;"/>
        <path d="M871.129,366.811C871.959,366.976 879.389,366.976 880.585,366.976C891.666,366.976 896.641,363.036 896.641,354.413C896.641,349.357 894.753,345.583 891.217,343.512C888.542,342.091 884.116,341.382 876.466,341.382L871.129,341.382L871.129,366.811ZM876.302,333.304C883.772,333.304 886.531,332.674 888.885,330.812C891.097,328.943 892.253,326.16 892.253,322.404C892.253,314.937 888.642,312.259 879.247,312.259C878.536,312.259 877.195,312.259 875.513,312.299C873.378,312.299 873.278,312.299 871.129,312.462L871.129,333.304L876.302,333.304ZM855.805,304.628C865.851,304.425 867.516,304.425 872.059,304.241C876.913,304.205 880.686,304.059 882.414,304.059C891.322,304.059 896.641,304.975 901.001,307.348C905.793,309.986 908.532,314.53 908.532,319.605C908.532,326.16 904.695,330.812 896.558,334.423C907.07,336.794 912.935,343.715 912.935,353.663C912.935,367.095 901.571,375.478 883.506,375.478L855.805,375.478L855.805,304.628Z" style="fill:rgb(35,31,32);fill-rule:nonzero;"/>
        <path d="M941.736,304.628L941.736,346.799C941.736,354.004 941.917,354.878 942.466,356.951C944.251,362.874 950.074,366.207 958.903,366.207C966.433,366.207 972.747,363.668 975.849,359.487C978.469,356.138 978.915,353.417 978.915,341.89L978.915,304.628L990.259,304.628L989.347,341.461C988.96,358.855 986.87,364.742 979.279,370.345C973.191,374.767 965.541,376.777 955.109,376.777C944.717,376.777 937.451,374.479 932.521,369.816C927.568,365.025 926.271,360.398 926.271,347.588L926.271,304.628L941.736,304.628Z" style="fill:rgb(35,31,32);fill-rule:nonzero;"/>
        <path d="M1022.29,337.63C1028.21,337.75 1029.49,337.75 1030.46,337.75C1042.11,337.75 1047.43,333.607 1047.43,324.68C1047.43,319.159 1045.26,315.446 1040.73,313.926C1038.42,312.908 1035.92,312.504 1030.24,312.504C1027.28,312.504 1026.79,312.504 1022.29,312.583L1022.29,337.63ZM1006.74,304.628C1024.52,304.241 1033.3,304.059 1033.3,304.059C1045.2,304.059 1050.37,304.975 1055.02,307.853C1060.89,311.526 1063.85,316.805 1063.85,323.665C1063.85,333.002 1058.19,339.372 1047.15,342.702C1057.03,363.036 1063.85,370.137 1072.6,369.531L1073,370.137L1071.88,374.479C1071.54,376.027 1068.54,376.777 1063.14,376.777C1054.64,376.777 1048.47,373.344 1042.72,365.329C1039.54,360.965 1036.57,355.651 1031.7,345.442C1029.65,345.583 1028.21,345.746 1026.08,345.746C1024.8,345.746 1023.87,345.746 1022.29,345.583L1022.29,375.478L1006.74,375.478L1006.74,304.628Z" style="fill:rgb(35,31,32);fill-rule:nonzero;"/>
        <path d="M1142.47,340.268L1142.47,372.82C1132.08,375.478 1122.36,376.777 1113.29,376.777C1102.17,376.777 1093.52,374.479 1086.76,370.017C1077.73,363.889 1072.54,353.334 1072.54,341.2C1072.54,318.692 1090.66,303.189 1117.02,303.189C1123.42,303.189 1134.46,304.873 1137.58,306.211C1138.57,306.554 1138.62,306.92 1138.62,308.422L1139.18,315.586L1139.18,316.073C1139.18,316.28 1138.94,316.501 1138.45,316.805L1136.47,317.982C1136.16,318.06 1135.96,318.143 1135.8,318.143C1135.45,318.143 1135,317.982 1133.52,316.904C1128.9,314.001 1121.51,311.893 1114.99,311.893C1098.64,311.893 1088.81,322.404 1088.81,339.332C1088.81,357.556 1098.64,368.149 1115.72,368.149C1119.28,368.149 1122.26,367.708 1126.93,366.526L1126.93,340.268L1142.47,340.268Z" style="fill:rgb(35,31,32);fill-rule:nonzero;"/>
        <path d="M1148.32,24.707C681.956,93.367 280.011,298.743 0,556.287L0,572.234C279.058,314.183 684.17,120.653 1152.3,51.801C1616.67,-16.521 2057.01,50.453 2397.42,214.191L2397.42,201.122C2055.55,36.408 1612.99,-43.595 1148.32,24.707Z" style="fill:rgb(238,38,36);fill-rule:nonzero;"/>
    </g>
</svg>
