<?xml version="1.0" encoding="UTF-8" standalone="no"?>
<!DOCTYPE svg PUBLIC "-//W3C//DTD SVG 1.1//EN" "http://www.w3.org/Graphics/SVG/1.1/DTD/svg11.dtd">
<svg width="100%" height="100%" viewBox="0 0 366 418" version="1.1" xmlns="http://www.w3.org/2000/svg" xmlns:xlink="http://www.w3.org/1999/xlink" xml:space="preserve" style="fill-rule:evenodd;clip-rule:evenodd;stroke-linejoin:round;stroke-miterlimit:1.41421;">
    <g>
        <rect x="106.2" y="0.049" width="104.006" height="89.199" style="fill:rgb(218,25,58);fill-rule:nonzero;"/>
        <rect x="0.609" y="0.047" width="105.585" height="89.201" style="fill:rgb(246,146,16);fill-rule:nonzero;"/>
        <rect x="261.57" y="241.061" width="104.006" height="158.336" style="fill:rgb(218,25,58);fill-rule:nonzero;"/>
        <rect x="155.979" y="241.06" width="105.585" height="158.337" style="fill:rgb(246,146,16);fill-rule:nonzero;"/>
        <path d="M233.207,346.067C233.207,350.137 229.935,353.41 225.953,353.41L178.622,353.41L178.622,338.814L225.953,338.814C230.023,338.814 233.207,342.086 233.207,346.067ZM243.115,346.067C243.204,336.513 235.418,328.729 225.953,328.729L168.714,328.729L168.714,388L178.622,388L178.622,363.407L225.953,363.407C235.418,363.407 243.115,355.623 243.115,346.067Z" style="fill:rgb(218,25,58);fill-rule:nonzero;"/>
        <path d="M294.074,338.763C290.004,338.763 286.82,342.037 286.82,346.019C286.82,350.086 290.093,353.361 294.074,353.361L334.15,353.361C343.618,353.361 351.4,361.058 351.314,370.612C351.314,380.166 343.618,387.95 334.15,387.95L259.009,387.95L259.009,377.954L334.15,377.954C338.13,377.954 341.405,374.681 341.405,370.612C341.405,366.631 338.218,363.358 334.15,363.358L294.074,363.358C284.607,363.358 276.912,355.572 276.912,346.019C276.822,336.464 284.607,328.678 294.074,328.678L351.314,328.678L351.314,338.763L294.074,338.763Z" style="fill:rgb(246,146,16);fill-rule:nonzero;"/>
        <path d="M194.948,384.858C194.948,386.651 193.674,387.943 191.893,387.943L184.761,387.943C183.045,387.943 181.707,386.586 181.707,384.858L181.707,377.395L183.471,377.395L183.471,384.858C183.471,385.599 184.022,386.165 184.761,386.165L191.893,386.165C192.695,386.165 193.185,385.659 193.185,384.858L193.185,377.395L194.948,377.395L194.948,384.858Z" style="fill:rgb(218,25,58);fill-rule:nonzero;"/>
        <path d="M208.722,387.943L199.717,379.33L199.717,387.943L197.953,387.943L197.953,377.395L200.424,377.395L209.431,386.004L209.431,377.395L211.192,377.395L211.192,387.943L208.722,387.943Z" style="fill:rgb(218,25,58);fill-rule:nonzero;"/>
        <path d="M225.675,385.077C225.675,385.78 225.094,386.381 224.385,386.381L215.962,386.381L215.962,379.408L224.385,379.408C225.094,379.408 225.675,379.991 225.675,380.698L225.675,385.077ZM227.442,384.858L227.442,380.48C227.442,378.779 226.071,377.395 224.385,377.395L214.2,377.395L214.2,387.943L224.385,387.943C226.071,387.943 227.442,386.557 227.442,384.858Z" style="fill:rgb(218,25,58);fill-rule:nonzero;"/>
        <path d="M164.961,413.436L157.549,413.436L157.549,417.288L155.997,417.288L155.997,408.004L164.961,408.004C166.444,408.004 167.664,409.223 167.649,410.719C167.649,412.215 166.444,413.436 164.961,413.436ZM164.961,409.584L157.549,409.584L157.549,411.87L164.961,411.87C165.585,411.87 166.098,411.358 166.098,410.719C166.098,410.096 165.599,409.584 164.961,409.584Z" style="fill:rgb(218,25,58);fill-rule:nonzero;"/>
        <path d="M176.337,414.571L175.575,414.571L178.249,417.274L176.378,417.274L173.677,414.571L171.266,414.571L171.266,417.274L169.936,417.274L169.936,410.54L176.337,410.54C177.446,410.54 178.346,411.44 178.333,412.563C178.333,413.671 177.446,414.571 176.337,414.571ZM176.337,411.884L171.266,411.884L171.266,413.242L176.337,413.242C176.697,413.242 177.002,412.937 177.002,412.563C177.016,412.188 176.711,411.884 176.337,411.884Z" style="fill:rgb(218,25,58);fill-rule:nonzero;"/>
        <path d="M186.909,417.288L182.475,417.288C181.297,417.288 180.453,416.442 180.453,415.265L180.453,412.563C180.453,411.426 181.339,410.54 182.475,410.54L186.909,410.54C188.059,410.54 188.932,411.413 188.932,412.563L188.932,415.265C188.932,416.47 188.115,417.288 186.909,417.288ZM187.574,412.563C187.574,412.147 187.325,411.884 186.909,411.884L182.475,411.884C182.087,411.884 181.796,412.174 181.796,412.563L181.796,415.265C181.796,415.707 182.032,415.944 182.475,415.944L186.909,415.944C187.366,415.944 187.574,415.721 187.574,415.265L187.574,412.563Z" style="fill:rgb(218,25,58);fill-rule:nonzero;"/>
        <path d="M196.622,417.288L190.844,417.288L190.844,415.944L196.622,415.944C197.065,415.944 197.301,415.707 197.301,415.265L197.301,410.54L198.645,410.54L198.645,415.265C198.645,416.457 197.8,417.288 196.622,417.288Z" style="fill:rgb(218,25,58);fill-rule:nonzero;"/>
        <path d="M200.571,417.288L200.571,410.54L209.051,410.54L209.051,411.884L201.915,411.884L201.915,413.242L209.051,413.242L209.051,414.585L201.915,414.585L201.915,415.944L209.051,415.944L209.051,417.288L200.571,417.288Z" style="fill:rgb(218,25,58);fill-rule:nonzero;"/>
        <path d="M217.115,417.288L212.307,414.683L212.307,417.288L210.962,417.288L210.962,410.54L212.307,410.54L212.307,413.144L217.087,410.54L219.525,410.54L213.346,413.908L219.553,417.288L217.115,417.288Z" style="fill:rgb(218,25,58);fill-rule:nonzero;"/>
        <path d="M226.093,411.884L226.093,417.288L224.75,417.288L224.75,411.884L221.189,411.884L221.189,410.54L229.668,410.54L229.668,411.884L226.093,411.884Z" style="fill:rgb(218,25,58);fill-rule:nonzero;"/>
        <path d="M231.58,417.288L231.58,410.54L240.06,410.54L240.06,411.884L232.924,411.884L232.924,413.242L240.06,413.242L240.06,414.585L232.924,414.585L232.924,415.944L240.06,415.944L240.06,417.288L231.58,417.288Z" style="fill:rgb(218,25,58);fill-rule:nonzero;"/>
        <path d="M254.443,417.288L250.008,417.288C248.873,417.288 247.985,416.402 247.985,415.265L247.985,410.54L249.33,410.54L249.33,415.265C249.33,415.653 249.621,415.944 250.008,415.944L254.443,415.944C254.872,415.944 255.107,415.694 255.107,415.265L255.107,410.54L256.465,410.54L256.465,415.265C256.465,416.429 255.607,417.288 254.443,417.288Z" style="fill:rgb(218,25,58);fill-rule:nonzero;"/>
        <path d="M265.139,417.288L259.721,412.147L259.721,417.288L258.377,417.288L258.377,410.54L260.095,410.54L265.5,415.68L265.5,410.54L266.857,410.54L266.857,417.288L265.139,417.288Z" style="fill:rgb(218,25,58);fill-rule:nonzero;"/>
        <path d="M275.226,417.288L268.769,417.288L268.769,410.54L275.226,410.54C276.349,410.54 277.25,411.44 277.25,412.563L277.25,415.265C277.25,416.373 276.335,417.288 275.226,417.288ZM275.89,412.563C275.89,412.188 275.599,411.884 275.226,411.884L270.113,411.884L270.113,415.944L275.226,415.93C275.599,415.93 275.89,415.639 275.89,415.265L275.89,412.563Z" style="fill:rgb(218,25,58);fill-rule:nonzero;"/>
        <path d="M288.222,409.584C287.585,409.584 287.085,410.096 287.085,410.719C287.085,411.358 287.599,411.87 288.222,411.87L294.5,411.87C295.982,411.87 297.203,413.076 297.187,414.571C297.187,416.068 295.982,417.288 294.5,417.288L285.535,417.288L285.535,415.721L294.5,415.721C295.125,415.721 295.636,415.209 295.636,414.571C295.636,413.949 295.138,413.436 294.5,413.436L288.222,413.436C286.74,413.436 285.535,412.215 285.535,410.719C285.521,409.223 286.74,408.004 288.222,408.004L297.187,408.004L297.187,409.584L288.222,409.584Z" style="fill:rgb(218,25,58);fill-rule:nonzero;"/>
        <path d="M299.474,417.288L299.474,410.54L307.953,410.54L307.953,411.884L300.818,411.884L300.818,413.242L307.953,413.242L307.953,414.585L300.818,414.585L300.818,415.944L307.953,415.944L307.953,417.288L299.474,417.288Z" style="fill:rgb(218,25,58);fill-rule:nonzero;"/>
        <path d="M318.789,417.288L318.789,412.494L315.644,417.288L314.355,417.288L311.21,412.494L311.21,417.288L309.867,417.288L309.867,410.54L311.597,410.54L314.992,415.624L318.402,410.54L320.134,410.54L320.134,417.288L318.789,417.288Z" style="fill:rgb(218,25,58);fill-rule:nonzero;"/>
        <rect x="322.06" y="410.54" width="1.344" height="6.748" style="fill:rgb(218,25,58);fill-rule:nonzero;"/>
        <path d="M332.091,417.288L326.673,412.147L326.673,417.288L325.33,417.288L325.33,410.54L327.046,410.54L332.451,415.68L332.451,410.54L333.808,410.54L333.808,417.288L332.091,417.288Z" style="fill:rgb(218,25,58);fill-rule:nonzero;"/>
        <path d="M343.23,417.288L342.4,415.944L337.896,415.944L337.064,417.288L335.429,417.288L339.476,410.54L340.82,410.54L344.865,417.288L343.23,417.288ZM340.154,412.313L338.742,414.585L341.568,414.585L340.154,412.313Z" style="fill:rgb(218,25,58);fill-rule:nonzero;"/>
        <path d="M352.902,414.571L352.14,414.571L354.814,417.274L352.943,417.274L350.242,414.571L347.832,414.571L347.832,417.274L346.502,417.274L346.502,410.54L352.902,410.54C354.011,410.54 354.91,411.44 354.896,412.563C354.896,413.671 354.011,414.571 352.902,414.571ZM352.902,411.884L347.832,411.884L347.832,413.242L352.902,413.242C353.263,413.242 353.566,412.937 353.566,412.563C353.582,412.188 353.277,411.884 352.902,411.884Z" style="fill:rgb(218,25,58);fill-rule:nonzero;"/>
        <path d="M357.017,417.288L357.017,410.54L365.498,410.54L365.498,411.884L358.361,411.884L358.361,413.242L365.498,413.242L365.498,414.585L358.361,414.585L358.361,415.944L365.498,415.944L365.498,417.288L357.017,417.288Z" style="fill:rgb(218,25,58);fill-rule:nonzero;"/>
        <rect x="230.634" y="377.84" width="30.961" height="10.116" style="fill:rgb(218,25,58);fill-rule:nonzero;"/>
    </g>
</svg>
